<svg width="643" height="665" viewBox="0 0 643 665" fill="none" xmlns="http://www.w3.org/2000/svg">
<g filter="url(#filter0_d_72_12)">
<path d="M310.441 620C481.893 620 620.882 481.208 620.882 310C620.882 138.792 481.893 0 310.441 0C138.989 0 0 138.792 0 310C0 481.208 138.989 620 310.441 620Z" fill="#92D8D8"/>
<path d="M310.441 7C478.036 7.00023 613.882 142.667 613.882 310C613.882 477.333 478.036 613 310.441 613C142.846 613 7 477.333 7 310C7 142.667 142.846 7 310.441 7Z" stroke="#292828" stroke-width="14"/>
</g>
<path d="M501.422 289.196C503.18 288.871 504.986 288.917 506.724 289.332C510.235 290.238 513.304 292.391 515.358 295.398C517.387 298.368 518.286 301.969 517.897 305.548C508.143 353.216 482.491 396.127 445.167 427.204C407.789 458.326 360.946 475.718 312.383 476.508C263.819 477.297 216.439 461.437 178.076 431.547C139.73 401.669 112.687 359.56 101.419 312.175C100.698 308.729 101.342 305.138 103.212 302.161C105.091 299.17 108.057 297.04 111.476 296.218L111.628 296.181L111.776 296.135C113.524 295.597 115.366 295.434 117.18 295.656C118.995 295.879 120.743 296.481 122.311 297.425C123.879 298.37 125.234 299.636 126.284 301.142C127.27 302.553 127.967 304.146 128.339 305.828L128.409 306.165L128.432 306.284L128.461 306.402C138.49 347.443 162.115 383.853 195.471 409.667C228.827 435.481 269.935 449.167 312.062 448.479C354.188 447.792 394.831 432.771 427.332 405.883C459.833 378.994 482.265 341.831 490.957 300.485L490.993 300.312L491.018 300.135C491.263 298.345 491.878 296.629 492.822 295.097C493.766 293.565 495.02 292.248 496.503 291.231C497.984 290.215 499.66 289.522 501.422 289.196Z" fill="#292828" stroke="#292828" stroke-width="10"/>
<path d="M229.304 145.228C237.59 145.228 245.565 148.481 251.546 154.319C257.487 160.119 260.998 168.021 261.339 176.387C260.998 184.753 257.487 192.655 251.546 198.454C245.565 204.293 237.59 207.546 229.304 207.546L228.527 207.537C220.52 207.341 212.856 204.11 207.062 198.454C201.12 192.654 197.608 184.752 197.267 176.387C197.608 168.021 201.12 160.119 207.062 154.319C212.856 148.663 220.52 145.434 228.527 145.237L229.304 145.228Z" fill="#292828" stroke="#292828" stroke-width="10"/>
<path d="M385.909 145.233C390.104 145.161 394.272 145.916 398.175 147.454C402.077 148.992 405.634 151.282 408.646 154.193C411.657 157.103 414.063 160.576 415.725 164.413C417.369 168.212 418.251 172.294 418.326 176.431C417.994 184.767 414.45 192.658 408.423 198.457C402.364 204.286 394.272 207.546 385.848 207.546L385.059 207.537C376.919 207.34 369.142 204.104 363.272 198.457C357.242 192.655 353.697 184.76 353.368 176.419C353.439 172.288 354.316 168.209 355.956 164.412C357.613 160.576 360.013 157.103 363.021 154.193C366.028 151.282 369.584 148.992 373.482 147.454C377.137 146.013 381.026 145.258 384.953 145.229L385.739 145.233L385.824 145.234L385.909 145.233Z" fill="#292828" stroke="#292828" stroke-width="10"/>
<defs>
<filter id="filter0_d_72_12" x="0" y="0" width="642.882" height="665" filterUnits="userSpaceOnUse" color-interpolation-filters="sRGB">
<feFlood flood-opacity="0" result="BackgroundImageFix"/>
<feColorMatrix in="SourceAlpha" type="matrix" values="0 0 0 0 0 0 0 0 0 0 0 0 0 0 0 0 0 0 127 0" result="hardAlpha"/>
<feOffset dx="22" dy="45"/>
<feColorMatrix type="matrix" values="0 0 0 0 0.160784 0 0 0 0 0.156863 0 0 0 0 0.156863 0 0 0 1 0"/>
<feBlend mode="normal" in2="BackgroundImageFix" result="effect1_dropShadow_72_12"/>
<feBlend mode="normal" in="SourceGraphic" in2="effect1_dropShadow_72_12" result="shape"/>
</filter>
</defs>
</svg>
