<svg width="557" height="551" viewBox="0 0 557 551" fill="none" xmlns="http://www.w3.org/2000/svg">
<g filter="url(#filter0_d_72_34)">
<path d="M422.63 448.119C423.67 439.31 430.973 432.571 439.838 432.242L518.859 429.306C534.393 428.729 541.941 410.058 531.171 398.848L419.846 282.97C413.153 276.004 413.153 264.996 419.846 258.03L531.173 142.149C541.942 130.94 534.396 112.269 518.862 111.691L439.843 108.752C430.979 108.422 423.677 101.684 422.636 92.8759L413.652 16.825C411.868 1.72697 393.328 -4.49691 382.796 6.46643L281.48 111.925C274.397 119.298 262.603 119.298 255.52 111.925L154.204 6.46645C143.672 -4.49688 125.132 1.72698 123.348 16.825L114.364 92.8759C113.323 101.684 106.021 108.422 97.1571 108.752L18.1379 111.691C2.60426 112.269 -4.94238 130.94 5.82673 142.149L117.154 258.03C123.847 264.996 123.847 276.004 117.154 282.97L5.82889 398.848C-4.94056 410.058 2.60691 428.729 18.141 429.306L97.1622 432.242C106.027 432.571 113.33 439.31 114.37 448.119L123.35 524.172C125.133 539.271 143.673 545.495 154.206 534.532L255.52 429.075C262.603 421.702 274.397 421.702 281.48 429.075L382.794 534.532C393.327 545.495 411.867 539.27 413.65 524.172L422.63 448.119Z" fill="#E5B0A9"/>
<path d="M387.844 11.3164C394.28 4.61658 405.61 8.41995 406.7 17.6465L415.685 93.6973C417.107 105.74 426.957 114.995 439.007 115.719L439.583 115.747L518.602 118.687C528.094 119.04 532.706 130.45 526.125 137.3L414.798 253.18C405.502 262.855 405.502 278.145 414.798 287.82L526.123 403.698C532.704 410.549 528.092 421.959 518.599 422.312L439.578 425.247C427.267 425.704 417.123 435.063 415.679 447.298L406.698 523.351C405.609 532.578 394.279 536.382 387.842 529.682L286.528 424.226C276.844 414.146 260.82 413.988 250.938 423.753L250.472 424.226L149.158 529.682C142.721 536.382 131.391 532.577 130.302 523.351L121.321 447.298C119.899 435.254 110.049 425.997 97.998 425.274L97.4219 425.247L18.4004 422.312C9.05604 421.964 4.44085 410.902 10.5762 404.022L10.877 403.698L122.202 287.82C131.498 278.145 131.498 262.855 122.202 253.18L10.875 137.3C4.39663 130.557 8.76405 119.395 17.957 118.711L18.3984 118.687L97.417 115.747C109.728 115.289 119.87 105.931 121.315 93.6973L130.3 17.6465C131.39 8.41997 142.72 4.61657 149.156 11.3164L250.472 116.774C260.309 127.014 276.691 127.014 286.528 116.774L387.844 11.3164Z" stroke="#292828" stroke-width="14"/>
</g>
<defs>
<filter id="filter0_d_72_34" x="0.776001" y="0.914673" width="555.448" height="549.169" filterUnits="userSpaceOnUse" color-interpolation-filters="sRGB">
<feFlood flood-opacity="0" result="BackgroundImageFix"/>
<feColorMatrix in="SourceAlpha" type="matrix" values="0 0 0 0 0 0 0 0 0 0 0 0 0 0 0 0 0 0 127 0" result="hardAlpha"/>
<feOffset dx="20" dy="10"/>
<feColorMatrix type="matrix" values="0 0 0 0 0.160784 0 0 0 0 0.156863 0 0 0 0 0.156863 0 0 0 1 0"/>
<feBlend mode="normal" in2="BackgroundImageFix" result="effect1_dropShadow_72_34"/>
<feBlend mode="normal" in="SourceGraphic" in2="effect1_dropShadow_72_34" result="shape"/>
</filter>
</defs>
</svg>
