<svg width="626" height="627" viewBox="0 0 626 627" fill="none" xmlns="http://www.w3.org/2000/svg">
<g filter="url(#filter0_d_72_41)">
<path d="M15.6802 274.58C-3.77628 277.792 -4.42134 308.256 14.8898 312.25C178.99 346.191 250.373 393.527 289.929 567.1C294.405 586.741 329.589 586.437 333.223 566.624C364.812 394.38 416.396 342.753 588.619 311.192C608.433 307.561 608.437 274.411 588.623 270.777C416.38 239.188 364.752 187.604 333.192 15.381C329.561 -4.4332 296.411 -4.43721 292.777 15.3765C259.899 194.651 205.359 243.261 15.6802 274.58Z" fill="#92D8D8"/>
<path d="M312.984 7.51855C319.888 7.51935 324.982 10.9727 326.2 16.1377L326.307 16.6426C342.142 103.056 363.243 160.817 403.202 200.767C443.161 240.715 500.938 261.812 587.36 277.662C592.803 278.66 596.482 283.858 596.481 290.984C596.481 297.888 593.027 302.983 587.862 304.201L587.357 304.307C500.944 320.142 443.182 341.243 403.232 381.202C363.284 421.161 342.188 478.938 326.338 565.36C325.379 570.59 319.913 574.577 311.822 574.657C303.99 574.735 298.325 571.081 296.881 566.037L296.755 565.545C276.821 478.074 248.604 421.195 203.715 382.038C159.678 343.624 100.467 323.061 20.1484 306.195L16.3076 305.396C10.8304 304.263 7.61631 299.39 7.74512 293.27C7.87409 287.148 11.2941 282.399 16.8203 281.486C111.809 265.802 174.704 245.585 217.791 205.593C260.311 166.127 282.467 108.428 298.885 20.833L299.662 16.6396C300.66 11.1966 305.858 7.51777 312.984 7.51855Z" stroke="#292828" stroke-width="14"/>
</g>
<defs>
<filter id="filter0_d_72_41" x="0.742188" y="0.518311" width="624.74" height="626.14" filterUnits="userSpaceOnUse" color-interpolation-filters="sRGB">
<feFlood flood-opacity="0" result="BackgroundImageFix"/>
<feColorMatrix in="SourceAlpha" type="matrix" values="0 0 0 0 0 0 0 0 0 0 0 0 0 0 0 0 0 0 127 0" result="hardAlpha"/>
<feOffset dx="22" dy="45"/>
<feColorMatrix type="matrix" values="0 0 0 0 0.160784 0 0 0 0 0.156863 0 0 0 0 0.156863 0 0 0 1 0"/>
<feBlend mode="normal" in2="BackgroundImageFix" result="effect1_dropShadow_72_41"/>
<feBlend mode="normal" in="SourceGraphic" in2="effect1_dropShadow_72_41" result="shape"/>
</filter>
</defs>
</svg>
