<svg width="576" height="435" viewBox="0 0 576 435" fill="none" xmlns="http://www.w3.org/2000/svg">
<g filter="url(#filter0_d_72_17)">
<path d="M461.662 0C437.174 0.00273349 413.69 9.72103 396.375 27.0173C379.06 44.3135 369.333 67.7711 369.333 92.2303C369.333 80.1185 366.945 68.1252 362.305 56.9353C357.664 45.7454 350.862 35.578 342.288 27.0136C333.714 18.4492 323.534 11.6556 312.331 7.02064C301.128 2.38563 289.121 0 276.995 0C252.507 0.00273349 229.023 9.72103 211.708 27.0173C194.394 44.3135 184.667 67.7711 184.667 92.2303C184.667 80.1185 182.278 68.1252 177.638 56.9353C172.997 45.7454 166.196 35.578 157.621 27.0136C149.047 18.4492 138.868 11.6556 127.665 7.02064C116.462 2.38563 104.454 0 92.3282 0V0C67.8403 0.00273349 44.3563 9.72103 27.0417 27.0173C9.72712 44.3135 -1.52922e-07 67.7711 0 92.2303V297.77C-1.52922e-07 322.229 9.72712 345.686 27.0417 362.983C44.3563 380.279 67.8403 389.997 92.3282 390V390C116.818 390 140.305 380.283 157.621 362.986C174.938 345.69 184.667 322.231 184.667 297.77C184.667 322.229 194.394 345.686 211.708 362.983C229.023 380.279 252.507 389.997 276.995 390C301.485 390 324.971 380.283 342.288 362.986C359.605 345.69 369.333 322.231 369.333 297.77C369.333 322.229 379.06 345.686 396.375 362.983C413.69 380.279 437.174 389.997 461.662 390V390C486.151 390 509.638 380.283 526.955 362.986C544.272 345.69 554 322.231 554 297.77V92.2303C554 80.1185 551.612 68.1252 546.971 56.9353C542.331 45.7454 535.529 35.578 526.955 27.0136C518.38 18.4492 508.201 11.6556 496.998 7.02064C485.795 2.38563 473.788 0 461.662 0V0Z" fill="#B298DC"/>
<path d="M461.661 7C472.869 7 483.968 9.20536 494.322 13.4893C504.676 17.7731 514.084 24.0513 522.008 31.9658C529.932 39.8806 536.217 49.2772 540.505 59.6172C544.793 69.9571 547 81.0391 547 92.2305V297.77L546.993 298.828C546.717 321.047 537.761 342.299 522.008 358.034C506.004 374.019 484.297 382.999 461.661 382.999C439.027 382.996 417.323 374.014 401.322 358.03C385.571 342.296 376.616 321.046 376.34 298.828L376.333 297.77H362.333C362.333 320.371 353.344 342.05 337.341 358.034C321.337 374.019 299.631 382.999 276.995 382.999C254.361 382.996 232.657 374.015 216.655 358.03C200.904 342.296 191.949 321.046 191.673 298.828L191.667 297.77H177.667C177.667 320.371 168.678 342.05 152.675 358.034C136.671 374.019 114.964 382.999 92.3281 382.999C69.6943 382.996 47.9904 374.014 31.9893 358.03C15.9881 342.046 7 320.37 7 297.77V92.2305L7.00684 91.1719C7.28278 68.9543 16.2381 47.7042 31.9893 31.9697C47.9904 15.9856 69.6943 7.00275 92.3281 7C103.536 7 114.634 9.2054 124.988 13.4893C135.343 17.7731 144.751 24.0511 152.675 31.9658C160.599 39.8806 166.884 49.2772 171.172 59.6172C175.326 69.634 177.527 80.3472 177.66 91.1816L177.667 92.2305H191.667C191.667 69.6303 200.654 47.9539 216.655 31.9697C232.657 15.9854 254.361 7.00267 276.995 7C288.203 7.00003 299.301 9.2054 309.655 13.4893C320.009 17.7731 329.417 24.0513 337.341 31.9658C345.265 39.8806 351.551 49.2772 355.839 59.6172C359.993 69.634 362.194 80.3472 362.327 91.1816L362.333 92.2305H376.333C376.333 69.6303 385.321 47.9539 401.322 31.9697C417.323 15.9856 439.027 7.00284 461.661 7Z" stroke="#292828" stroke-width="14"/>
</g>
<defs>
<filter id="filter0_d_72_17" x="0" y="0" width="576" height="435" filterUnits="userSpaceOnUse" color-interpolation-filters="sRGB">
<feFlood flood-opacity="0" result="BackgroundImageFix"/>
<feColorMatrix in="SourceAlpha" type="matrix" values="0 0 0 0 0 0 0 0 0 0 0 0 0 0 0 0 0 0 127 0" result="hardAlpha"/>
<feOffset dx="22" dy="45"/>
<feColorMatrix type="matrix" values="0 0 0 0 0.0980392 0 0 0 0 0.0823529 0 0 0 0 0.290196 0 0 0 1 0"/>
<feBlend mode="normal" in2="BackgroundImageFix" result="effect1_dropShadow_72_17"/>
<feBlend mode="normal" in="SourceGraphic" in2="effect1_dropShadow_72_17" result="shape"/>
</filter>
</defs>
</svg>
