<svg width="496" height="486" viewBox="0 0 496 486" fill="none" xmlns="http://www.w3.org/2000/svg">
<g filter="url(#filter0_d_72_32)">
<path d="M476 36.3263V18C476 8.05889 467.941 0 458 0H18C8.05892 0 3.33462e-05 8.05887 3.33462e-05 18V36.3263C-0.0211369 76.5192 10.0381 116.069 29.2478 151.319C43.957 178.31 63.6678 202.113 87.2288 221.491C97.361 229.825 97.361 246.175 87.2288 254.509C63.6678 273.887 43.957 297.69 29.2478 324.681C10.0381 359.931 -0.0211369 399.481 3.33462e-05 439.674V458C3.33462e-05 467.941 8.05891 476 18 476H458C467.941 476 476 467.941 476 458V439.674C476.021 399.481 465.962 359.931 446.752 324.681C432.043 297.69 412.332 273.887 388.771 254.509C378.639 246.175 378.639 229.825 388.771 221.491C412.332 202.113 432.043 178.31 446.752 151.319C465.962 116.069 476.021 76.5192 476 36.3263Z" fill="#92D8D8"/>
<path d="M7 439.67C6.97946 400.647 16.7462 362.251 35.3945 328.031C49.6738 301.829 68.8075 278.723 91.6758 259.915C105.212 248.782 105.212 227.218 91.6758 216.085C68.8075 197.277 49.6738 174.171 35.3945 147.969C17.0376 114.284 7.28655 76.5519 7.00586 38.1592L7 36.3301V18C7 11.9249 11.9249 7.00002 18 7H458C464.075 7.00003 469 11.9249 469 18V36.3301C469.021 75.3528 459.254 113.749 440.605 147.969C426.326 174.171 407.193 197.277 384.325 216.085C370.788 227.218 370.788 248.782 384.325 259.915C407.193 278.723 426.326 301.829 440.605 328.031C458.962 361.716 468.713 399.448 468.994 437.841L469 439.67V458C469 464.075 464.075 469 458 469H18C11.9249 469 7 464.075 7 458V439.67Z" stroke="#292828" stroke-width="14"/>
</g>
<defs>
<filter id="filter0_d_72_32" x="0" y="0" width="496" height="486" filterUnits="userSpaceOnUse" color-interpolation-filters="sRGB">
<feFlood flood-opacity="0" result="BackgroundImageFix"/>
<feColorMatrix in="SourceAlpha" type="matrix" values="0 0 0 0 0 0 0 0 0 0 0 0 0 0 0 0 0 0 127 0" result="hardAlpha"/>
<feOffset dx="20" dy="10"/>
<feColorMatrix type="matrix" values="0 0 0 0 0.160784 0 0 0 0 0.156863 0 0 0 0 0.156863 0 0 0 1 0"/>
<feBlend mode="normal" in2="BackgroundImageFix" result="effect1_dropShadow_72_32"/>
<feBlend mode="normal" in="SourceGraphic" in2="effect1_dropShadow_72_32" result="shape"/>
</filter>
</defs>
</svg>
