<svg width="602" height="625" viewBox="0 0 602 625" fill="none" xmlns="http://www.w3.org/2000/svg">
<g filter="url(#filter0_d_72_20)">
<mask id="path-1-inside-1_72_20" fill="white">
<path d="M289.981 0C299.923 0 308.058 8.05887 308.058 18V108.377C308.058 117.55 314.985 125.149 323.96 127.042C324.144 127.081 324.329 127.121 324.513 127.16C333.509 129.09 342.959 124.94 346.676 116.524L383.237 33.749C387.254 24.6555 397.951 20.5705 407.045 24.5869C416.138 28.6035 420.323 39.262 416.307 48.3555L378.301 134.4C375.373 141.028 377.945 148.754 383.904 152.878V152.878C389.906 157.032 398.085 156.655 403.246 151.493L469.652 85.0879C476.682 78.059 488.132 78.1124 495.161 85.1416C502.191 92.171 502.244 103.622 495.215 110.651L430.153 175.711C424.134 181.731 423.654 191.24 428.334 198.351V198.351C433.037 205.498 442.05 208.866 449.982 205.66L535.408 171.129C544.625 167.404 555.145 171.925 558.87 181.142C562.596 190.358 558.173 200.92 548.956 204.646L462.233 239.701C454.981 242.633 451.144 250.448 452.615 258.131V258.131C454.093 265.857 460.625 271.902 468.491 271.902H562C571.941 271.902 580 280.037 580 289.978C580 299.919 571.941 308.054 562 308.054H470.667C461.495 308.054 453.896 314.981 452.003 323.956C451.97 324.112 451.937 324.269 451.903 324.426C449.979 333.418 454.128 342.86 462.538 346.577L546.18 383.537C555.273 387.555 559.357 398.253 555.339 407.346C551.321 416.439 540.661 420.622 531.568 416.604L444.365 378.069C437.925 375.223 430.417 377.722 426.427 383.524V383.524C422.427 389.341 422.814 397.244 427.806 402.236L495.129 469.56C502.158 476.589 502.105 488.04 495.075 495.069C488.046 502.099 476.595 502.151 469.565 495.122L404.142 429.698C398.07 423.626 388.468 423.168 381.316 427.921V427.921C374.18 432.662 370.83 441.687 374.041 449.63L408.691 535.348C412.417 544.564 407.895 555.084 398.679 558.81C389.462 562.535 378.901 558.113 375.175 548.896L340.054 462.014C337.129 454.779 329.318 450.967 321.661 452.468V452.468C314.018 453.966 308.058 460.444 308.058 468.231V562C308.058 571.941 299.923 580 289.981 580C280.04 580 271.906 571.941 271.906 562V470.852C271.906 461.642 264.924 454.023 255.902 452.169C255.719 452.131 255.536 452.093 255.353 452.055C246.385 450.179 236.994 454.334 233.292 462.715L196.518 545.979C192.501 555.072 181.804 559.157 172.71 555.141C163.617 551.124 159.432 540.466 163.448 531.372L201.681 444.809C204.529 438.36 202.006 430.842 196.179 426.874V426.874C190.381 422.925 182.534 423.33 177.574 428.291L110.549 495.317C103.519 502.347 92.0685 502.293 85.0391 495.264C78.0099 488.234 77.9563 476.784 84.9854 469.755L149.623 405.116C155.849 398.89 156.292 389.036 151.396 381.718V381.718C146.536 374.452 137.327 371.037 129.222 374.313L44.6035 408.52C35.3869 412.245 24.8672 407.723 21.1416 398.507C17.4162 389.29 21.8391 378.729 31.0557 375.003L116.989 340.265C124.274 337.32 128.109 329.451 126.594 321.741V321.741C125.083 314.052 118.566 308.054 110.73 308.054H18C8.05887 308.054 0 299.919 0 289.978C0.00020514 280.037 8.059 271.902 18 271.902H108.194C117.404 271.902 125.022 264.92 126.877 255.898C126.925 255.668 126.972 255.438 127.021 255.208C128.905 246.237 124.753 236.837 116.368 233.131L33.9834 196.728C24.8907 192.709 20.8073 182.012 24.8252 172.919C28.8432 163.826 39.5028 159.643 48.5957 163.661L134.013 201.405C140.635 204.331 148.354 201.743 152.446 195.77V195.77C156.537 189.8 156.142 181.698 151.024 176.581L84.8994 110.456C77.8704 103.427 77.9239 91.9766 84.9531 84.9473C91.9826 77.9178 103.433 77.8641 110.463 84.8936L174.732 149.163C180.906 155.336 190.666 155.801 197.945 150.981V150.981C205.225 146.16 208.659 136.964 205.386 128.868L171.301 44.5439C167.575 35.3274 172.096 24.8068 181.312 21.0811C190.529 17.3554 201.092 21.7785 204.817 30.9951L239.489 116.767C242.441 124.071 250.314 127.93 258.05 126.446V126.446C265.823 124.955 271.906 118.383 271.906 110.469V18C271.906 8.059 280.04 0.000205128 289.981 0Z"/>
</mask>
<path d="M289.981 0C299.923 0 308.058 8.05887 308.058 18V108.377C308.058 117.55 314.985 125.149 323.96 127.042C324.144 127.081 324.329 127.121 324.513 127.16C333.509 129.09 342.959 124.94 346.676 116.524L383.237 33.749C387.254 24.6555 397.951 20.5705 407.045 24.5869C416.138 28.6035 420.323 39.262 416.307 48.3555L378.301 134.4C375.373 141.028 377.945 148.754 383.904 152.878V152.878C389.906 157.032 398.085 156.655 403.246 151.493L469.652 85.0879C476.682 78.059 488.132 78.1124 495.161 85.1416C502.191 92.171 502.244 103.622 495.215 110.651L430.153 175.711C424.134 181.731 423.654 191.24 428.334 198.351V198.351C433.037 205.498 442.05 208.866 449.982 205.66L535.408 171.129C544.625 167.404 555.145 171.925 558.87 181.142C562.596 190.358 558.173 200.92 548.956 204.646L462.233 239.701C454.981 242.633 451.144 250.448 452.615 258.131V258.131C454.093 265.857 460.625 271.902 468.491 271.902H562C571.941 271.902 580 280.037 580 289.978C580 299.919 571.941 308.054 562 308.054H470.667C461.495 308.054 453.896 314.981 452.003 323.956C451.97 324.112 451.937 324.269 451.903 324.426C449.979 333.418 454.128 342.86 462.538 346.577L546.18 383.537C555.273 387.555 559.357 398.253 555.339 407.346C551.321 416.439 540.661 420.622 531.568 416.604L444.365 378.069C437.925 375.223 430.417 377.722 426.427 383.524V383.524C422.427 389.341 422.814 397.244 427.806 402.236L495.129 469.56C502.158 476.589 502.105 488.04 495.075 495.069C488.046 502.099 476.595 502.151 469.565 495.122L404.142 429.698C398.07 423.626 388.468 423.168 381.316 427.921V427.921C374.18 432.662 370.83 441.687 374.041 449.63L408.691 535.348C412.417 544.564 407.895 555.084 398.679 558.81C389.462 562.535 378.901 558.113 375.175 548.896L340.054 462.014C337.129 454.779 329.318 450.967 321.661 452.468V452.468C314.018 453.966 308.058 460.444 308.058 468.231V562C308.058 571.941 299.923 580 289.981 580C280.04 580 271.906 571.941 271.906 562V470.852C271.906 461.642 264.924 454.023 255.902 452.169C255.719 452.131 255.536 452.093 255.353 452.055C246.385 450.179 236.994 454.334 233.292 462.715L196.518 545.979C192.501 555.072 181.804 559.157 172.71 555.141C163.617 551.124 159.432 540.466 163.448 531.372L201.681 444.809C204.529 438.36 202.006 430.842 196.179 426.874V426.874C190.381 422.925 182.534 423.33 177.574 428.291L110.549 495.317C103.519 502.347 92.0685 502.293 85.0391 495.264C78.0099 488.234 77.9563 476.784 84.9854 469.755L149.623 405.116C155.849 398.89 156.292 389.036 151.396 381.718V381.718C146.536 374.452 137.327 371.037 129.222 374.313L44.6035 408.52C35.3869 412.245 24.8672 407.723 21.1416 398.507C17.4162 389.29 21.8391 378.729 31.0557 375.003L116.989 340.265C124.274 337.32 128.109 329.451 126.594 321.741V321.741C125.083 314.052 118.566 308.054 110.73 308.054H18C8.05887 308.054 0 299.919 0 289.978C0.00020514 280.037 8.059 271.902 18 271.902H108.194C117.404 271.902 125.022 264.92 126.877 255.898C126.925 255.668 126.972 255.438 127.021 255.208C128.905 246.237 124.753 236.837 116.368 233.131L33.9834 196.728C24.8907 192.709 20.8073 182.012 24.8252 172.919C28.8432 163.826 39.5028 159.643 48.5957 163.661L134.013 201.405C140.635 204.331 148.354 201.743 152.446 195.77V195.77C156.537 189.8 156.142 181.698 151.024 176.581L84.8994 110.456C77.8704 103.427 77.9239 91.9766 84.9531 84.9473C91.9826 77.9178 103.433 77.8641 110.463 84.8936L174.732 149.163C180.906 155.336 190.666 155.801 197.945 150.981V150.981C205.225 146.16 208.659 136.964 205.386 128.868L171.301 44.5439C167.575 35.3274 172.096 24.8068 181.312 21.0811C190.529 17.3554 201.092 21.7785 204.817 30.9951L239.489 116.767C242.441 124.071 250.314 127.93 258.05 126.446V126.446C265.823 124.955 271.906 118.383 271.906 110.469V18C271.906 8.059 280.04 0.000205128 289.981 0Z" fill="#B5E8E8"/>
<path d="M289.981 0L289.981 -10L289.981 -10L289.981 0ZM308.058 18L318.058 18L308.058 18ZM383.237 33.749L392.385 37.7894L392.385 37.7893L383.237 33.749ZM407.045 24.5869L411.085 15.4395L411.085 15.4394L407.045 24.5869ZM416.307 48.3555L425.454 52.3958L425.454 52.3957L416.307 48.3555ZM469.652 85.0879L462.582 78.0166L462.581 78.0168L469.652 85.0879ZM495.161 85.1416L502.232 78.0705L502.232 78.0705L495.161 85.1416ZM495.215 110.651L502.286 117.723L502.286 117.722L495.215 110.651ZM535.408 171.129L531.661 161.858L531.661 161.858L535.408 171.129ZM558.87 181.142L568.141 177.394L568.141 177.394L558.87 181.142ZM548.956 204.646L552.704 213.917L552.704 213.917L548.956 204.646ZM580 289.978L590 289.978L590 289.977L580 289.978ZM546.18 383.537L542.138 392.684L542.138 392.684L546.18 383.537ZM555.339 407.346L564.486 411.388L564.486 411.388L555.339 407.346ZM531.568 416.604L527.527 425.75L527.527 425.75L531.568 416.604ZM495.129 469.56L502.2 462.489L502.2 462.489L495.129 469.56ZM495.075 495.069L502.146 502.14L502.146 502.14L495.075 495.069ZM408.691 535.348L417.963 531.6L417.963 531.6L408.691 535.348ZM398.679 558.81L402.426 568.081L402.427 568.081L398.679 558.81ZM375.175 548.896L365.904 552.644L365.904 552.644L375.175 548.896ZM289.981 580L289.981 590H289.981V580ZM196.518 545.979L205.665 550.019L205.665 550.019L196.518 545.979ZM172.71 555.141L168.669 564.288L168.67 564.288L172.71 555.141ZM163.448 531.372L172.596 535.412L172.596 535.412L163.448 531.372ZM110.549 495.317L117.62 502.388L117.62 502.388L110.549 495.317ZM85.0391 495.264L77.9679 502.335L77.968 502.335L85.0391 495.264ZM84.9854 469.755L77.9142 462.684L77.9141 462.684L84.9854 469.755ZM44.6035 408.52L48.3512 417.791L48.3513 417.791L44.6035 408.52ZM21.1416 398.507L11.8704 402.254L11.8704 402.255L21.1416 398.507ZM31.0557 375.003L34.8033 384.274L34.8034 384.274L31.0557 375.003ZM0 289.978L-10 289.977V289.978H0ZM33.9834 196.728L29.9414 205.874L29.9416 205.874L33.9834 196.728ZM24.8252 172.919L15.6784 168.877L15.6784 168.877L24.8252 172.919ZM48.5957 163.661L44.5539 172.808L44.5539 172.808L48.5957 163.661ZM84.8994 110.456L77.8281 117.527L77.8283 117.527L84.8994 110.456ZM84.9531 84.9473L77.8821 77.8762L77.882 77.8763L84.9531 84.9473ZM110.463 84.8936L117.534 77.8225L110.463 84.8936ZM171.301 44.5439L180.572 40.7963L180.572 40.7963L171.301 44.5439ZM181.312 21.0811L177.565 11.8099L177.565 11.8099L181.312 21.0811ZM204.817 30.9951L214.089 27.2475L214.089 27.2474L204.817 30.9951ZM271.906 18H261.906H271.906ZM205.386 128.868L196.115 132.616L205.386 128.868ZM134.013 201.405L129.971 210.552L134.013 201.405ZM127.021 255.208L117.234 253.152L127.021 255.208ZM116.368 233.131L120.409 223.985L116.368 233.131ZM126.877 255.898L136.672 257.912L126.877 255.898ZM116.989 340.265L113.241 330.994L116.989 340.265ZM201.681 444.809L192.533 440.768L201.681 444.809ZM255.353 452.055L253.306 461.843L255.353 452.055ZM255.902 452.169L257.916 442.374L255.902 452.169ZM340.054 462.014L330.783 465.762L340.054 462.014ZM374.041 449.63L364.77 453.377L374.041 449.63ZM444.365 378.069L448.407 368.923L444.365 378.069ZM452.003 323.956L442.218 321.892L452.003 323.956ZM462.233 239.701L465.981 248.972L462.233 239.701ZM403.246 151.493L396.175 144.422L403.246 151.493ZM346.676 116.524L355.824 120.565L346.676 116.524ZM451.903 324.426L461.682 326.518L451.903 324.426ZM462.538 346.577L466.58 337.43L462.538 346.577ZM430.153 175.711L423.082 168.64L430.153 175.711ZM129.222 374.313L125.475 365.042L129.222 374.313ZM378.301 134.4L387.449 138.44L378.301 134.4ZM449.982 205.66L446.234 196.389L449.982 205.66ZM177.574 428.291L184.645 435.362L177.574 428.291ZM323.96 127.042L321.895 136.827L323.96 127.042ZM289.981 0V10C294.455 10 298.058 13.6366 298.058 18L308.058 18L318.058 18C318.058 2.48115 305.39 -10 289.981 -10V0ZM308.058 18H298.058V108.377H308.058H318.058V18H308.058ZM323.96 127.042L321.895 136.827C322.069 136.864 322.242 136.9 322.415 136.938L324.513 127.16L326.611 117.383C326.415 117.341 326.219 117.299 326.024 117.258L323.96 127.042ZM346.676 116.524L355.824 120.565L392.385 37.7894L383.237 33.749L374.09 29.7087L337.529 112.484L346.676 116.524ZM383.237 33.749L392.385 37.7893C394.148 33.798 398.913 31.9271 403.005 33.7344L407.045 24.5869L411.085 15.4394C396.99 9.21389 380.36 15.513 374.09 29.7087L383.237 33.749ZM407.045 24.5869L403.004 33.7343C407.096 35.5414 408.922 40.3233 407.159 44.3152L416.307 48.3555L425.454 52.3957C431.724 38.2006 425.181 21.6656 411.085 15.4395L407.045 24.5869ZM416.307 48.3555L407.159 44.3151L369.154 130.359L378.301 134.4L387.449 138.44L425.454 52.3958L416.307 48.3555ZM403.246 151.493L410.317 158.565L476.723 92.159L469.652 85.0879L462.581 78.0168L396.175 144.422L403.246 151.493ZM469.652 85.0879L476.723 92.1592C479.809 89.0737 484.927 89.0501 488.09 92.2127L495.161 85.1416L502.232 78.0705C491.336 67.1748 473.555 67.0442 462.582 78.0166L469.652 85.0879ZM495.161 85.1416L488.09 92.2127C491.253 95.3757 491.229 100.495 488.144 103.58L495.215 110.651L502.286 117.722C513.259 106.749 513.128 88.9664 502.232 78.0705L495.161 85.1416ZM495.215 110.651L488.144 103.58L423.082 168.64L430.153 175.711L437.224 182.782L502.286 117.723L495.215 110.651ZM449.982 205.66L453.729 214.931L539.156 180.4L535.408 171.129L531.661 161.858L446.234 196.389L449.982 205.66ZM535.408 171.129L539.156 180.4C543.201 178.765 547.923 180.742 549.599 184.889L558.87 181.142L568.141 177.394C562.366 163.108 546.048 156.042 531.661 161.858L535.408 171.129ZM558.87 181.142L549.599 184.889C551.275 189.036 549.254 193.739 545.208 195.374L548.956 204.646L552.704 213.917C567.091 208.101 573.916 191.68 568.141 177.394L558.87 181.142ZM548.956 204.646L545.208 195.374L458.486 230.43L462.233 239.701L465.981 248.972L552.704 213.917L548.956 204.646ZM468.491 271.902V281.902H562V271.902V261.902H468.491V271.902ZM562 271.902V281.902C566.364 281.902 570 285.505 570 289.978L580 289.978L590 289.977C590 274.568 577.518 261.902 562 261.902V271.902ZM580 289.978H570C570 294.451 566.363 298.054 562 298.054V308.054V318.054C577.519 318.054 590 305.386 590 289.978H580ZM562 308.054V298.054H470.667V308.054V318.054H562V308.054ZM452.003 323.956L442.218 321.892C442.187 322.039 442.156 322.186 442.124 322.334L451.903 324.426L461.682 326.518C461.717 326.352 461.753 326.186 461.788 326.019L452.003 323.956ZM462.538 346.577L458.497 355.724L542.138 392.684L546.18 383.537L550.222 374.39L466.58 337.43L462.538 346.577ZM546.18 383.537L542.138 392.684C546.13 394.448 548 399.213 546.192 403.304L555.339 407.346L564.486 411.388C570.714 397.292 564.415 380.662 550.222 374.39L546.18 383.537ZM555.339 407.346L546.192 403.304C544.384 407.395 539.602 409.221 535.61 407.457L531.568 416.604L527.527 425.75C541.721 432.022 558.257 425.482 564.486 411.388L555.339 407.346ZM531.568 416.604L535.61 407.457L448.407 368.923L444.365 378.069L440.323 387.216L527.527 425.75L531.568 416.604ZM427.806 402.236L420.735 409.307L488.058 476.631L495.129 469.56L502.2 462.489L434.877 395.165L427.806 402.236ZM495.129 469.56L488.058 476.631C491.143 479.716 491.167 484.835 488.004 487.998L495.075 495.069L502.146 502.14C513.042 491.245 513.173 473.462 502.2 462.489L495.129 469.56ZM495.075 495.069L488.004 487.998C484.842 491.161 479.723 491.137 476.636 488.051L469.565 495.122L462.494 502.193C473.467 513.166 491.25 513.037 502.146 502.14L495.075 495.069ZM469.565 495.122L476.636 488.051L411.213 422.627L404.142 429.698L397.071 436.77L462.494 502.193L469.565 495.122ZM374.041 449.63L364.77 453.377L399.42 539.095L408.691 535.348L417.963 531.6L383.312 445.882L374.041 449.63ZM408.691 535.348L399.42 539.095C401.055 543.14 399.078 547.862 394.931 549.538L398.679 558.81L402.427 568.081C416.712 562.306 423.778 545.988 417.963 531.6L408.691 535.348ZM398.679 558.81L394.931 549.538C390.784 551.215 386.081 549.194 384.446 545.149L375.175 548.896L365.904 552.644C371.72 567.032 388.141 573.855 402.426 568.081L398.679 558.81ZM375.175 548.896L384.446 545.149L349.325 458.266L340.054 462.014L330.783 465.762L365.904 552.644L375.175 548.896ZM308.058 468.231H298.058V562H308.058H318.058V468.231H308.058ZM308.058 562H298.058C298.058 566.363 294.455 570 289.981 570V580V590C305.39 590 318.058 577.519 318.058 562H308.058ZM289.981 580L289.982 570C285.509 570 281.906 566.364 281.906 562H271.906H261.906C261.906 577.518 274.572 590 289.981 590L289.981 580ZM271.906 562H281.906V470.852H271.906H261.906V562H271.906ZM255.902 452.169L257.916 442.374C257.744 442.338 257.572 442.302 257.4 442.266L255.353 452.055L253.306 461.843C253.5 461.884 253.694 461.924 253.888 461.964L255.902 452.169ZM233.292 462.715L224.145 458.675L187.37 541.938L196.518 545.979L205.665 550.019L242.44 466.755L233.292 462.715ZM196.518 545.979L187.37 541.938C185.607 545.93 180.842 547.801 176.75 545.993L172.71 555.141L168.67 564.288C182.765 570.514 199.395 564.215 205.665 550.019L196.518 545.979ZM172.71 555.141L176.75 545.993C172.659 544.186 170.833 539.404 172.596 535.412L163.448 531.372L154.301 527.332C148.031 541.527 154.574 558.062 168.669 564.288L172.71 555.141ZM163.448 531.372L172.596 535.412L210.828 448.849L201.681 444.809L192.533 440.768L154.301 527.332L163.448 531.372ZM177.574 428.291L170.503 421.22L103.478 488.246L110.549 495.317L117.62 502.388L184.645 435.362L177.574 428.291ZM110.549 495.317L103.478 488.246C100.392 491.332 95.2731 491.356 92.1101 488.193L85.0391 495.264L77.968 502.335C88.8639 513.231 106.647 513.362 117.62 502.388L110.549 495.317ZM85.0391 495.264L92.1102 488.193C88.9475 485.03 88.9711 479.911 92.0566 476.826L84.9854 469.755L77.9141 462.684C66.9415 473.657 67.0722 491.439 77.9679 502.335L85.0391 495.264ZM84.9854 469.755L92.0565 476.826L156.695 412.187L149.623 405.116L142.552 398.045L77.9142 462.684L84.9854 469.755ZM129.222 374.313L125.475 365.042L40.8558 399.248L44.6035 408.52L48.3513 417.791L132.97 383.584L129.222 374.313ZM44.6035 408.52L40.8559 399.248C36.8105 400.884 32.0892 398.906 30.4128 394.759L21.1416 398.507L11.8704 402.255C17.6452 416.54 33.9634 423.607 48.3512 417.791L44.6035 408.52ZM21.1416 398.507L30.4128 394.759C28.7366 390.612 30.7577 385.91 34.8033 384.274L31.0557 375.003L27.308 365.732C12.9206 371.548 6.09571 387.968 11.8704 402.254L21.1416 398.507ZM31.0557 375.003L34.8034 384.274L120.737 349.536L116.989 340.265L113.241 330.994L27.3079 365.732L31.0557 375.003ZM110.73 308.054V298.054H18V308.054V318.054H110.73V308.054ZM18 308.054V298.054C13.6366 298.054 10 294.451 10 289.978H0H-10C-10 305.386 2.48115 318.054 18 318.054V308.054ZM0 289.978L10 289.978C10.0001 285.505 13.6362 281.902 18 281.902V271.902V261.902C2.48177 261.902 -9.99968 274.568 -10 289.977L0 289.978ZM18 271.902V281.902H108.194V271.902V261.902H18V271.902ZM126.877 255.898L136.672 257.912C136.717 257.696 136.762 257.48 136.807 257.264L127.021 255.208L117.234 253.152C117.183 253.396 117.132 253.64 117.082 253.885L126.877 255.898ZM116.368 233.131L120.409 223.985L38.0252 187.581L33.9834 196.728L29.9416 205.874L112.326 242.278L116.368 233.131ZM33.9834 196.728L38.0254 187.581C34.034 185.817 32.1642 181.052 33.972 176.961L24.8252 172.919L15.6784 168.877C9.45044 182.972 15.7474 199.602 29.9414 205.874L33.9834 196.728ZM24.8252 172.919L33.972 176.961C35.7797 172.87 40.562 171.044 44.5539 172.808L48.5957 163.661L52.6375 154.514C38.4435 148.242 21.9068 154.782 15.6784 168.877L24.8252 172.919ZM48.5957 163.661L44.5539 172.808L129.971 210.552L134.013 201.405L138.055 192.258L52.6375 154.514L48.5957 163.661ZM151.024 176.581L158.095 169.51L91.9705 103.385L84.8994 110.456L77.8283 117.527L143.953 183.652L151.024 176.581ZM84.8994 110.456L91.9707 103.385C88.8852 100.3 88.8616 95.181 92.0243 92.0183L84.9531 84.9473L77.882 77.8763C66.9863 88.7721 66.8556 106.554 77.8281 117.527L84.8994 110.456ZM84.9531 84.9473L92.0242 92.0183C95.1872 88.8553 100.306 88.8791 103.392 91.9646L110.463 84.8936L117.534 77.8225C106.561 66.8491 88.7779 66.9803 77.8821 77.8762L84.9531 84.9473ZM110.463 84.8936L103.392 91.9646L167.661 156.234L174.732 149.163L181.803 142.092L117.534 77.8225L110.463 84.8936ZM205.386 128.868L214.658 125.121L180.572 40.7963L171.301 44.5439L162.03 48.2915L196.115 132.616L205.386 128.868ZM171.301 44.5439L180.572 40.7963C178.936 36.7499 180.914 32.0283 185.06 30.3522L181.312 21.0811L177.565 11.8099C163.278 17.5853 156.214 33.905 162.03 48.2916L171.301 44.5439ZM181.312 21.0811L185.06 30.3522C189.207 28.6758 193.911 30.6973 195.546 34.7428L204.817 30.9951L214.089 27.2474C208.273 12.8598 191.851 6.03502 177.565 11.8099L181.312 21.0811ZM204.817 30.9951L195.546 34.7428L230.217 120.515L239.489 116.767L248.76 113.02L214.089 27.2475L204.817 30.9951ZM271.906 110.469H281.906V18H271.906H261.906V110.469H271.906ZM271.906 18L281.906 18C281.906 13.6362 285.509 10.0001 289.982 10L289.981 0L289.981 -10C274.572 -9.99968 261.906 2.48177 261.906 18L271.906 18ZM258.05 126.446L259.935 136.267C271.839 133.983 281.906 123.746 281.906 110.469H271.906H261.906C261.906 113.02 259.808 115.926 256.166 116.625L258.05 126.446ZM239.489 116.767L230.217 120.515C235.121 132.646 247.941 138.568 259.935 136.267L258.05 126.446L256.166 116.625C252.687 117.293 249.761 115.496 248.76 113.02L239.489 116.767ZM197.945 150.981L203.466 159.319C214.22 152.197 219.923 138.146 214.658 125.121L205.386 128.868L196.115 132.616C197.394 135.781 196.23 140.123 192.424 142.643L197.945 150.981ZM174.732 149.163L167.661 156.234C177.569 166.141 192.678 166.463 203.466 159.319L197.945 150.981L192.424 142.643C188.654 145.14 184.243 144.531 181.803 142.092L174.732 149.163ZM152.446 195.77L160.696 201.422C167.25 191.855 166.929 178.344 158.095 169.51L151.024 176.581L143.953 183.652C145.354 185.053 145.824 187.744 144.197 190.119L152.446 195.77ZM134.013 201.405L129.971 210.552C141.428 215.615 154.158 210.966 160.696 201.422L152.446 195.77L144.197 190.119C142.551 192.52 139.842 193.048 138.055 192.258L134.013 201.405ZM127.021 255.208L136.807 257.264C139.539 244.256 133.639 229.831 120.409 223.985L116.368 233.131L112.326 242.278C115.866 243.843 118.271 248.217 117.234 253.152L127.021 255.208ZM108.194 271.902V281.902C122.727 281.902 133.983 270.994 136.672 257.912L126.877 255.898L117.082 253.885C116.062 258.846 112.081 261.902 108.194 261.902V271.902ZM126.594 321.741L136.406 319.813C134.086 308.005 123.904 298.054 110.73 298.054V308.054V318.054C113.228 318.054 116.08 320.099 116.782 323.669L126.594 321.741ZM116.989 340.265L120.737 349.536C132.866 344.633 138.76 331.791 136.406 319.813L126.594 321.741L116.782 323.669C117.458 327.111 115.682 330.007 113.241 330.994L116.989 340.265ZM149.623 405.116L156.695 412.187C166.671 402.21 166.95 386.985 159.708 376.158L151.396 381.718L143.084 387.278C145.633 391.088 145.028 395.569 142.552 398.045L149.623 405.116ZM201.681 444.809L210.828 448.849C215.812 437.566 211.23 425.026 201.808 418.609L196.179 426.874L190.55 435.139C192.782 436.659 193.247 439.154 192.533 440.768L201.681 444.809ZM255.353 452.055L257.4 442.266C244.397 439.547 229.985 445.451 224.145 458.675L233.292 462.715L242.44 466.755C244.003 463.217 248.373 460.811 253.306 461.843L255.353 452.055ZM271.906 470.852H281.906C281.906 456.319 270.998 445.063 257.916 442.374L255.902 452.169L253.888 461.964C258.849 462.984 261.906 466.965 261.906 470.852H271.906ZM321.661 452.468L319.737 442.655C307.97 444.961 298.058 455.107 298.058 468.231H308.058H318.058C318.058 465.78 320.067 462.971 323.584 462.281L321.661 452.468ZM340.054 462.014L349.325 458.266C344.444 446.192 331.665 440.317 319.737 442.655L321.661 452.468L323.584 462.281C326.971 461.617 329.814 463.367 330.783 465.762L340.054 462.014ZM381.316 427.921L375.781 419.592C365.171 426.643 359.572 440.52 364.77 453.377L374.041 449.63L383.312 445.882C382.088 442.854 383.19 438.682 386.85 436.25L381.316 427.921ZM404.142 429.698L411.213 422.627C401.408 412.823 386.452 412.501 375.781 419.592L381.316 427.921L386.85 436.25C390.484 433.835 394.731 434.43 397.071 436.77L404.142 429.698ZM426.427 383.524L418.188 377.857C411.707 387.28 412.029 400.601 420.735 409.307L427.806 402.236L434.877 395.165C433.599 393.887 433.146 391.401 434.667 389.19L426.427 383.524ZM444.365 378.069L448.407 368.923C437.151 363.949 424.635 368.483 418.188 377.857L426.427 383.524L434.667 389.19C436.199 386.962 438.699 386.498 440.323 387.216L444.365 378.069ZM470.667 308.054V298.054C456.195 298.054 444.964 308.876 442.218 321.892L452.003 323.956L461.788 326.019C462.828 321.086 466.795 318.054 470.667 318.054V308.054ZM462.233 239.701L458.486 230.43C446.41 235.311 440.508 248.068 442.793 260.011L452.615 258.131L462.437 256.252C461.781 252.827 463.551 249.955 465.981 248.972L462.233 239.701ZM383.904 152.878L378.214 161.101C387.81 167.742 401.423 167.458 410.317 158.565L403.246 151.493L396.175 144.422C394.746 145.851 392.002 146.321 389.594 144.655L383.904 152.878ZM324.513 127.16L322.415 136.938C335.457 139.735 349.958 133.844 355.824 120.565L346.676 116.524L337.529 112.484C335.96 116.036 331.561 118.445 326.611 117.383L324.513 127.16ZM451.903 324.426L442.124 322.334C439.335 335.369 445.226 349.859 458.497 355.724L462.538 346.577L466.58 337.43C463.03 335.861 460.623 331.466 461.682 326.518L451.903 324.426ZM430.153 175.711L423.082 168.64C413.346 178.376 412.984 193.217 419.981 203.849L428.334 198.351L436.687 192.854C434.324 189.263 434.921 185.086 437.224 182.782L430.153 175.711ZM452.615 258.131L442.793 260.011C445.063 271.874 455.264 281.902 468.491 281.902V271.902V261.902C465.986 261.902 463.123 259.841 462.437 256.252L452.615 258.131ZM151.396 381.718L159.708 376.158C152.54 365.443 138.493 359.78 125.475 365.042L129.222 374.313L132.97 383.584C136.161 382.295 140.531 383.461 143.084 387.278L151.396 381.718ZM378.301 134.4L369.154 130.359C364.098 141.806 368.709 154.524 378.214 161.101L383.904 152.878L389.594 144.655C387.181 142.985 386.649 140.251 387.449 138.44L378.301 134.4ZM428.334 198.351L419.981 203.849C426.987 214.494 440.866 220.131 453.729 214.931L449.982 205.66L446.234 196.389C443.233 197.602 439.088 196.502 436.687 192.854L428.334 198.351ZM196.179 426.874L201.808 418.609C192.402 412.203 179.162 412.561 170.503 421.22L177.574 428.291L184.645 435.362C185.907 434.099 188.359 433.647 190.55 435.139L196.179 426.874ZM308.058 108.377H298.058C298.058 122.85 308.88 134.081 321.895 136.827L323.96 127.042L326.024 117.258C321.09 116.217 318.058 112.25 318.058 108.377H308.058Z" fill="#292828" mask="url(#path-1-inside-1_72_20)"/>
</g>
<defs>
<filter id="filter0_d_72_20" x="0" y="0" width="602" height="625" filterUnits="userSpaceOnUse" color-interpolation-filters="sRGB">
<feFlood flood-opacity="0" result="BackgroundImageFix"/>
<feColorMatrix in="SourceAlpha" type="matrix" values="0 0 0 0 0 0 0 0 0 0 0 0 0 0 0 0 0 0 127 0" result="hardAlpha"/>
<feOffset dx="22" dy="45"/>
<feColorMatrix type="matrix" values="0 0 0 0 0.160784 0 0 0 0 0.156863 0 0 0 0 0.156863 0 0 0 1 0"/>
<feBlend mode="normal" in2="BackgroundImageFix" result="effect1_dropShadow_72_20"/>
<feBlend mode="normal" in="SourceGraphic" in2="effect1_dropShadow_72_20" result="shape"/>
</filter>
</defs>
</svg>
