<svg width="425" height="620" viewBox="0 0 425 620" fill="none" xmlns="http://www.w3.org/2000/svg">
<g filter="url(#filter0_d_72_33)">
<path d="M392.815 231.647C408.913 215.623 408.916 189.566 392.822 173.538L231.431 12.8123C215.434 -3.1195 189.566 -3.1195 173.569 12.8123L12.1713 173.545C-3.92004 189.57 -3.92004 215.622 12.1713 231.647L56.6393 275.932C72.728 291.954 72.731 318.001 56.646 334.027L12.1577 378.353C-3.92723 394.379 -3.9242 420.426 12.1645 436.449L173.569 597.188C189.566 613.119 215.434 613.119 231.431 597.188L392.829 436.455C408.92 420.43 408.92 394.378 392.829 378.353L348.326 334.034C332.232 318.006 332.235 291.949 348.333 275.925L392.815 231.647Z" fill="#B298DC"/>
<path d="M178.508 17.7725C191.774 4.56072 213.226 4.56073 226.492 17.7725L387.883 178.498C401.229 191.789 401.226 213.397 387.877 226.686L343.395 270.964C324.696 289.577 324.547 319.754 342.949 338.552L343.387 338.994L387.89 383.312C401.234 396.602 401.233 418.206 387.889 431.495L226.492 592.228C213.226 605.439 191.774 605.439 178.508 592.228L17.1045 431.488C3.76263 418.201 3.75987 396.602 17.0986 383.312L61.5869 338.986C80.4181 320.224 80.4146 289.73 61.5791 270.972L17.1104 226.687C3.76691 213.398 3.76684 191.794 17.1104 178.505L178.508 17.7725Z" stroke="#292828" stroke-width="14"/>
</g>
<defs>
<filter id="filter0_d_72_33" x="0.0959473" y="0.863464" width="424.801" height="618.273" filterUnits="userSpaceOnUse" color-interpolation-filters="sRGB">
<feFlood flood-opacity="0" result="BackgroundImageFix"/>
<feColorMatrix in="SourceAlpha" type="matrix" values="0 0 0 0 0 0 0 0 0 0 0 0 0 0 0 0 0 0 127 0" result="hardAlpha"/>
<feOffset dx="20" dy="10"/>
<feColorMatrix type="matrix" values="0 0 0 0 0.160784 0 0 0 0 0.156863 0 0 0 0 0.156863 0 0 0 1 0"/>
<feBlend mode="normal" in2="BackgroundImageFix" result="effect1_dropShadow_72_33"/>
<feBlend mode="normal" in="SourceGraphic" in2="effect1_dropShadow_72_33" result="shape"/>
</filter>
</defs>
</svg>
