<svg width="517" height="539" viewBox="0 0 517 539" fill="none" xmlns="http://www.w3.org/2000/svg">
<g filter="url(#filter0_d_72_19)">
<path d="M247.5 247C247.5 116.627 146.288 9.84618 18.0021 0.643391C8.08644 -0.0679205 0 8.05887 0 18V247C0 383.414 110.81 494 247.5 494C384.19 494 495 383.414 495 247V18C495 8.05887 486.914 -0.0679205 476.998 0.643391C348.712 9.84618 247.5 116.627 247.5 247Z" fill="#F9D5D1"/>
<path d="M477.499 7.625C483.037 7.22792 488 11.7888 488 18V247C488 379.535 380.338 487 247.5 487C114.662 487 7 379.535 7 247V18C7 11.7888 11.9635 7.22792 17.501 7.625C141.677 16.5329 239.731 119.528 240.495 245.517L240.5 247H254.5C254.5 120.832 352.069 17.3791 476.039 7.73438L477.499 7.625Z" stroke="#292828" stroke-width="14"/>
</g>
<defs>
<filter id="filter0_d_72_19" x="0" y="0.600098" width="517" height="538.4" filterUnits="userSpaceOnUse" color-interpolation-filters="sRGB">
<feFlood flood-opacity="0" result="BackgroundImageFix"/>
<feColorMatrix in="SourceAlpha" type="matrix" values="0 0 0 0 0 0 0 0 0 0 0 0 0 0 0 0 0 0 127 0" result="hardAlpha"/>
<feOffset dx="22" dy="45"/>
<feColorMatrix type="matrix" values="0 0 0 0 0.14902 0 0 0 0 0.0627451 0 0 0 0 0.239216 0 0 0 1 0"/>
<feBlend mode="normal" in2="BackgroundImageFix" result="effect1_dropShadow_72_19"/>
<feBlend mode="normal" in="SourceGraphic" in2="effect1_dropShadow_72_19" result="shape"/>
</filter>
</defs>
</svg>
