<svg width="625" height="629" viewBox="0 0 625 629" fill="none" xmlns="http://www.w3.org/2000/svg">
<g filter="url(#filter0_d_72_42)">
<path d="M278.563 12.9325C289.126 -4.07465 313.875 -4.07462 324.437 12.9325L371.408 88.5662C377.557 98.4662 389.363 103.304 400.691 100.565L489.269 79.1471C509.097 74.3527 526.876 92.4337 521.748 112.178L500.308 194.726C497.257 206.473 502.42 218.812 512.927 224.887L588.574 268.626C606.554 279.022 606.554 304.978 588.574 315.374L512.927 359.113C502.42 365.188 497.257 377.527 500.308 389.274L521.748 471.822C526.876 491.566 509.097 509.647 489.269 504.853L400.691 483.435C389.363 480.696 377.557 485.534 371.408 495.434L324.437 571.067C313.874 588.075 289.125 588.075 278.563 571.067L231.592 495.434C225.443 485.534 213.637 480.696 202.309 483.435L113.731 504.853C93.9031 509.647 76.1245 491.566 81.2524 471.822L102.692 389.274C105.743 377.527 100.58 365.188 90.0734 359.113L14.4262 315.374C-3.55407 304.978 -3.55407 279.022 14.4262 268.626L90.0734 224.887C100.58 218.812 105.743 206.473 102.692 194.726L81.2524 112.178C76.1245 92.4337 93.9031 74.3527 113.731 79.1471L202.309 100.565C213.637 103.304 225.443 98.4662 231.592 88.5661L278.563 12.9325Z" fill="#E5B0A9"/>
<path d="M284.51 16.626C292.334 4.0281 310.666 4.02807 318.49 16.626L365.462 92.2588C373.204 104.726 388.072 110.818 402.336 107.369L490.914 85.9512C505.601 82.3998 518.771 95.7927 514.973 110.418L493.533 192.966C489.691 207.758 496.192 223.297 509.423 230.947L585.07 274.686C598.181 282.266 598.386 301.016 585.685 308.945L585.07 309.314L509.423 353.053C496.192 360.703 489.691 376.242 493.533 391.034L514.973 473.582C518.771 488.207 505.601 501.6 490.914 498.049L402.336 476.631C388.072 473.182 373.204 479.274 365.462 491.741L318.49 567.374C310.666 579.972 292.334 579.972 284.51 567.374L237.538 491.741C229.917 479.469 215.391 473.374 201.333 476.477L200.664 476.631L112.086 498.049C97.3987 501.6 84.2293 488.207 88.0273 473.582L109.467 391.034C113.309 376.242 106.808 360.703 93.5771 353.053L17.9297 309.314C4.61117 301.614 4.61117 282.386 17.9297 274.686L93.5771 230.947C106.808 223.297 113.309 207.758 109.467 192.966L88.0273 110.418C84.2293 95.7927 97.3987 82.3998 112.086 85.9512L200.664 107.369C214.928 110.818 229.796 104.726 237.538 92.2588L284.51 16.626Z" stroke="#292828" stroke-width="14"/>
</g>
<defs>
<filter id="filter0_d_72_42" x="0.94104" y="0.177155" width="623.118" height="628.646" filterUnits="userSpaceOnUse" color-interpolation-filters="sRGB">
<feFlood flood-opacity="0" result="BackgroundImageFix"/>
<feColorMatrix in="SourceAlpha" type="matrix" values="0 0 0 0 0 0 0 0 0 0 0 0 0 0 0 0 0 0 127 0" result="hardAlpha"/>
<feOffset dx="22" dy="45"/>
<feColorMatrix type="matrix" values="0 0 0 0 0.160784 0 0 0 0 0.156863 0 0 0 0 0.156863 0 0 0 1 0"/>
<feBlend mode="normal" in2="BackgroundImageFix" result="effect1_dropShadow_72_42"/>
<feBlend mode="normal" in="SourceGraphic" in2="effect1_dropShadow_72_42" result="shape"/>
</filter>
</defs>
</svg>
