<svg width="172" height="187" viewBox="0 0 172 187" fill="none" xmlns="http://www.w3.org/2000/svg">
<path d="M8.70272 124.703C5.92943 121.41 4.52078 117.19 4.75174 112.913L4.77933 112.498L13.1823 19.2861C13.2242 18.8211 13.3031 18.3375 13.4078 17.7126L13.6014 16.9697L13.6462 16.799L13.6752 16.6263C13.7025 16.4644 13.7409 16.3041 13.7912 16.1473L13.8396 15.9978L13.8759 15.8444C13.8926 15.7735 13.9065 15.7031 13.9198 15.6377L14.0364 15.3412L14.3788 14.4732L14.404 14.4103L14.4264 14.3472C14.4856 14.1813 14.5565 14.0197 14.6379 13.8638L14.6859 13.7719L14.7292 13.6774L15.0229 13.0379L15.4456 12.3534L15.5472 12.1901L15.6331 12.017C15.6935 11.8945 15.7621 11.7762 15.8396 11.6635L15.8771 11.6094L15.912 11.5551C16.0238 11.3806 16.1446 11.2122 16.2737 11.0508L16.374 10.9255L16.4631 10.7929C16.5666 10.6399 16.6786 10.4923 16.7983 10.3514L17.2273 9.8471L17.2661 9.74873L17.8344 9.27592L17.9503 9.16173C18.7803 8.34853 19.6752 7.60393 20.6258 6.93569L20.7592 6.84252L21.2306 6.45028C21.4228 6.33361 21.6178 6.22152 21.8184 6.12002L21.9012 6.07908L21.9818 6.03238C22.1276 5.94994 22.2785 5.87628 22.4327 5.81092L22.6131 5.73454L22.7853 5.64077C22.9362 5.55856 23.0914 5.48451 23.2485 5.4142C23.2548 5.41268 23.2609 5.41048 23.267 5.40896C23.4109 5.37355 23.708 5.29778 24.047 5.1615C24.1839 5.10643 24.3366 5.03513 24.5013 4.94867L24.8999 4.79869C25.1442 4.7407 25.4041 4.67624 25.7323 4.58379C26.1006 4.48005 26.2865 4.43207 26.4579 4.39931L27.2487 4.25964L28.2766 4.11328C28.2651 4.11483 28.2917 4.11041 28.4188 4.10552C28.4867 4.10291 28.5499 4.10133 28.6553 4.09808C28.7501 4.09514 28.8709 4.0911 29.0011 4.08472L29.8459 4.045C30.3644 4.03918 30.8831 4.0596 31.3994 4.11049L31.4097 4.11213L31.42 4.11238L124.651 12.807L124.726 12.8138L124.799 12.8185C127.058 12.9447 129.27 13.5248 131.304 14.5258C133.337 15.5269 135.15 16.9273 136.633 18.644C138.116 20.3607 139.239 22.3585 139.934 24.5163C140.585 26.539 140.848 28.6635 140.711 30.7778L140.678 31.1999C140.475 33.4533 139.82 35.6411 138.752 37.631C137.685 39.6207 136.227 41.3735 134.466 42.784C132.705 44.1945 130.676 45.2341 128.501 45.8414C126.326 46.4487 124.048 46.611 121.804 46.3174L121.73 46.3078L121.656 46.301L78.4772 42.2741L68.8411 41.3759L163.577 155.242C166.44 158.682 167.821 163.114 167.42 167.559C167.02 172.004 164.871 176.099 161.45 178.945L161.127 179.207C157.753 181.875 153.473 183.147 149.168 182.746C144.862 182.344 140.874 180.301 138.026 177.045L137.755 176.726L43.0126 62.8537L42.1494 72.5013L38.2864 115.631C37.8429 120.039 35.6813 124.085 32.2719 126.895C28.8612 129.705 24.474 131.053 20.0613 130.645C15.6482 130.236 11.5655 128.103 8.70272 124.703Z" fill="#B298DC" stroke="#292828" stroke-width="8"/>
</svg>
