<svg width="214" height="315" viewBox="0 0 214 315" fill="none" xmlns="http://www.w3.org/2000/svg">
<g clip-path="url(#clip0_40_285)">
<path d="M82.0021 18.951C106.918 57.9909 107.39 112.653 79.7931 150.494L73.005 159.802L70.8419 148.486C65.9907 123.106 48.0216 100.674 24.7062 89.6746C32.9639 111.449 28.6023 136.839 22.0226 158.33L21.256 160.788C17.0268 174.089 12.2772 186.741 8.9425 199.786C5.74942 212.277 4.04019 224.518 5.56946 236.693L5.72766 237.871C8.79328 259.311 22.0655 277.062 40.5255 289.613C59.0061 302.178 82.3774 309.29 104.803 309.48L104.795 311.297L104.821 309.48C125.689 309.784 146.112 302.933 161.873 289.552L162.62 288.91H162.621C182.72 271.416 197.65 247.973 204.367 222.263L204.681 221.036L204.682 221.035L205.128 219.194C212.504 187.739 207.582 153.616 192.192 125.236C191.398 148.367 178.351 171.229 157.581 182L148.863 186.52L150.335 176.811C159.386 117.125 130.858 53.8681 82.0021 18.951Z" fill="#E5B0A9" stroke="#292828" stroke-width="10"/>
<path d="M117.601 131.568C121.852 159.713 109.786 189.505 84.9104 204.889L75.842 210.496L77.3293 199.938C79.4048 185.198 73.7407 169.118 62.6614 157.325C61.8622 171.654 53.7769 184.958 45.4885 195.474L44.4407 196.788C38.6513 203.963 32.8753 210.356 27.8694 217.412C23.1131 224.116 19.4824 230.874 17.9182 238.24L17.7727 238.955C15.2658 251.943 19.8626 265.351 29.1731 277.157C38.4782 288.956 52.1776 298.703 66.7756 304.089L66.7737 304.099C80.5097 309.247 95.4502 309.843 108.578 305.373H108.579C125.42 299.635 140.07 289.17 149.857 275.548L150.319 274.896C161.376 259.128 165.914 239.273 163.345 219.881C156.577 232.191 143.591 241.267 128.78 242.731L119.259 243.672L123.921 235.318C141.299 204.177 138.137 163.236 117.601 131.568Z" fill="#B298DC" stroke="#292828" stroke-width="10"/>
</g>
<defs>
<clipPath id="clip0_40_285">
<rect width="213.5" height="314.48" fill="white" transform="matrix(-1 0 0 1 213.5 0)"/>
</clipPath>
</defs>
</svg>
