<svg width="100%" height="100%" viewBox="0 0 426 923" fill="none" xmlns="http://www.w3.org/2000/svg">
<g clip-path="url(#clip0_86_1281)">
<rect width="426" height="223" transform="translate(0 700)" fill="black" fill-opacity="0.5"/>
<rect width="426" height="132" fill="black" fill-opacity="0.5"/>
<circle cx="26" cy="93" r="13.5" stroke="white" stroke-opacity="0.5"/>
<path d="M21.1681 93.1834L27.8662 84.9968C28.2144 84.5713 28.8945 84.9378 28.7304 85.4626L27 91H31.4325C31.8564 91 32.088 91.4944 31.8166 91.8201L24.4595 100.649C24.0968 101.084 23.404 100.675 23.6094 100.147L26 94H21.5551C21.1333 94 20.901 93.5098 21.1681 93.1834Z" fill="white"/>
<circle cx="213" cy="92" r="15" fill="white" fill-opacity="0.2"/>
<path d="M220 96L213 89L206 96" stroke="white" stroke-width="2"/>
<mask id="mask0_86_1281" style="mask-type:alpha" maskUnits="userSpaceOnUse" x="385" y="78" width="29" height="29">
<circle cx="399.5" cy="92.5" r="4.5" fill="white"/>
<circle cx="399.5" cy="92.5" r="8.5" stroke="white"/>
<circle cx="399.5" cy="92.5" r="13.5" stroke="white" stroke-linecap="round" stroke-dasharray="0.1 2"/>
</mask>
<g mask="url(#mask0_86_1281)">
<path d="M408.525 104.354C405.909 106.371 402.631 107.572 399.072 107.572C390.512 107.572 383.572 100.632 383.572 92.0718C383.572 88.5127 384.772 85.2342 386.789 82.6177L408.525 104.354ZM399.072 76.5718C407.633 76.5718 414.572 83.5114 414.572 92.0718C414.572 95.6313 413.371 98.9092 411.354 101.526L389.617 79.7896C392.234 77.7722 395.513 76.5718 399.072 76.5718Z" fill="white"/>
</g>
<path d="M389 82L410 103" stroke="white" stroke-linecap="round"/>
<path d="M12.7973 733H10.7573C9.97526 733 9.35759 732.779 8.90426 732.337C8.46226 731.895 8.24126 731.277 8.24126 730.484V724.585C8.24126 723.792 8.46226 723.174 8.90426 722.732C9.35759 722.29 9.97526 722.069 10.7573 722.069H12.7973C13.5793 722.069 14.1913 722.29 14.6333 722.732C15.0866 723.174 15.3133 723.792 15.3133 724.585V725.418C15.3133 725.577 15.2339 725.656 15.0753 725.656H14.3103C14.1516 725.656 14.0723 725.577 14.0723 725.418V724.636C14.0723 723.65 13.5963 723.157 12.6443 723.157H10.8933C9.95259 723.157 9.48226 723.65 9.48226 724.636V730.433C9.48226 731.419 9.95259 731.912 10.8933 731.912H12.6443C13.5963 731.912 14.0723 731.419 14.0723 730.433V729.651C14.0723 729.492 14.1516 729.413 14.3103 729.413H15.0753C15.2339 729.413 15.3133 729.492 15.3133 729.651V730.484C15.3133 731.277 15.0866 731.895 14.6333 732.337C14.1913 732.779 13.5793 733 12.7973 733ZM19.7845 722.307V732.762C19.7845 732.921 19.7052 733 19.5465 733H18.7815C18.6229 733 18.5435 732.921 18.5435 732.762V722.307C18.5435 722.148 18.6229 722.069 18.7815 722.069H19.5465C19.7052 722.069 19.7845 722.148 19.7845 722.307ZM24.3951 733H23.6471C23.4884 733 23.4091 732.921 23.4091 732.762V722.307C23.4091 722.148 23.4884 722.069 23.6471 722.069H24.3441C24.4801 722.069 24.5708 722.114 24.6161 722.205L29.3081 730.45H29.3761V722.307C29.3761 722.148 29.4554 722.069 29.6141 722.069H30.3621C30.5208 722.069 30.6001 722.148 30.6001 722.307V732.762C30.6001 732.921 30.5208 733 30.3621 733H29.7331C29.6084 733 29.4894 732.926 29.3761 732.779L24.7011 724.619H24.6331V732.762C24.6331 732.921 24.5538 733 24.3951 733ZM39.713 733H34.375C34.2164 733 34.137 732.921 34.137 732.762V722.307C34.137 722.148 34.2164 722.069 34.375 722.069H39.713C39.8717 722.069 39.951 722.148 39.951 722.307V722.919C39.951 723.078 39.8717 723.157 39.713 723.157H35.548C35.4347 723.157 35.378 723.208 35.378 723.31V726.744C35.378 726.846 35.4347 726.897 35.548 726.897H39.186C39.3447 726.897 39.424 726.976 39.424 727.135V727.747C39.424 727.906 39.3447 727.985 39.186 727.985H35.548C35.4347 727.985 35.378 728.036 35.378 728.138V731.759C35.378 731.861 35.4347 731.912 35.548 731.912H39.713C39.8717 731.912 39.951 731.991 39.951 732.15V732.762C39.951 732.921 39.8717 733 39.713 733ZM50.839 722.069H52.216C52.3747 722.069 52.454 722.148 52.454 722.307V732.762C52.454 732.921 52.3747 733 52.216 733H51.468C51.3093 733 51.23 732.921 51.23 732.762V723.735H51.162L48.527 730.399C48.459 730.546 48.357 730.62 48.221 730.62H47.405C47.2577 730.62 47.1613 730.546 47.116 730.399L44.43 723.718H44.362V732.762C44.362 732.921 44.2883 733 44.141 733H43.393C43.2343 733 43.155 732.921 43.155 732.762V722.307C43.155 722.148 43.2343 722.069 43.393 722.069H44.77C44.872 722.069 44.94 722.114 44.974 722.205L47.762 729.243H47.847L50.635 722.205C50.6577 722.114 50.7257 722.069 50.839 722.069ZM56.1273 733H55.2773C55.13 733 55.079 732.921 55.1243 732.762L58.3033 722.307C58.3487 722.148 58.4563 722.069 58.6263 722.069H59.8503C60.0203 722.069 60.128 722.148 60.1733 722.307L63.3523 732.762C63.3977 732.921 63.3467 733 63.1993 733H62.3323C62.2077 733 62.1283 732.921 62.0943 732.762L61.2953 730.28H57.1813L56.3823 732.762C56.337 732.921 56.252 733 56.1273 733ZM59.2043 723.344L57.4533 729.226H61.0233L59.2723 723.344H59.2043ZM68.691 733H67.926C67.7673 733 67.688 732.921 67.688 732.762V723.31C67.688 723.208 67.6313 723.157 67.518 723.157H65.206C65.036 723.157 64.951 723.078 64.951 722.919V722.307C64.951 722.148 65.036 722.069 65.206 722.069H71.411C71.581 722.069 71.666 722.148 71.666 722.307V722.919C71.666 723.078 71.581 723.157 71.411 723.157H69.099C68.9857 723.157 68.929 723.208 68.929 723.31V732.762C68.929 732.921 68.8497 733 68.691 733ZM75.4529 722.307V732.762C75.4529 732.921 75.3735 733 75.2149 733H74.4499C74.2912 733 74.2119 732.921 74.2119 732.762V722.307C74.2119 722.148 74.2912 722.069 74.4499 722.069H75.2149C75.3735 722.069 75.4529 722.148 75.4529 722.307ZM83.4635 733H81.4235C80.6415 733 80.0238 732.779 79.5705 732.337C79.1285 731.895 78.9075 731.277 78.9075 730.484V724.585C78.9075 723.792 79.1285 723.174 79.5705 722.732C80.0238 722.29 80.6415 722.069 81.4235 722.069H83.4635C84.2455 722.069 84.8575 722.29 85.2995 722.732C85.7528 723.174 85.9795 723.792 85.9795 724.585V725.418C85.9795 725.577 85.9001 725.656 85.7415 725.656H84.9765C84.8178 725.656 84.7385 725.577 84.7385 725.418V724.636C84.7385 723.65 84.2625 723.157 83.3105 723.157H81.5595C80.6188 723.157 80.1485 723.65 80.1485 724.636V730.433C80.1485 731.419 80.6188 731.912 81.5595 731.912H83.3105C84.2625 731.912 84.7385 731.419 84.7385 730.433V729.651C84.7385 729.492 84.8178 729.413 84.9765 729.413H85.7415C85.9001 729.413 85.9795 729.492 85.9795 729.651V730.484C85.9795 731.277 85.7528 731.895 85.2995 732.337C84.8575 732.779 84.2455 733 83.4635 733Z" fill="url(#paint0_linear_86_1281)"/>
<path d="M120.358 733H119.151C119.003 733 118.907 732.921 118.862 732.762L115.853 722.324C115.819 722.154 115.892 722.069 116.074 722.069H116.907C117.054 722.069 117.145 722.148 117.179 722.307L119.712 731.606H119.78L122.313 722.307C122.347 722.148 122.437 722.069 122.585 722.069H123.435C123.605 722.069 123.673 722.154 123.639 722.324L120.63 732.762C120.584 732.921 120.494 733 120.358 733ZM127.563 722.307V732.762C127.563 732.921 127.484 733 127.325 733H126.56C126.401 733 126.322 732.921 126.322 732.762V722.307C126.322 722.148 126.401 722.069 126.56 722.069H127.325C127.484 722.069 127.563 722.148 127.563 722.307ZM132.599 731.912H135.455C136.407 731.912 136.883 731.419 136.883 730.433V724.636C136.883 723.65 136.407 723.157 135.455 723.157H132.599C132.485 723.157 132.429 723.208 132.429 723.31V731.759C132.429 731.861 132.485 731.912 132.599 731.912ZM131.188 732.762V722.307C131.188 722.148 131.267 722.069 131.426 722.069H135.608C136.39 722.069 137.002 722.296 137.444 722.749C137.897 723.191 138.124 723.803 138.124 724.585V730.484C138.124 731.266 137.897 731.884 137.444 732.337C137.002 732.779 136.39 733 135.608 733H131.426C131.267 733 131.188 732.921 131.188 732.762ZM147.06 733H141.722C141.563 733 141.484 732.921 141.484 732.762V722.307C141.484 722.148 141.563 722.069 141.722 722.069H147.06C147.219 722.069 147.298 722.148 147.298 722.307V722.919C147.298 723.078 147.219 723.157 147.06 723.157H142.895C142.782 723.157 142.725 723.208 142.725 723.31V726.744C142.725 726.846 142.782 726.897 142.895 726.897H146.533C146.692 726.897 146.771 726.976 146.771 727.135V727.747C146.771 727.906 146.692 727.985 146.533 727.985H142.895C142.782 727.985 142.725 728.036 142.725 728.138V731.759C142.725 731.861 142.782 731.912 142.895 731.912H147.06C147.219 731.912 147.298 731.991 147.298 732.15V732.762C147.298 732.921 147.219 733 147.06 733ZM152.984 731.912H154.718C155.67 731.912 156.146 731.419 156.146 730.433V724.636C156.146 723.65 155.67 723.157 154.718 723.157H152.984C152.043 723.157 151.573 723.65 151.573 724.636V730.433C151.573 731.419 152.043 731.912 152.984 731.912ZM154.871 733H152.848C152.066 733 151.448 732.779 150.995 732.337C150.553 731.895 150.332 731.277 150.332 730.484V724.585C150.332 723.792 150.553 723.174 150.995 722.732C151.448 722.29 152.066 722.069 152.848 722.069H154.871C155.653 722.069 156.265 722.296 156.707 722.749C157.16 723.191 157.387 723.803 157.387 724.585V730.484C157.387 731.266 157.16 731.884 156.707 732.337C156.265 732.779 155.653 733 154.871 733Z" fill="white"/>
<path d="M190.964 733H189.893C189.7 733 189.604 732.904 189.604 732.711V722.358C189.604 722.165 189.7 722.069 189.893 722.069H193.939C194.766 722.069 195.412 722.301 195.877 722.766C196.342 723.219 196.574 723.865 196.574 724.704V726.472C196.574 727.299 196.342 727.945 195.877 728.41C195.412 728.875 194.766 729.107 193.939 729.107H191.457C191.321 729.107 191.253 729.164 191.253 729.277V732.711C191.253 732.904 191.157 733 190.964 733ZM191.44 727.645H193.701C194.506 727.645 194.908 727.226 194.908 726.387V724.772C194.908 723.933 194.506 723.514 193.701 723.514H191.44C191.315 723.514 191.253 723.571 191.253 723.684V727.475C191.253 727.588 191.315 727.645 191.44 727.645ZM200.795 733H199.724C199.532 733 199.435 732.904 199.435 732.711V722.358C199.435 722.165 199.532 722.069 199.724 722.069H200.795C200.988 722.069 201.084 722.165 201.084 722.358V726.608C201.084 726.721 201.152 726.778 201.288 726.778H204.875C204.989 726.778 205.045 726.721 205.045 726.608V722.358C205.045 722.165 205.142 722.069 205.334 722.069H206.422C206.615 722.069 206.711 722.165 206.711 722.358V732.711C206.711 732.904 206.615 733 206.422 733H205.334C205.142 733 205.045 732.904 205.045 732.711V728.41C205.045 728.297 204.989 728.24 204.875 728.24H201.288C201.152 728.24 201.084 728.297 201.084 728.41V732.711C201.084 732.904 200.988 733 200.795 733ZM212.75 731.555H214.229C215.056 731.555 215.47 731.136 215.47 730.297V724.772C215.47 723.933 215.056 723.514 214.229 723.514H212.75C211.934 723.514 211.526 723.933 211.526 724.772V730.297C211.526 731.136 211.934 731.555 212.75 731.555ZM214.484 733H212.512C211.673 733 211.022 732.768 210.557 732.303C210.104 731.838 209.877 731.192 209.877 730.365V724.704C209.877 723.865 210.104 723.219 210.557 722.766C211.022 722.301 211.673 722.069 212.512 722.069H214.484C215.323 722.069 215.974 722.301 216.439 722.766C216.904 723.219 217.136 723.865 217.136 724.704V730.365C217.136 731.192 216.904 731.838 216.439 732.303C215.974 732.768 215.323 733 214.484 733ZM223.269 733H222.198C221.994 733 221.892 732.904 221.892 732.711V723.684C221.892 723.571 221.835 723.514 221.722 723.514H219.58C219.376 723.514 219.274 723.418 219.274 723.225V722.358C219.274 722.165 219.376 722.069 219.58 722.069H225.887C226.091 722.069 226.193 722.165 226.193 722.358V723.225C226.193 723.418 226.091 723.514 225.887 723.514H223.745C223.62 723.514 223.558 723.571 223.558 723.684V732.711C223.558 732.904 223.462 733 223.269 733ZM231.201 731.555H232.68C233.507 731.555 233.921 731.136 233.921 730.297V724.772C233.921 723.933 233.507 723.514 232.68 723.514H231.201C230.385 723.514 229.977 723.933 229.977 724.772V730.297C229.977 731.136 230.385 731.555 231.201 731.555ZM232.935 733H230.963C230.124 733 229.473 732.768 229.008 732.303C228.555 731.838 228.328 731.192 228.328 730.365V724.704C228.328 723.865 228.555 723.219 229.008 722.766C229.473 722.301 230.124 722.069 230.963 722.069H232.935C233.774 722.069 234.425 722.301 234.89 722.766C235.355 723.219 235.587 723.865 235.587 724.704V730.365C235.587 731.192 235.355 731.838 234.89 732.303C234.425 732.768 233.774 733 232.935 733Z" fill="#F8CB58"/>
<circle cx="234" cy="665" r="21" fill="black" fill-opacity="0.5"/>
<path d="M227.831 662.224V661.28C227.831 661.109 227.905 660.981 228.055 660.896L229.719 659.888C229.921 659.771 230.092 659.712 230.231 659.712H231.191C231.372 659.712 231.463 659.803 231.463 659.984V669.728C231.463 669.909 231.377 670 231.207 670H230.167C229.985 670 229.895 669.909 229.895 669.728V661.376L228.151 662.384C227.937 662.48 227.831 662.427 227.831 662.224Z" fill="#F8CB58"/>
<path d="M235.348 662L240.652 667.303" stroke="#F8CB58" stroke-width="2"/>
<path d="M240.651 662L235.348 667.303" stroke="#F8CB58" stroke-width="2"/>
<circle cx="191" cy="665" r="13" fill="black" fill-opacity="0.5"/>
<path d="M185.367 667.895H186.29C186.914 667.895 187.226 667.574 187.226 666.933V662.708C187.226 662.067 186.914 661.746 186.29 661.746H185.367C184.743 661.746 184.431 662.067 184.431 662.708V666.933C184.431 667.574 184.743 667.895 185.367 667.895ZM186.472 669H185.172C184.531 669 184.032 668.822 183.677 668.467C183.322 668.112 183.144 667.618 183.144 666.985V662.656C183.144 662.015 183.322 661.521 183.677 661.174C184.032 660.819 184.531 660.641 185.172 660.641H186.472C187.105 660.641 187.599 660.819 187.954 661.174C188.309 661.521 188.487 662.015 188.487 662.656V666.985C188.487 667.618 188.309 668.112 187.954 668.467C187.599 668.822 187.105 669 186.472 669ZM191.858 667.193V668.779C191.858 668.926 191.789 669 191.65 669H190.766C190.619 669 190.545 668.926 190.545 668.779V667.193C190.545 667.054 190.619 666.985 190.766 666.985H191.65C191.789 666.985 191.858 667.054 191.858 667.193ZM196.736 664.58H195.93C195.765 664.58 195.627 664.61 195.514 664.671C195.41 664.732 195.341 664.797 195.306 664.866C195.211 665.065 195.094 665.165 194.955 665.165H194.136C193.989 665.165 193.915 665.091 193.915 664.944V660.862C193.915 660.715 193.989 660.641 194.136 660.641H198.543C198.699 660.641 198.777 660.715 198.777 660.862V661.603C198.777 661.75 198.699 661.824 198.543 661.824H195.189V664.19C195.336 663.765 195.7 663.553 196.281 663.553H197.048C197.672 663.553 198.149 663.718 198.478 664.047C198.807 664.368 198.972 664.844 198.972 665.477V666.985C198.972 667.618 198.794 668.112 198.439 668.467C198.084 668.822 197.59 669 196.957 669H195.852C195.211 669 194.712 668.822 194.357 668.467C194.01 668.112 193.837 667.618 193.837 666.985V666.647C193.837 666.491 193.911 666.413 194.058 666.413H194.877C195.024 666.413 195.098 666.491 195.098 666.647V666.972C195.098 667.605 195.41 667.921 196.034 667.921H196.775C197.416 667.921 197.737 667.605 197.737 666.972V665.659C197.737 665.269 197.659 664.992 197.503 664.827C197.356 664.662 197.1 664.58 196.736 664.58Z" fill="white"/>
<path d="M269.672 733H268.907C268.749 733 268.669 732.921 268.669 732.762V722.307C268.669 722.148 268.749 722.069 268.907 722.069H272.885C273.667 722.069 274.279 722.296 274.721 722.749C275.163 723.191 275.384 723.803 275.384 724.585V726.472C275.384 727.265 275.163 727.883 274.721 728.325C274.279 728.767 273.667 728.988 272.885 728.988H270.08C269.967 728.988 269.91 729.039 269.91 729.141V732.762C269.91 732.921 269.831 733 269.672 733ZM270.08 727.883H272.715C273.667 727.883 274.143 727.396 274.143 726.421V724.636C274.143 723.65 273.667 723.157 272.715 723.157H270.08C269.967 723.157 269.91 723.208 269.91 723.31V727.73C269.91 727.832 269.967 727.883 270.08 727.883ZM280.95 731.912H282.684C283.636 731.912 284.112 731.419 284.112 730.433V724.636C284.112 723.65 283.636 723.157 282.684 723.157H280.95C280.009 723.157 279.539 723.65 279.539 724.636V730.433C279.539 731.419 280.009 731.912 280.95 731.912ZM282.837 733H280.814C280.032 733 279.414 732.779 278.961 732.337C278.519 731.895 278.298 731.277 278.298 730.484V724.585C278.298 723.792 278.519 723.174 278.961 722.732C279.414 722.29 280.032 722.069 280.814 722.069H282.837C283.619 722.069 284.231 722.296 284.673 722.749C285.126 723.191 285.353 723.803 285.353 724.585V730.484C285.353 731.266 285.126 731.884 284.673 732.337C284.231 732.779 283.619 733 282.837 733ZM289.717 733H288.952C288.793 733 288.714 732.921 288.714 732.762V722.307C288.714 722.148 288.793 722.069 288.952 722.069H292.862C293.644 722.069 294.262 722.296 294.715 722.749C295.168 723.191 295.395 723.803 295.395 724.585V726.132C295.395 726.767 295.242 727.294 294.936 727.713C294.63 728.121 294.205 728.393 293.661 728.529V728.597L295.633 732.728C295.735 732.909 295.678 733 295.463 733H294.698C294.505 733 294.364 732.921 294.273 732.762L292.369 728.648H290.125C290.012 728.648 289.955 728.699 289.955 728.801V732.762C289.955 732.921 289.876 733 289.717 733ZM290.125 727.611H292.692C293.667 727.611 294.154 727.124 294.154 726.149V724.636C294.154 723.65 293.667 723.157 292.692 723.157H290.125C290.012 723.157 289.955 723.208 289.955 723.31V727.458C289.955 727.56 290.012 727.611 290.125 727.611ZM301.364 733H300.599C300.44 733 300.361 732.921 300.361 732.762V723.31C300.361 723.208 300.304 723.157 300.191 723.157H297.879C297.709 723.157 297.624 723.078 297.624 722.919V722.307C297.624 722.148 297.709 722.069 297.879 722.069H304.084C304.254 722.069 304.339 722.148 304.339 722.307V722.919C304.339 723.078 304.254 723.157 304.084 723.157H301.772C301.659 723.157 301.602 723.208 301.602 723.31V732.762C301.602 732.921 301.523 733 301.364 733ZM307.803 733H307.038C306.879 733 306.8 732.921 306.8 732.762V722.307C306.8 722.148 306.879 722.069 307.038 722.069H310.948C311.73 722.069 312.347 722.296 312.801 722.749C313.254 723.191 313.481 723.803 313.481 724.585V726.132C313.481 726.767 313.328 727.294 313.022 727.713C312.716 728.121 312.291 728.393 311.747 728.529V728.597L313.719 732.728C313.821 732.909 313.764 733 313.549 733H312.784C312.591 733 312.449 732.921 312.359 732.762L310.455 728.648H308.211C308.097 728.648 308.041 728.699 308.041 728.801V732.762C308.041 732.921 307.961 733 307.803 733ZM308.211 727.611H310.778C311.752 727.611 312.24 727.124 312.24 726.149V724.636C312.24 723.65 311.752 723.157 310.778 723.157H308.211C308.097 723.157 308.041 723.208 308.041 723.31V727.458C308.041 727.56 308.097 727.611 308.211 727.611ZM316.917 733H316.067C315.919 733 315.868 732.921 315.914 732.762L319.093 722.307C319.138 722.148 319.246 722.069 319.416 722.069H320.64C320.81 722.069 320.917 722.148 320.963 722.307L324.142 732.762C324.187 732.921 324.136 733 323.989 733H323.122C322.997 733 322.918 732.921 322.884 732.762L322.085 730.28H317.971L317.172 732.762C317.126 732.921 317.041 733 316.917 733ZM319.994 723.344L318.243 729.226H321.813L320.062 723.344H319.994ZM328.137 722.307V732.762C328.137 732.921 328.058 733 327.899 733H327.134C326.976 733 326.896 732.921 326.896 732.762V722.307C326.896 722.148 326.976 722.069 327.134 722.069H327.899C328.058 722.069 328.137 722.148 328.137 722.307ZM334.431 733H333.666C333.507 733 333.428 732.921 333.428 732.762V723.31C333.428 723.208 333.371 723.157 333.258 723.157H330.946C330.776 723.157 330.691 723.078 330.691 722.919V722.307C330.691 722.148 330.776 722.069 330.946 722.069H337.151C337.321 722.069 337.406 722.148 337.406 722.307V722.919C337.406 723.078 337.321 723.157 337.151 723.157H334.839C334.726 723.157 334.669 723.208 334.669 723.31V732.762C334.669 732.921 334.59 733 334.431 733Z" fill="white"/>
<path d="M367.369 733H366.604C366.446 733 366.366 732.921 366.366 732.762V722.307C366.366 722.148 366.446 722.069 366.604 722.069H370.582C371.364 722.069 371.976 722.296 372.418 722.749C372.86 723.191 373.081 723.803 373.081 724.585V726.472C373.081 727.265 372.86 727.883 372.418 728.325C371.976 728.767 371.364 728.988 370.582 728.988H367.777C367.664 728.988 367.607 729.039 367.607 729.141V732.762C367.607 732.921 367.528 733 367.369 733ZM367.777 727.883H370.412C371.364 727.883 371.84 727.396 371.84 726.421V724.636C371.84 723.65 371.364 723.157 370.412 723.157H367.777C367.664 723.157 367.607 723.208 367.607 723.31V727.73C367.607 727.832 367.664 727.883 367.777 727.883ZM376.301 733H375.451C375.303 733 375.252 732.921 375.298 732.762L378.477 722.307C378.522 722.148 378.63 722.069 378.8 722.069H380.024C380.194 722.069 380.301 722.148 380.347 722.307L383.526 732.762C383.571 732.921 383.52 733 383.373 733H382.506C382.381 733 382.302 732.921 382.268 732.762L381.469 730.28H377.355L376.556 732.762C376.51 732.921 376.425 733 376.301 733ZM379.378 723.344L377.627 729.226H381.197L379.446 723.344H379.378ZM387.181 733H386.433C386.275 733 386.195 732.921 386.195 732.762V722.307C386.195 722.148 386.275 722.069 386.433 722.069H387.13C387.266 722.069 387.357 722.114 387.402 722.205L392.094 730.45H392.162V722.307C392.162 722.148 392.242 722.069 392.4 722.069H393.148C393.307 722.069 393.386 722.148 393.386 722.307V732.762C393.386 732.921 393.307 733 393.148 733H392.519C392.395 733 392.276 732.926 392.162 732.779L387.487 724.619H387.419V732.762C387.419 732.921 387.34 733 387.181 733ZM399.405 731.912H401.139C402.091 731.912 402.567 731.419 402.567 730.433V724.636C402.567 723.65 402.091 723.157 401.139 723.157H399.405C398.465 723.157 397.994 723.65 397.994 724.636V730.433C397.994 731.419 398.465 731.912 399.405 731.912ZM401.292 733H399.269C398.487 733 397.87 732.779 397.416 732.337C396.974 731.895 396.753 731.277 396.753 730.484V724.585C396.753 723.792 396.974 723.174 397.416 722.732C397.87 722.29 398.487 722.069 399.269 722.069H401.292C402.074 722.069 402.686 722.296 403.128 722.749C403.582 723.191 403.808 723.803 403.808 724.585V730.484C403.808 731.266 403.582 731.884 403.128 732.337C402.686 732.779 402.074 733 401.292 733Z" fill="url(#paint1_linear_86_1281)"/>
<circle cx="212.5" cy="795.5" r="33.5" fill="white"/>
<circle cx="212.5" cy="795.5" r="38.5" stroke="white" stroke-width="4"/>
<rect x="137" y="909" width="151" height="5" rx="2.5" fill="white"/>
<path d="M1 674V699H26" stroke="white" stroke-opacity="0.5"/>
<path d="M1 158V133H26" stroke="white" stroke-opacity="0.5"/>
<path d="M425 674V699H400" stroke="white" stroke-opacity="0.5"/>
<path d="M425 158V133H400" stroke="white" stroke-opacity="0.5"/>
</g>
<defs>
<linearGradient id="paint0_linear_86_1281" x1="7" y1="740" x2="87" y2="740" gradientUnits="userSpaceOnUse">
<stop stop-color="white" stop-opacity="0.3"/>
<stop offset="1" stop-color="white"/>
</linearGradient>
<linearGradient id="paint1_linear_86_1281" x1="365" y1="740" x2="405" y2="740" gradientUnits="userSpaceOnUse">
<stop stop-color="white"/>
<stop offset="1" stop-color="white" stop-opacity="0.3"/>
</linearGradient>
<clipPath id="clip0_86_1281">
<rect width="426" height="923" rx="56" fill="white"/>
</clipPath>
</defs>
</svg>
