<svg width="146" height="112" viewBox="0 0 146 112" fill="none" xmlns="http://www.w3.org/2000/svg">
<path fill-rule="evenodd" clip-rule="evenodd" d="M128.727 40.1485C128.85 40.4015 129.317 40.4781 129.624 40.5318C132.123 40.9764 142.954 41.2063 143.996 40.3095C144.908 39.543 144.402 27.0179 143.513 26.512C142.363 25.8297 129.823 25.6994 128.949 26.397C128.313 26.9259 127.914 38.3778 128.727 40.1485ZM129.141 26.5579C129.838 25.9754 142.087 26.4123 143.191 26.9489C143.782 28.5279 144.165 38.4468 143.59 39.8572C142.655 40.5011 131.195 40.4781 129.194 39.8572C128.413 37.9792 128.704 26.9259 129.141 26.5579ZM98.2419 25.2165C97.938 25.7365 97.5275 26.1864 97.0374 26.5365C96.5473 26.8866 95.9886 27.129 95.3981 27.2478C95.38 27.2432 95.3611 27.2427 95.3428 27.2466C95.3245 27.2504 95.3073 27.2583 95.2925 27.2698C95.2777 27.2812 95.2658 27.2959 95.2576 27.3127C95.2493 27.3295 95.2451 27.3479 95.2451 27.3666C95.2451 27.3853 95.2493 27.4038 95.2576 27.4206C95.2658 27.4374 95.2777 27.4521 95.2925 27.4635C95.3073 27.475 95.3245 27.4829 95.3428 27.4867C95.3611 27.4905 95.38 27.4901 95.3981 27.4854C96.7472 27.838 98.5026 26.6116 98.5026 25.2625C98.5087 25.2279 98.5008 25.1924 98.4807 25.1636C98.4605 25.1349 98.4298 25.1153 98.3952 25.1092C98.3607 25.1031 98.3251 25.111 98.2964 25.1311C98.2676 25.1512 98.248 25.182 98.2419 25.2165ZM91.9794 18.3561V19.1226C91.9794 19.2242 92.0198 19.3217 92.0916 19.3936C92.1635 19.4655 92.261 19.5059 92.3627 19.5059C92.4637 19.5039 92.56 19.4629 92.6315 19.3914C92.703 19.32 92.744 19.2236 92.7459 19.1226V18.3561C92.7459 18.2544 92.7055 18.1569 92.6337 18.0851C92.5618 18.0132 92.4643 17.9728 92.3627 17.9728C92.261 17.9728 92.1635 18.0132 92.0916 18.0851C92.0198 18.1569 91.9794 18.2544 91.9794 18.3561ZM99.6217 19.0843C99.6217 19.1859 99.6621 19.2834 99.734 19.3553C99.8058 19.4272 99.9033 19.4675 100.005 19.4675C100.107 19.4675 100.204 19.4272 100.276 19.3553C100.348 19.2834 100.388 19.1859 100.388 19.0843V18.1338C100.388 18.0321 100.348 17.9346 100.276 17.8628C100.204 17.7909 100.107 17.7505 100.005 17.7505C99.9033 17.7505 99.8058 17.7909 99.734 17.8628C99.6621 17.9346 99.6217 18.0321 99.6217 18.1338C99.591 18.4634 99.6217 18.8466 99.6217 19.0843Z" fill="#292828"/>
<path fill-rule="evenodd" clip-rule="evenodd" d="M144.065 74.5351C144.015 74.4496 143.944 74.3783 143.858 74.3281C143.199 74.0061 139.612 74.1671 138.868 74.1978C138.998 54.0917 128.405 41.5512 113.028 37.9562C110.207 37.297 110.2 37.251 110.123 37.297L109.602 35.8636C111.074 35.8176 112.277 34.6831 113.626 34.9131C114.646 35.0817 115.159 35.9862 116.163 36.3695C117.865 37.0134 120.893 36.0246 121.82 34.4072C122.296 33.564 121.874 32.6901 122.173 32.1076C122.71 31.64 124.235 30.8888 124.672 30.3446C125.569 29.2254 125.607 26.7189 125.201 25.3621C124.467 23.8268 123.468 22.4333 122.25 21.2458C120.924 19.9684 119.749 18.5437 118.747 16.9993C117.513 14.5387 117.467 11.1353 116.447 8.56742C115.323 6.24886 113.584 4.28391 111.419 2.88743C109.304 1.39367 106.754 0.641708 104.167 0.748813C101.753 0.902119 100.81 1.92927 99.683 2.28187C98.5562 2.63448 98.3186 2.28187 96.4866 3.08673C95.7592 3.52994 95.1114 4.09222 94.5703 4.7501C94.3403 4.99539 94.3556 5.01072 93.9647 5.02605C93.5437 4.99439 93.1209 4.99439 92.6999 5.02605C91.9822 5.18534 91.2958 5.46249 90.6686 5.84624C86.399 8.40645 87.5488 13.5575 85.9391 17.3442C84.843 19.9197 81.7922 22.3956 81.5316 25.0862C81.4392 26.3233 81.7054 27.5608 82.2981 28.6505C84.1608 31.9236 86.836 29.3557 88.2234 31.3564C88.6603 31.9849 88.9899 32.5982 89.8024 32.7208C90.8373 32.8588 92.2477 32.0386 93.0909 31.433C93.268 31.6396 93.4687 31.8248 93.6888 31.9849C94.436 32.4887 95.2384 32.9053 96.0803 33.2267L94.1333 35.9479C90.4847 35.534 84.8813 36.7144 81.271 37.8259C81.1406 36.9061 80.0062 29.3097 79.1477 28.9418C77.9595 28.4206 65.4881 29.8693 64.7292 30.6895C64.1697 31.2874 65.1738 42.6704 66.2623 44.3721C66.4233 44.6327 66.9752 44.6404 67.2818 44.648C65.4881 45.8745 63.7557 47.1163 63.1348 47.5685C62.6519 45.8975 60.1147 37.0594 59.1795 35.6106C58.9113 35.189 58.666 35.1967 57.4319 35.6106C56.7284 32.1009 55.838 28.6312 54.7643 25.2165C55.1669 24.5547 55.4886 23.847 55.7225 23.1085C56.0082 21.9389 56.0499 20.723 55.8451 19.5365C56.7803 19.8508 62.3683 21.3838 63.2728 20.9392C63.5158 20.7659 63.696 20.5185 63.7864 20.234C64.7752 18.0724 66.4693 10.6907 66.5996 8.3528C66.6533 8.05344 66.6018 7.74472 66.4539 7.47895C65.5571 6.54379 53.4919 3.0714 52.4724 3.53132C51.8515 3.81494 50.1728 9.32629 49.9965 9.97784C48.5324 14.8913 49.276 13.8105 48.4634 14.0941C47.5283 14.4237 46.7234 16.3937 46.3938 17.3059C46.0642 18.218 45.7193 19.4445 46.1102 20.165C45.9515 20.4581 45.8876 20.7932 45.9274 21.1241C45.9672 21.455 46.1088 21.7654 46.3325 22.0124C46.0887 22.2841 45.9298 22.6212 45.8753 22.9822C45.8209 23.3431 45.8732 23.7121 46.0259 24.0437C46.2482 24.7412 47.6356 25.2011 48.3255 25.4004C47.7808 26.8682 47.3277 28.3684 46.9687 29.8923C46.3573 32.257 45.8686 34.6518 45.5046 37.067C45.2779 38.2407 45.2032 39.4387 45.2823 40.6314L44.0252 41.1986C43.9769 41.2208 43.936 41.2565 43.9074 41.3013C43.8788 41.3462 43.8639 41.3984 43.8643 41.4516C43.8643 41.4516 44.1019 50.7419 47.1603 58.4609C50.855 67.8049 56.9336 70.9324 66.1856 67.437C66.2691 68.1705 66.4495 68.8896 66.7222 69.5756C66.8602 69.8209 67.3278 69.8669 67.642 69.8975C70.3633 69.9867 73.0874 69.9022 75.7979 69.6446L78.0975 84.2087C77.4766 86.0024 70.4322 106.438 70.5319 108.339C70.5319 108.538 70.6085 108.692 70.9381 108.845C72.9694 109.788 92.217 112.302 92.9452 110.202C93.1292 109.688 93.5738 106.415 93.6581 105.794L104.489 104.598L114.814 105.281C114.926 106.314 115.11 107.339 115.366 108.347C115.458 108.577 115.566 108.699 115.834 108.676C116.853 108.577 122.288 107.596 123.79 107.312C129.555 106.223 129.424 106.131 129.256 105.564C128.85 104.223 125.078 93.7596 123.606 88.8768C125.759 89.1066 127.931 89.1066 130.084 88.8768C130.107 88.9598 130.151 89.0356 130.211 89.0973C130.271 89.1589 130.346 89.2043 130.429 89.2294C131.831 89.743 144.364 89.0302 145.391 88.003C146.319 87.1828 144.763 75.7002 144.065 74.5351ZM52.4877 3.86093C52.5721 3.73062 52.5414 3.67696 53.2159 3.77661C56.0291 4.1752 65.2275 7.14168 66.0247 7.83922C66.178 9.59458 63.9014 19.2299 63.0045 20.395C62.353 20.6173 58.0298 19.5135 57.3629 19.3372C52.2884 18.0111 52.4877 17.8041 51.3303 17.5358C50.7324 17.3289 50.6711 17.3212 50.6864 17.2369C50.6883 17.2179 50.6972 17.2003 50.7114 17.1876C50.7256 17.1748 50.744 17.1678 50.763 17.1679C51.4529 17.1679 53.3003 17.1142 53.7525 16.5777C53.8523 16.4686 53.9268 16.3387 53.9707 16.1975C54.0145 16.0563 54.0266 15.9071 54.0061 15.7606C53.9856 15.6142 53.933 15.474 53.8521 15.3503C53.7711 15.2265 53.6638 15.1221 53.5379 15.0446C52.5527 14.6499 51.5231 14.3771 50.4718 14.2321C50.1575 14.1708 49.7742 14.0635 49.391 14.0175C49.9199 11.6259 51.6675 5.13337 52.4877 3.86093ZM45.9032 40.3784V39.1903C45.9722 37.7339 46.6698 33.9089 46.8767 32.8588C47.214 31.1571 47.2907 30.7738 48.2718 27.0791C48.2718 26.9795 48.862 25.3315 48.862 25.3315C48.8726 25.3028 48.877 25.2723 48.8748 25.2419C48.8727 25.2114 48.8641 25.1818 48.8495 25.155C48.835 25.1281 48.815 25.1047 48.7907 25.0862C48.7664 25.0677 48.7385 25.0547 48.7087 25.0478C48.6244 25.0478 46.6314 24.5573 46.4091 23.921C46.1869 23.2848 46.1409 22.5183 46.7004 22.181C46.721 22.1661 46.7378 22.1465 46.7493 22.1238C46.7609 22.1012 46.7669 22.0761 46.7669 22.0507C46.7669 22.0253 46.7609 22.0002 46.7493 21.9776C46.7378 21.9549 46.721 21.9353 46.7004 21.9204C46.4555 21.7193 46.2906 21.4371 46.2358 21.1249C46.181 20.8127 46.2397 20.4913 46.4015 20.2187C46.5778 19.8584 45.6349 20.0347 46.7541 17.4515C47.0377 16.8153 47.9959 14.8606 48.6474 14.646C49.2243 14.5897 49.8066 14.655 50.3568 14.8376C51.3175 14.989 52.262 15.2302 53.1776 15.5582C53.2359 15.5895 53.2861 15.6338 53.3244 15.6877C53.3627 15.7416 53.388 15.8036 53.3984 15.8689C53.4088 15.9342 53.4039 16.001 53.3842 16.0641C53.3646 16.1272 53.3306 16.1849 53.2849 16.2327C52.9482 16.4236 52.5792 16.5509 52.1965 16.6083C49.7819 17.0836 50.2111 16.5547 49.8969 17.3749C48.9744 17.3208 48.0524 17.4863 47.2063 17.8578C46.8767 17.9268 47.0147 18.1414 47.2523 18.1031C48.2793 17.7665 49.3777 17.7109 50.4334 17.9421C51.046 18.054 51.6447 18.2314 52.2195 18.471C52.7407 18.6827 53.2033 19.0166 53.5685 19.4445C53.6338 19.6067 53.6581 19.7824 53.6394 19.9561C53.6207 20.1299 53.5595 20.2964 53.4612 20.441C53.2773 20.7246 52.3881 20.533 52.0508 20.441C51.5909 20.303 51.108 20.188 50.6557 20.0424C50.0195 19.8431 50.0885 19.7894 49.8892 19.8048C49.1861 19.9044 48.4985 20.0924 47.8426 20.3643C47.824 20.3665 47.8062 20.3728 47.7904 20.3828C47.7747 20.3929 47.7615 20.4064 47.7518 20.4224C47.742 20.4383 47.7361 20.4563 47.7344 20.4749C47.7327 20.4935 47.7352 20.5122 47.7418 20.5297C47.7485 20.5471 47.759 20.5629 47.7726 20.5756C47.7862 20.5884 47.8026 20.5979 47.8204 20.6034C47.8383 20.6089 47.8571 20.6102 47.8756 20.6073C47.894 20.6044 47.9116 20.5973 47.9269 20.5866C48.5139 20.4211 49.114 20.3057 49.7206 20.2417C50.0655 20.2417 49.8432 20.2417 50.7094 20.5866C51.1003 20.7323 51.4759 20.8472 51.8898 20.9852C52.1561 21.0765 52.4309 21.1407 52.71 21.1769C53.2006 21.6368 53.5532 22.7099 52.894 22.9015C52.635 22.9462 52.3686 22.9142 52.1275 22.8096C50.3721 22.2347 51.5602 21.8207 47.7506 22.6026C47.7194 22.6065 47.6909 22.6221 47.6709 22.6464C47.651 22.6706 47.6411 22.7016 47.6433 22.7329C47.6433 22.9322 47.7736 22.8096 49.8815 22.7329C50.1364 22.7073 50.3932 22.7073 50.6481 22.7329C51.3073 23.0702 52.2884 23.6451 53.0473 23.4228C53.9748 23.1238 53.9441 22.0967 53.3462 21.3455C53.1316 21.0849 53.1086 21.1615 53.2926 21.1309C53.4271 21.1163 53.5572 21.074 53.6746 21.0067C53.792 20.9394 53.8942 20.8486 53.9748 20.7399C54.1563 20.4895 54.2579 20.1901 54.2661 19.8809C54.2743 19.5717 54.1888 19.2673 54.0208 19.0076L55.3086 19.3908C55.5635 20.5781 55.5425 21.808 55.2472 22.9859C55.1651 23.2734 55.0573 23.553 54.9253 23.8214C54.3657 25.0018 54.1588 25.0402 54.2278 25.2625C55.2929 28.7259 56.1706 32.2443 56.857 35.8023C53.9671 36.8141 48.6704 39.1443 45.9032 40.3784ZM106.559 93.6447C109.84 93.7826 116.892 94.0356 120.126 93.9359C119.904 94.9018 119.766 95.515 119.728 95.653C118.187 95.653 108.23 93.9283 106.559 93.6447ZM121.368 93.2537C119.314 93.7366 92.6463 92.6942 90.362 91.7207C90.5996 90.0036 92.8379 80.353 93.2902 78.383C95.302 78.9989 97.395 79.309 99.4991 79.3029C100.266 79.7015 101.53 80.3913 102.289 80.7516C102.205 81.4032 101.998 82.9439 102.458 83.4038C102.918 83.8637 113.504 87.75 122.786 88.8385C122.412 90.34 121.938 91.815 121.368 93.2537ZM93.0449 74.8033C92.6919 74.6962 92.3655 74.516 92.0867 74.2744C91.8874 74.0598 91.9564 73.4083 92.0867 73.1016C92.158 72.9526 92.2844 72.8372 92.4393 72.7797C92.6265 72.6983 92.826 72.6491 93.0295 72.6341C93.0904 72.6326 93.1494 72.6127 93.1986 72.5768C93.2478 72.541 93.2849 72.4909 93.3049 72.4334C93.3249 72.3759 93.3269 72.3136 93.3106 72.255C93.2942 72.1963 93.2604 72.144 93.2135 72.1052C92.7651 71.7274 92.4528 71.2132 92.3243 70.6411C92.3243 70.2195 92.4853 69.7826 93.1598 69.3993C93.9264 69.4606 96.226 71.3616 97.2915 70.2655C98.3569 69.1693 97.0998 66.6015 98.2879 66.3868C99.4761 66.1722 100.074 69.7442 100.281 70.1352C100.971 71.4766 102.826 72.4348 103.884 73.5386C103.245 75.8234 102.733 78.1419 102.351 80.4833C100.817 79.6631 99.683 78.9503 99.568 78.9503C97.966 78.8966 93.6658 78.452 92.5466 77.3099C92.3476 77.1562 92.2114 76.9352 92.1634 76.6883C92.1154 76.4414 92.159 76.1855 92.286 75.9685C92.3675 75.8244 92.4775 75.6984 92.6093 75.5983C92.7411 75.4981 92.8919 75.4259 93.0525 75.3859C93.1182 75.3698 93.1765 75.332 93.2179 75.2785C93.2593 75.2251 93.2814 75.1592 93.2805 75.0916C93.2796 75.024 93.2558 74.9587 93.213 74.9063C93.1702 74.854 93.1109 74.8177 93.0449 74.8033ZM101.584 49.2779C100.16 49.1416 98.7294 49.0853 97.2991 49.1092C97.1151 49.1092 96.9618 49.2012 96.9082 49.3775C96.7779 49.8681 94.6086 65.8119 94.5013 66.5938C94.0414 58.9285 93.5661 50.8569 93.2135 44.9393C95.881 49.1936 96.111 49.6151 96.5326 49.3162C97.954 48.1473 99.2983 46.8875 100.557 45.5449C100.787 46.3957 101.155 47.7831 101.584 49.2779ZM108.598 46.5873C108.077 45.8208 107.563 45.0543 107.371 44.7707L109.847 38.5388L108.598 46.5873ZM110.384 37.7876C113.283 38.3854 116.11 39.2926 118.816 40.4934C118.701 40.8537 117.221 45.3762 115.451 50.7726C114.638 50.673 109.985 50.1057 108.552 49.9524L110.384 37.7876ZM107.249 45.6215L108.46 47.4459L108.077 49.8988L106.888 49.7455C107.065 48.0821 107.187 46.503 107.249 45.6215ZM128.413 53.7084C128.403 54.7064 128.306 55.7016 128.121 56.6826C125.492 56.008 102.558 50.3663 100.227 51.6924C99.0621 52.367 95.2295 68.0962 94.8615 69.5143L94.5856 69.3763C95.7967 60.8601 97.4064 49.6918 97.4064 49.6611C100.02 49.3622 125.201 52.2137 128.413 53.7084ZM115.037 69.7366C113.32 69.6216 106.505 69.2843 105.072 70.2348C104.849 70.3881 104.757 70.4188 103.968 73.2549C102.948 72.1741 101.239 71.1547 100.664 69.9512C100.404 69.4223 99.982 65.559 98.196 65.8579C95.789 66.2642 98.8628 71.2236 95.3061 69.6906C95.5361 68.7171 99.3074 52.482 100.358 51.8841C102.581 50.6193 126.826 56.7899 129.892 57.656C129.716 59.5264 127.462 69.5066 127.048 71.331C123.078 70.5682 119.068 70.0358 115.037 69.7366ZM103.232 16.1178C103.661 16.409 103.646 17.1066 103.569 17.6125C103.033 21.0389 99.5987 23.1162 97.2148 19.8354C96.6706 19.0689 96.249 16.6313 96.6169 16.0948C96.8622 15.7805 98.8398 15.7651 99.2384 15.7651C99.9743 15.7728 102.849 15.8878 103.201 16.1178H103.232ZM94.1027 16.6697C94.1027 18.1107 93.6198 20.5023 92.3397 21.1922C90.2777 22.2653 88.1851 20.5636 88.1314 18.3484C88.0528 17.5396 88.0916 16.7238 88.2464 15.9261L88.323 15.8878C88.2004 15.6732 93.5891 15.6042 94.072 16.0871C94.0884 16.2809 94.0884 16.4758 94.072 16.6697H94.1027ZM96.7702 33.357C98.0963 33.7403 100.235 33.5563 101.262 32.5062C101.284 32.4834 101.296 32.4532 101.296 32.4219C101.296 32.3905 101.284 32.3603 101.262 32.3375C101.086 32.1229 101.262 32.5368 99.2691 32.8358C97.2761 33.1347 96.0727 32.8358 94.0567 31.525C93.13 30.6737 92.4361 29.5999 92.0407 28.4052C91.2153 26.3835 90.6986 24.2491 90.5077 22.0737C91.2291 22.1918 91.9694 22.0707 92.6156 21.7288C93.2429 21.362 93.7288 20.7951 93.9954 20.119C93.7367 20.9291 93.5243 21.7531 93.3591 22.5873C93.3233 22.6941 93.3179 22.8088 93.3436 22.9184C93.3693 23.0281 93.4252 23.1285 93.5048 23.2082C94.0348 23.5321 94.6589 23.6672 95.2755 23.5914C95.2936 23.5961 95.3125 23.5965 95.3308 23.5927C95.3491 23.5889 95.3663 23.581 95.3811 23.5695C95.3959 23.558 95.4078 23.5433 95.416 23.5266C95.4243 23.5098 95.4285 23.4913 95.4285 23.4726C95.4285 23.4539 95.4243 23.4355 95.416 23.4187C95.4078 23.4019 95.3959 23.3872 95.3811 23.3757C95.3663 23.3643 95.3491 23.3563 95.3308 23.3525C95.3125 23.3487 95.2936 23.3492 95.2755 23.3538C94.8207 23.3032 94.3819 23.1569 93.9877 22.9245C93.8114 22.8019 93.8881 22.8786 93.9417 22.6256C93.9954 22.3726 94.9919 18.7163 95.0455 18.4863C95.2831 18.4863 96.1876 18.3637 96.1876 18.1414C96.1876 17.9191 95.4671 17.8578 95.1988 17.8731C95.1988 17.7735 95.2448 17.6891 95.2678 17.6125C95.28 17.582 95.2796 17.5479 95.2667 17.5177C95.2537 17.4875 95.2293 17.4637 95.1988 17.4515C95.1683 17.4393 95.1342 17.4397 95.104 17.4527C95.0739 17.4656 95.05 17.49 95.0379 17.5205C94.7696 18.0417 94.9535 17.8501 94.5933 17.9421C94.7316 17.2333 94.7316 16.5046 94.5933 15.7958C94.1563 15.1213 91.5271 15.2746 90.6686 15.3282C91.1055 12.7603 92.8072 11.4956 93.8497 9.44127C94.1418 8.96445 94.531 8.55441 94.9919 8.23782C95.2218 8.17649 95.6741 8.75139 95.95 8.88937C96.226 9.02734 96.4866 9.78621 96.7166 10.0468C97.4396 10.8701 98.2728 11.5898 99.1924 12.1855C99.959 12.7297 101.155 12.814 101.676 13.5115C101.896 14.1047 102.003 14.734 101.99 15.3666C101.001 15.3052 96.8775 15.2439 96.3869 15.9491C95.9424 16.5163 96.134 19.1072 96.7855 20.1037C98.4259 22.5873 100.948 22.7406 102.918 20.5023C103.13 20.2381 103.31 19.95 103.454 19.6438C104.926 21.9434 106.084 23.3155 106.137 26.0137C106.199 29.4324 105.233 35.097 108.935 35.8099L109.571 37.5653C106.505 45.2766 106.666 44.7937 106.666 44.8703C106.666 44.947 106.52 47.1699 106.252 49.7148C104.78 49.5615 103.408 49.4312 102.19 49.3315C102.098 49.0172 100.955 44.9546 100.978 44.8703C101.093 44.487 100.519 43.7359 100.074 43.069C98.4067 40.6552 96.5863 38.3508 94.6239 36.1702L96.7702 33.357ZM94.072 36.3772C94.2023 36.5765 99.7213 42.6474 100.396 44.878C99.1559 46.2526 97.8159 47.5336 96.3869 48.7106C95.8734 48.0361 94.4859 45.8132 93.1675 43.7359C92.9299 39.7269 92.7689 36.9367 92.7306 36.3542C93.1599 36.3235 93.6428 36.3465 94.0414 36.3772H94.072ZM66.6992 44.0425C65.8254 42.5094 64.6142 32.5445 64.8979 31.0114C64.8979 30.8735 64.8979 30.8275 65.5418 30.6512C68.2859 29.9383 77.9136 29.1181 78.9254 29.4631C79.6919 30.9578 81.3706 40.7157 80.972 42.2181C80.1902 42.8467 68.9528 44.4334 66.6686 44.0425H66.6992ZM67.2358 69.2613C66.3543 67.529 65.7027 56.4219 66.1396 56.0003C66.7912 55.3718 79.025 54.8352 80.1825 55.2875C80.949 56.8972 82.0375 66.7854 81.5852 68.1269C80.5428 68.9087 69.0448 69.6752 67.2051 69.2613H67.2358ZM84.7357 56.4143C85.2876 56.2686 89.1356 55.2875 89.5955 55.0115C89.9251 54.8199 90.3007 55.4408 83.8542 37.7492C84.6207 37.044 91.3202 36.1395 92.378 36.4691C92.378 36.8907 93.3821 54.7816 94.1717 69.1387C93.7961 68.9547 93.2518 68.6711 92.9069 68.8627C91.4658 69.6293 91.3738 70.9017 92.4393 72.1435C92.2403 72.1923 92.0555 72.287 91.8998 72.4201C91.744 72.5533 91.6216 72.721 91.5425 72.91C91.4196 73.1977 91.3674 73.5106 91.39 73.8227C91.4127 74.1347 91.5097 74.4367 91.6728 74.7037C91.8515 74.8748 92.0558 75.017 92.2783 75.1253C92.0493 75.2787 91.8686 75.494 91.7571 75.7462C91.6566 75.9634 91.5968 76.1972 91.5808 76.436L84.7357 56.4143ZM103.815 104.115L93.8037 105.227C93.8497 104.859 94.9765 95.9749 95.3368 92.9625C97.4218 93.1464 99.936 93.3074 102.626 93.453C103.071 98.9797 103.853 102.797 103.784 104.115H103.815ZM104.344 104.054C104.451 102.306 103.01 93.545 103.002 93.4684L103.769 93.5067C106.375 93.9896 113.09 95.1777 113.818 95.3004C114.063 97.7686 114.676 103.518 114.822 104.698C103.393 103.962 104.627 104.023 104.305 104.054H104.344ZM145.016 87.6504C144.249 88.2636 132.989 89.2908 130.666 88.7849C129.769 87.0448 129.133 75.9455 129.57 75.5239C130.229 74.8877 142.463 74.3664 143.605 74.811C144.326 76.4131 145.437 86.3396 144.985 87.6504H145.016Z" fill="#292828"/>
<path fill-rule="evenodd" clip-rule="evenodd" d="M67.2511 82.0164C67.1898 81.7405 67.1055 81.3419 66.8832 81.2499C66.1167 80.79 61.0652 80.698 60.1684 80.6827C59.9691 77.0263 59.6165 72.8027 59.0416 71.6683C58.666 70.9017 33.8917 70.8251 33.0409 70.8174C33.1022 66.6935 33.1099 60.4079 33.0409 56.2533C34.1217 56.2533 39.518 56.2533 40.2616 55.6401C41.2121 54.8736 40.5759 44.6404 40.1466 42.6091C40.0853 42.3331 39.9933 41.9346 39.7787 41.8426C38.6595 41.1757 26.1038 41.0147 25.2146 41.7276C24.747 42.1185 24.5707 46.9093 24.5477 47.5149C22.7923 47.5149 11.9383 47.2926 8.05963 47.3846V41.122C9.06378 41.122 14.9584 41.283 15.7249 40.6391C16.6524 39.8726 16.3458 27.3475 15.4643 26.8416C14.5828 26.3357 9.07911 26.1747 8.12862 26.1517C8.12862 25.0632 8.0443 22.319 8.03663 22.25C11.5857 22.1197 20.9373 22.4187 24.793 22.4187C24.793 23.6221 24.724 27.907 25.2299 29.0032C25.3526 29.2638 25.8201 29.3405 26.1268 29.3941C28.5643 29.8234 39.4337 30.0763 40.4992 29.1718C41.5647 28.2673 40.8211 16.8077 40.2003 15.5736C40.1591 15.4848 40.0958 15.4083 40.0163 15.3513C38.8588 14.6691 26.3184 14.5847 25.4522 15.2363C24.954 15.6579 24.7853 21.1462 24.77 21.8055C20.853 21.8055 11.6393 21.5065 7.99064 21.6368C7.99064 20.1574 7.91399 18.6627 7.91399 17.1909C9.00246 17.1909 15.5793 17.0913 16.3995 16.3708C17.2197 15.6502 16.3995 4.03728 15.7403 2.78017C15.6993 2.69108 15.6325 2.61632 15.5486 2.56554C14.3835 1.91399 1.84307 2.11329 0.984552 2.83383C0.333001 3.40106 0.218021 14.8607 1.09187 16.6314C1.15207 16.7302 1.24391 16.8059 1.35249 16.846C2.22633 17.2139 6.30427 17.2216 7.26244 17.2216C7.26244 20.648 7.41574 23.4305 7.44641 26.167C6.67987 26.167 1.45214 26.052 0.869572 26.5196C0.287009 26.9872 -0.418199 38.4392 0.394323 40.3172C0.509303 40.5701 0.976887 40.6621 1.2835 40.7158C3.31499 41.0091 5.36337 41.1705 7.41574 41.1987V52.5127C6.68754 52.5127 1.69743 52.4207 1.13786 52.8729C0.578291 53.3252 -0.157579 64.7925 0.654944 66.6705C0.769923 66.9311 1.23751 67.0154 1.54412 67.0768C4.02768 67.552 14.8511 67.9659 15.9166 67.0768C16.982 66.1876 16.4301 54.6973 15.8476 53.4785C15.8061 53.3879 15.7429 53.3089 15.6636 53.2485C14.8281 52.7426 9.01779 52.574 7.99831 52.551V48.1205C11.9689 48.0208 22.3784 48.2431 24.4787 48.2508C24.4787 49.5462 24.3561 54.429 24.908 55.6171C24.9581 55.72 25.0459 55.7997 25.1533 55.8394C26.1421 56.2917 31.2855 56.3837 32.3357 56.3913C32.4353 60.5612 32.4276 66.8621 32.3357 70.9554C22.0335 70.9017 11.348 71.0091 9.19409 71.446C8.96414 71.492 8.58854 71.5686 8.57321 71.8906C8.57321 71.8906 8.15928 78.5134 7.96765 80.79C7.28543 80.79 2.80123 80.79 2.27999 81.2499C1.75875 81.7098 1.18385 93.1925 2.02703 95.0475C2.14201 95.3004 2.6096 95.3847 2.91621 95.4384C5.36144 95.8676 16.2232 96.1206 17.2887 95.2161C18.3541 94.3116 17.6029 82.829 16.9897 81.6178C17.0205 81.5446 17.0303 81.4643 17.0181 81.3858C17.006 81.3073 16.9722 81.2337 16.9207 81.1733C16.0392 80.6443 9.746 80.5984 8.70352 80.5907C8.88748 78.2911 9.28608 71.8906 9.28608 71.8906C11.9076 71.124 55.5155 71.216 58.5663 71.9902C59.0339 73.1093 59.3329 76.9497 59.5782 80.6214C58.8116 80.6214 52.986 80.5754 52.3804 81.0813C51.7749 81.5872 51.315 93.0928 52.1275 94.8788C52.1813 94.9818 52.2714 95.061 52.3804 95.1011C53.7372 95.7143 66.2853 95.9903 67.3891 95.0475C67.5789 94.8177 67.6891 94.5326 67.7034 94.2349C68.0636 91.9047 67.7494 84.316 67.2511 82.0164ZM25.6132 15.3283C26.2954 14.761 38.5292 15.1673 39.6637 15.7192C39.9484 16.929 40.1127 18.164 40.1543 19.4062C35.2408 18.908 28.6027 19.2912 25.2146 19.4062C25.2299 18.9463 25.3526 15.5122 25.6132 15.3053V15.3283ZM25.2069 19.8278C30.7873 20.0041 37.4101 19.7128 40.1773 19.7435C40.2616 21.1003 40.5605 27.4548 40.0623 28.6276C39.4951 29.0185 35.0262 29.0875 34.344 29.0952C32.6959 29.0952 27.2612 29.0952 25.6668 28.6352C25.1149 27.2938 25.1686 21.3379 25.2069 19.8048V19.8278ZM1.18385 2.89515C1.86606 2.29726 14.1229 2.41223 15.242 2.89515C15.4935 3.74953 15.6529 4.62838 15.7173 5.51668C10.7657 5.37068 5.81035 5.62703 0.900233 6.28321C0.907899 6.00726 0.961556 3.09445 1.18385 2.89515ZM1.59011 16.1945C0.969221 14.807 0.884903 8.35285 0.900233 6.54383C1.54412 6.46718 15.4643 5.7773 15.7479 5.7773C15.9166 7.31037 16.5145 14.4621 15.9779 15.8035C14.9507 16.5471 3.41445 16.6927 1.59011 16.1945ZM1.0612 26.5656C1.75875 26.006 13.9849 26.6116 15.1117 27.1788C15.3624 28.3227 15.5011 29.4882 15.5256 30.6589C15.6023 30.6589 4.68689 30.2296 0.616617 30.3599C0.639613 29.9077 0.82358 26.7496 1.0612 26.5656ZM15.5103 66.4252C14.6671 66.9771 3.3608 66.9081 1.12253 66.1952C0.570625 64.8232 0.739262 58.5299 0.815915 56.9279C0.892568 56.9279 11.371 57.7404 15.7556 57.2268C15.8323 58.6296 16.0392 65.2294 15.5103 66.4175V66.4252ZM15.3263 53.5015C15.5759 54.6483 15.717 55.816 15.7479 56.9892C15.8246 56.9892 4.93218 56.56 0.831246 56.6826C0.865408 55.4504 0.996118 54.2227 1.22218 53.0109C1.27583 52.8576 1.22218 52.827 1.91205 52.7503C4.65623 52.4437 14.3452 53.0033 15.3263 53.4938V53.5015ZM0.900233 39.8649C0.355997 38.4928 0.524634 32.2456 0.601287 30.6052C0.69327 30.6052 11.1411 31.4178 15.541 30.9042C15.6176 32.3146 15.8323 38.8761 15.2957 40.1025C14.2609 40.7771 2.74757 40.4551 0.900233 39.8649ZM17.0894 85.5885C17.1813 87.0142 17.4726 93.3534 16.9744 94.5569C16.1619 95.1241 4.80954 95.2391 2.57894 94.5569C2.02703 93.2231 2.08069 87.2212 2.11902 85.6191C7.06314 85.8108 11.555 85.5885 17.0894 85.5885ZM16.5758 81.6485C16.8593 82.8562 17.0262 84.0883 17.074 85.3278C12.1989 84.8373 5.33078 85.2282 2.12668 85.3738C2.12668 84.8909 2.27232 81.4645 2.52528 81.2576C3.21516 80.6903 15.4413 81.0966 16.5758 81.6485ZM25.3526 41.8272C26.0578 41.237 38.2916 41.6816 39.4031 42.2182C39.6946 43.4765 39.864 44.76 39.909 46.0508C36.5822 45.8745 28.3037 45.3456 24.9616 45.7595C25 45.3226 25.1303 42.0342 25.3526 41.8272ZM25.4292 55.1112C24.8696 53.7698 24.931 47.6375 24.977 46.0355C26.0578 45.9282 33.8764 46.4188 37.5097 46.3881C38.4372 46.3881 39.2728 46.3498 39.9473 46.3268C40.0316 47.6912 40.3152 53.9231 39.8247 55.1035C38.8205 55.8164 27.2919 55.7014 25.4292 55.1112ZM52.5107 81.2576C53.2006 80.6903 65.4268 81.0966 66.5689 81.6485C66.8499 82.859 67.0141 84.0937 67.0595 85.3355C62.2304 84.8449 55.2396 85.2359 52.1198 85.3355C52.1275 84.9292 52.2578 81.4875 52.5107 81.2806V81.2576ZM66.9675 94.5569C66.132 95.1241 54.7797 95.2391 52.5721 94.5569C52.0125 93.2308 52.0662 87.2058 52.1121 85.6115C57.2709 85.8108 61.1419 85.6115 67.0748 85.6115C67.1668 87.0219 67.4581 93.3841 66.9675 94.5799V94.5569Z" fill="#292828"/>
</svg>
