<svg width="117" height="148" viewBox="0 0 117 148" fill="none" xmlns="http://www.w3.org/2000/svg">
<path d="M99.6874 45.3228C105.149 43.6318 110.569 41.8986 115.917 39.8672C116.607 39.6051 116.914 40.7212 116.223 40.9757C110.891 42.9411 105.392 44.6589 99.8292 45.8364C99.495 45.9069 99.3578 45.4247 99.6874 45.3228Z" fill="#292828"/>
<path d="M93.5665 36.7941C95.5212 33.8444 102.133 24.5592 103.467 22.6857C103.859 22.1353 104.199 21.4247 104.819 21.1158C105.154 20.9487 105.46 21.2224 105.408 21.5688C105.3 22.2879 104.644 22.908 104.219 23.4806C103.729 24.1414 95.9857 34.601 93.9896 37.1206C93.8003 37.3598 93.3986 37.0478 93.5665 36.7941Z" fill="#292828"/>
<path d="M82.614 31.354C82.8462 29.3043 83.0218 28.2633 84.2046 20.331C84.2797 19.8251 84.2812 19.2441 84.5687 18.8125C84.7496 18.5411 85.1804 18.5726 85.2747 18.9045C85.3989 19.3429 85.4042 19.0087 84.3993 25.0568C84.0451 27.187 83.7148 29.3273 83.2847 31.4437C83.2096 31.8147 82.5703 31.7388 82.614 31.354Z" fill="#292828"/>
<path d="M50.1276 77.1016L45.6793 78.2085C46.5761 71.3549 47.2614 66.971 47.7175 64.3218C48.9639 67.191 49.9789 70.1606 50.7416 73.1938C50.5469 74.388 50.3414 75.6912 50.1276 77.1016Z" fill="#292828"/>
<path d="M59.429 136.703C60.8793 135.557 62.9805 135.804 64.1265 137.254C65.9577 139.572 64.0774 143 61.1124 142.648C58.1718 142.303 57.0979 138.544 59.429 136.703Z" fill="#292828"/>
<path d="M39.1522 139.523C40.3395 127.103 42.8508 100.024 45.5789 78.9776L49.2668 83.0648C47.3251 97.2192 45.5306 116.47 44.7733 129.004C44.6591 129.977 45.3574 130.861 46.3301 130.974C46.6574 131.014 49.693 132.48 62.1165 133.937C74.7323 135.417 77.6031 134.651 78.1956 134.713C79.1707 134.828 80.0522 134.128 80.1695 133.135C80.1909 133.011 82.3396 120.495 84.9321 101.62C87.5222 82.762 87.7882 68.331 87.7928 68.1494C87.907 67.1766 87.2087 66.2928 86.19 66.1701C79.3063 64.5312 66.0634 62.5413 58.6455 62.3428C58.3765 61.2121 58.0882 60.086 57.7793 58.9653C66.8821 59.738 88.4367 62.3826 90.6996 63.1607C92.3684 63.3561 95.4982 64.985 95.847 67.0739C96.3835 70.2811 88.5218 137.052 86.8576 144.363C86.5679 146.834 83.7807 147.611 81.3055 147.362C75.1677 146.743 47.2577 144.424 41.3828 142.329C39.9908 142.166 39.0203 140.903 39.1522 139.523ZM82.2246 146.694C84.6231 146.543 85.9263 145.729 86.1018 144.242C88.2711 133.489 94.9639 74.5446 95.1233 68.0995C95.1693 66.243 93.8877 65.1928 92.2626 64.7405C92.8819 66.2476 88.9618 99.748 88.774 101.367C85.8136 126.814 83.2257 144.509 83.2012 144.674C83.0977 145.553 82.5558 146.275 81.8191 146.648L82.2246 146.694ZM61.0226 143.409C63.2648 143.674 65.3191 142.065 65.5843 139.806C65.8496 137.549 64.2367 135.508 61.98 135.244C59.7248 134.979 57.6835 136.591 57.4183 138.847C57.1538 141.099 58.7712 143.145 61.0226 143.409Z" fill="#292828"/>
<path d="M44.9389 77.9988L51.0728 76.4719C49.145 66.3227 44.4207 56.8037 37.5662 49.1099L38.3136 48.7979C45.2455 56.6504 49.9989 66.3549 51.8923 76.6873C51.9291 76.8858 51.8041 77.079 51.6079 77.128L45.7438 78.5875L59.4113 93.7353L66.4789 75.0576C64.6905 75.7168 62.8286 76.1568 60.9314 76.3668C60.7137 76.3883 60.5274 76.2335 60.5075 76.0211C59.4611 64.7015 56.3482 53.378 51.4676 43.0741L52.1667 42.7598C57.0251 53.0216 60.1449 64.2868 61.2342 75.5589C63.2134 75.3052 65.1497 74.7931 66.9971 74.0342C67.3068 73.907 67.6195 74.2113 67.5015 74.5241L59.9065 94.5946C59.8045 94.8629 59.455 94.9288 59.2634 94.7157L44.7473 78.6274C44.5533 78.4128 44.6591 78.0678 44.9389 77.9988Z" fill="#292828"/>
<path d="M3.20097 19.8116C8.71783 17.0343 42.4016 1.97469 48.4006 0.852465C50.6336 -0.0842586 53.1984 0.965148 54.1344 3.19811L66.1393 31.8196C67.0737 34.0472 66.0213 36.6197 63.8519 37.5235C59.9786 39.9902 29.2391 53.7099 18.5933 56.5117C16.3611 57.4323 13.8108 56.3637 12.8948 54.1783C10.487 49.3621 2.03889 31.1473 0.869135 25.5063C0.000633751 22.8716 0.859164 20.792 3.20097 19.8116ZM13.5916 53.8594C14.3627 55.6976 16.4838 56.5653 18.3227 55.7942C18.3403 55.7873 18.358 55.7811 18.3764 55.7765C27.2929 53.5122 56.2156 40.9561 63.497 36.8474C65.3344 36.077 66.2029 33.9544 65.4326 32.1162L64.3372 29.5038C46.9434 35.9229 30.2165 43.9418 12.4762 51.3827C12.375 51.4248 12.257 51.1244 13.5916 53.8594ZM1.60808 25.3039C2.68202 30.1584 8.07163 42.0676 10.0999 46.4837C27.8371 39.0374 44.8906 31.0729 62.3027 24.6523L53.4292 3.49553C52.6848 1.7202 50.6328 0.755113 48.6352 1.58069C41.6565 3.13755 10.0524 17.2896 3.52292 20.5076C1.54369 21.3378 0.859933 23.028 1.60885 25.3039H1.60808Z" fill="#292828"/>
<path d="M5.54437 22.8331C6.70952 22.423 7.81795 21.8404 9.71516 21.1727C9.91523 21.1022 10.1337 21.208 10.2035 21.4073C10.6887 22.7902 11.4913 24.6061 12.0899 25.8748C12.2103 26.13 12.0209 26.4213 11.7427 26.4213C10.6971 26.9533 9.37174 27.5282 7.80492 28.1307C7.60715 28.2074 7.30513 28.084 7.21621 27.8916C6.51712 26.3769 5.7521 24.7932 5.2891 23.3605C5.23008 23.1788 5.32284 22.9105 5.54437 22.8331Z" fill="#292828"/>
<path d="M38.3334 11.1666C38.755 11.1666 45.9146 8.55954 50.5231 6.64317C50.7186 6.56191 50.8113 6.33732 50.7301 6.14184C50.6488 5.94637 50.4235 5.85439 50.2288 5.93488C46.2979 7.56916 42.2551 9.07773 38.2131 10.4184C37.8015 10.5549 37.9003 11.1666 38.3334 11.1666Z" fill="#292828"/>
<path d="M43.9415 13.447C44.2788 13.447 48.5155 11.8863 52.1199 10.0987C52.31 10.0044 52.3874 9.77446 52.2931 9.58512C52.1996 9.39502 51.9689 9.31836 51.7795 9.41188C49.2139 10.6844 46.5356 11.7905 43.8197 12.6996C43.4096 12.8368 43.5084 13.447 43.9415 13.447Z" fill="#292828"/>
<path d="M81.4917 95.8603C81.4641 94.7664 81.3967 93.9707 81.3591 93.5928C81.3384 93.382 81.4917 93.1942 81.7025 93.1728C81.9095 93.1521 82.1011 93.3061 82.1218 93.5162C82.1609 93.904 82.2307 94.722 82.2583 95.8411C82.2713 96.3524 81.504 96.3601 81.4917 95.8603Z" fill="#292828"/>
<path d="M80.0706 92.7426C79.9824 92.7426 79.9978 92.7235 77.7395 92.3808C77.2382 92.3049 77.3532 91.5453 77.8546 91.6227C79.255 91.8351 80.05 91.9669 80.1327 91.9807C80.5942 92.0574 80.5382 92.7419 80.0699 92.7419L80.0706 92.7426Z" fill="#292828"/>
<path d="M79.8812 109.444C80.0214 108.763 80.1709 108.009 80.3258 107.193C80.42 106.694 81.1728 106.837 81.0785 107.336C80.9229 108.157 80.7727 108.913 80.6316 109.598C80.5895 109.803 80.3894 109.939 80.1794 109.896C79.9716 109.853 79.8382 109.651 79.8812 109.444Z" fill="#292828"/>
<path d="M81.7049 100.828C81.4941 100.81 81.3377 100.625 81.3546 100.414C81.4175 99.6567 81.4611 98.8909 81.4841 98.1381C81.4903 97.9266 81.6873 97.7641 81.8789 97.7671C82.0905 97.774 82.2568 97.9503 82.2507 98.1619C82.2269 98.9277 82.1825 99.7073 82.1181 100.478C82.102 100.678 81.931 100.843 81.7049 100.828Z" fill="#292828"/>
<path d="M75.5218 92.0495C75.4444 92.0495 75.4651 92.0373 73.1915 91.7253C72.9814 91.6962 72.835 91.503 72.8642 91.2937C72.8933 91.0845 73.0857 90.9357 73.2957 90.9664C74.1244 91.0799 74.8863 91.1879 75.5762 91.2876C76.0446 91.3543 75.9947 92.0495 75.5218 92.0495Z" fill="#292828"/>
<path d="M70.9646 91.4235C70.888 91.4235 70.8558 91.4067 68.6351 91.1261C68.425 91.1 68.2763 90.9084 68.3024 90.6976C68.3285 90.4883 68.5186 90.3381 68.7309 90.3649C69.5281 90.4653 70.2901 90.5642 71.0145 90.6593C71.4859 90.7206 71.4399 91.4235 70.9646 91.4235Z" fill="#292828"/>
<path d="M66.4014 90.8477L64.0741 90.5786C63.8641 90.5549 63.7123 90.3648 63.7361 90.1547C63.7599 89.9447 63.9469 89.7914 64.16 89.8167C64.876 89.8972 65.6371 89.9861 66.4466 90.0842C66.9219 90.1409 66.8797 90.8477 66.4014 90.8477Z" fill="#292828"/>
<path d="M80.7375 104.936C80.8961 104.019 80.9889 103.507 81.1039 102.679C81.133 102.47 81.3246 102.324 81.5354 102.352C81.7455 102.381 81.8919 102.575 81.8628 102.784C81.7462 103.631 81.6481 104.173 81.4933 105.068C81.4565 105.28 81.2518 105.417 81.0495 105.379C80.8409 105.343 80.7014 105.144 80.7375 104.936Z" fill="#292828"/>
<path d="M51.3159 97.0306C51.1066 96.9984 50.9632 96.8029 50.9954 96.5937C51.1227 95.762 51.2568 95.0008 51.391 94.3124C51.4316 94.1047 51.6332 93.969 51.8402 94.0096C52.0479 94.0503 52.1836 94.2511 52.143 94.4588C52.0111 95.1372 51.8777 95.8884 51.7528 96.7094C51.7206 96.9195 51.5236 97.062 51.3159 97.0306Z" fill="#292828"/>
<path d="M50.8122 101.602C50.6014 101.585 50.4451 101.398 50.4635 101.188C50.5048 100.706 50.6597 99.154 50.6904 98.888C50.7486 98.3821 51.5098 98.4733 51.4515 98.9754C51.4216 99.2376 51.2683 100.775 51.2269 101.254C51.2085 101.47 51.0146 101.622 50.8122 101.602Z" fill="#292828"/>
<path d="M50.1093 108.105C50.1154 107.591 50.882 107.612 50.8759 108.115C50.8667 108.836 50.8651 109.733 50.8851 110.399C50.8874 110.482 50.8375 110.788 50.5018 110.793C50.2956 110.796 50.1254 110.629 50.1185 110.422C50.0986 109.74 50.0993 108.836 50.1093 108.105Z" fill="#292828"/>
<path d="M79.4013 111.686C79.5109 111.191 80.2606 111.359 80.1494 111.853C79.8612 113.143 79.6703 113.877 79.6703 113.877C79.619 114.309 79.238 114.507 78.9674 114.282C78.8049 114.146 78.7819 113.898 78.9184 113.735C78.9184 113.735 79.1069 113.001 79.4013 111.686Z" fill="#292828"/>
<path d="M50.5394 106.194C50.3278 106.187 50.163 106.006 50.1722 105.795C50.2006 105.09 50.2389 104.32 50.291 103.49C50.3048 103.278 50.4865 103.117 50.6973 103.132C50.9088 103.145 51.0691 103.327 51.056 103.538C51.0047 104.361 50.9656 105.127 50.938 105.826C50.9341 105.913 50.8606 106.203 50.5394 106.193V106.194Z" fill="#292828"/>
<path d="M52.4788 111.016C52.8306 111.088 53.545 111.225 54.7255 111.419C54.934 111.453 55.0758 111.651 55.0413 111.859C55.0061 112.074 54.8006 112.211 54.6013 112.175C53.4048 111.979 52.6819 111.839 52.3254 111.766C52.1177 111.724 51.9843 111.522 52.0265 111.314C52.0687 111.106 52.2733 110.973 52.4788 111.016Z" fill="#292828"/>
<path d="M70.6657 113.423C71.5158 113.505 72.2754 113.575 72.95 113.633C73.4483 113.676 73.3977 114.431 72.8841 114.397C72.2072 114.339 71.4445 114.269 70.5906 114.185C70.0877 114.136 70.1582 113.374 70.6657 113.423Z" fill="#292828"/>
<path d="M75.2351 113.812C76.8265 113.921 77.5056 113.928 77.5056 113.928C77.7172 113.929 77.8874 114.103 77.8859 114.314C77.8843 114.524 77.7126 114.695 77.5026 114.695C77.475 114.695 76.8027 114.688 75.183 114.577C74.684 114.543 74.7192 113.785 75.2351 113.812Z" fill="#292828"/>
<path d="M66.0993 112.937C66.9103 113.029 67.67 113.112 68.3821 113.189C68.5921 113.211 68.7447 113.4 68.7225 113.61C68.7002 113.822 68.5101 113.973 68.3009 113.951C67.588 113.875 66.826 113.791 66.0135 113.698C65.8034 113.674 65.6524 113.484 65.6762 113.274C65.7 113.064 65.8885 112.913 66.1001 112.937H66.0993Z" fill="#292828"/>
<path d="M56.9906 111.77C57.6644 111.869 58.4195 111.976 59.2625 112.09C59.7623 112.159 59.6657 112.915 59.159 112.85C58.3129 112.735 57.5548 112.628 56.8787 112.528C56.3766 112.454 56.4885 111.694 56.9906 111.77Z" fill="#292828"/>
<path d="M61.5392 112.388C62.2505 112.479 63.0086 112.572 63.8181 112.67C64.0282 112.695 64.1784 112.886 64.1531 113.096C64.1278 113.306 63.9369 113.456 63.7269 113.431C62.9159 113.334 62.1555 113.239 61.4426 113.15C60.939 113.085 61.0355 112.325 61.5392 112.389V112.388Z" fill="#292828"/>
<path d="M60.5035 100.257L64.5977 100.758L65.1526 96.2197C65.3374 94.7096 67.6194 94.9894 67.4354 96.4987L66.8804 101.037L70.9746 101.537C72.4839 101.722 72.2041 104.01 70.6956 103.82L66.6014 103.319L66.0464 107.857C65.8594 109.388 63.5797 109.085 63.7637 107.578L64.3186 103.04L60.2245 102.54C58.7136 102.355 58.9926 100.075 60.5035 100.257Z" fill="#292828"/>
<path d="M52.4741 89.979L53.0697 90.639C52.9563 91.0131 52.8037 91.5481 52.6343 92.2327C52.5829 92.4396 52.3721 92.5638 52.1698 92.5125C51.9643 92.4611 51.8394 92.2541 51.89 92.0479C52.1445 91.0223 52.3629 90.3178 52.4741 89.979Z" fill="#292828"/>
</svg>
