<svg width="141" height="146" viewBox="0 0 141 146" fill="none" xmlns="http://www.w3.org/2000/svg">
<path d="M48.1657 111.199C49.4435 110.746 50.7527 110.388 52.0827 110.126L52.2437 110.716C52.2617 110.786 52.3041 110.846 52.3632 110.887C52.4223 110.928 52.4942 110.946 52.5656 110.938L57.8317 110.325C59.2804 107.021 61.9403 102.016 61.9786 101.939C61.9403 100.69 61.9786 99.6396 61.9786 98.4438C58.9661 99.563 53.3935 101.686 50.4806 103.043C50.4148 103.085 50.3639 103.147 50.335 103.22C50.3061 103.293 50.3008 103.373 50.3197 103.449C50.3197 103.449 50.3733 103.641 50.4423 103.917C49.0166 103.917 44.747 103.71 43.7198 104.683C43.5602 104.906 43.4817 105.177 43.4976 105.45C43.4362 106.508 43.9651 114.725 44.8083 117.14C45.2452 118.404 46.1651 118.266 46.7936 117.055C47.5211 115.231 47.9882 113.314 48.1811 111.36C48.1811 111.26 48.1581 111.268 48.1657 111.199ZM47.2842 104.338C48.2194 104.262 48.5107 104.277 50.519 104.216C50.8792 105.58 51.6228 108.386 52.006 109.819C50.6536 110.029 49.3187 110.339 48.0124 110.747C47.6054 108.632 47.3619 106.49 47.2842 104.338Z" fill="#292828"/>
<path d="M118.717 37.2516C118.909 36.9833 118.664 36.6384 118.457 36.3701C119.043 35.7671 119.693 35.2299 120.396 34.7681C121.582 34.177 122.666 33.4007 123.608 32.4685C123.999 32.0622 124.734 31.2267 124.458 30.7361C124.183 30.2455 123.692 30.2149 123.025 30.4985C123.314 30.1951 123.55 29.8453 123.723 29.4637C123.937 28.8658 123.431 28.3829 122.335 28.8274C122.734 28.1912 122.826 27.5243 122.151 27.2024C121.607 26.9418 120.81 27.5627 120.35 27.9689C119.447 28.758 118.599 29.6083 117.813 30.5138C117.33 29.502 116.563 28.3369 115.605 28.7048C114.647 29.0727 115.39 30.7208 115.881 31.6176L114.141 32.8211C113.878 32.6791 113.581 32.6128 113.282 32.6294C111.305 32.9667 102.221 39.8808 101.302 39.8808C100.596 39.8808 90.5242 35.0517 81.8164 33.6566C81.7996 33.6044 81.7684 33.5579 81.7263 33.5227C81.6843 33.4874 81.6331 33.4648 81.5788 33.4573C80.06 33.1981 78.5201 33.0826 76.9796 33.1123C76.9329 33.1155 76.8874 33.1288 76.8464 33.1513C76.8054 33.1738 76.7697 33.205 76.742 33.2427H76.0981C75.9448 32.6218 75.3775 31.1884 75.1782 30.6365C75.6995 30.1842 76.42 29.9542 76.7956 29.226C77.4855 27.8769 77.4548 25.5314 77.2632 24.029C78.1294 23.3697 78.1524 22.3119 77.9531 21.2311C77.8764 20.7942 77.6388 19.8054 77.2709 19.5601C77.0639 19.4221 76.627 19.5601 76.2514 19.6981C75.8758 18.8242 75.8758 19.2228 76.0291 18.8702C76.1003 18.7077 76.1418 18.5338 76.1517 18.3566C76.558 18.4793 77.4012 17.6668 77.1099 16.5936C76.9573 16.2094 76.77 15.84 76.5503 15.4898C76.6577 15.2292 76.8876 14.9149 76.1671 13.9567C75.8568 13.622 75.4538 13.3872 75.0096 13.2822H74.657C74.4027 12.9129 74.0293 12.6423 73.5992 12.5157C72.95 12.3501 72.2617 12.4465 71.6829 12.784C71.5296 12.8989 71.4069 13.0522 71.2536 13.1596C70.907 12.9491 70.5093 12.8378 70.1038 12.8378C69.6983 12.8378 69.3006 12.9491 68.954 13.1596C68.7511 13.2392 68.5664 13.359 68.411 13.5118C68.2555 13.6646 68.1326 13.8472 68.0495 14.0487C67.6739 13.9191 67.2755 13.8693 66.8795 13.9022C66.4836 13.9352 66.0989 14.0504 65.7499 14.2404C64.4257 14.9584 63.4352 16.1663 62.9904 17.6054C62.978 17.8224 62.978 18.04 62.9904 18.257H62.9061C61.7563 18.0883 60.2922 20.8172 61.465 22.9405C61.603 23.1934 61.7793 23.4311 61.9479 23.707C62.4385 24.4735 62.2469 24.7035 63.343 25.6387C63.665 25.9146 63.7186 25.8916 63.9179 26.0603C64.1172 26.2289 64.0406 26.1446 64.1555 26.5738C64.2182 26.8267 64.3304 27.0646 64.4857 27.2738C64.641 27.483 64.8362 27.6594 65.06 27.7926C65.1415 28.5424 65.4612 29.2463 65.9722 29.8009C66.1341 29.982 66.3228 30.1371 66.5318 30.2609C66.5882 30.2926 66.6511 30.311 66.7157 30.3145C66.9457 31.7403 67.2293 33.5953 67.352 34.3848L66.6698 34.7527C65.7772 35.1119 64.9091 35.5293 64.0712 36.0022C64.0055 36.0477 63.9591 36.116 63.9409 36.1938C63.1284 36.6231 62.3619 37.0293 61.9249 37.2899C55.8387 40.9003 38.5534 64.7011 38.3771 65.7895C38.3577 65.8519 38.3577 65.9188 38.3771 65.9812C38.6249 66.3765 38.9267 66.7351 39.274 67.0467C39.167 67.2418 39.0384 67.4244 38.8907 67.5909C37.3576 68.595 35.058 70.0898 33.8239 71.4235C33.7374 71.5007 33.6724 71.5991 33.6355 71.709C33.5986 71.819 33.591 71.9366 33.6134 72.0504C33.6359 72.1642 33.6876 72.2701 33.7635 72.3578C33.8394 72.4455 33.9368 72.5118 34.0462 72.5503C34.2762 72.627 34.3145 72.604 35.8092 71.7838C35.3984 72.1441 35.0625 72.5817 34.8204 73.0716C34.7208 73.4932 35.104 73.7385 35.5869 73.6618C35.8587 73.5906 36.1174 73.4767 36.3535 73.3245C36.2152 73.538 36.1417 73.7869 36.1417 74.0412C36.1417 74.2956 36.2152 74.5445 36.3535 74.758C37.12 75.7238 39.1283 72.6807 40.1861 71.9295C40.6154 72.4737 41.1979 73.7461 42.1254 73.4089C42.9303 73.1099 42.0488 71.3392 42.1254 70.8257C42.4373 70.5262 42.7704 70.2495 43.1219 69.9978C43.7132 70.4363 44.3894 70.747 45.1072 70.91C46.372 70.91 59.5717 57.5877 60.5758 56.5222C60.2156 59.9103 58.3989 74.4513 58.7822 77.2798C58.9585 78.5599 62.0322 78.7439 63.3277 78.8129C62.9368 88.0113 62.6761 101.947 62.6071 102.092C60.5758 106.469 60.0239 107.665 59.3417 108.991C58.0999 111.367 52.8722 120.137 52.282 122.13C52.1977 122.444 52.19 122.566 52.5196 123.149C51.5318 124.188 50.615 125.291 49.7754 126.453C49.3538 127.219 51.1628 134.363 52.4429 136.893C52.7342 137.46 53.2095 138.334 53.8457 138.311C55.762 138.242 55.7544 131.359 55.7007 129.435C55.7004 129.375 55.6786 129.318 55.6394 129.274C55.9867 128.755 56.3656 128.259 56.7738 127.787C57.0175 127.954 57.2738 128.103 57.5404 128.231C57.801 128.346 58.0923 128.147 58.3069 127.971C60.8595 125.962 74.6263 108.807 77.5775 100.713C78.9189 97.018 80.7049 91.9129 81.2108 88.2949C81.5201 86.0073 81.5484 83.6905 81.2952 81.3961C81.2952 81.3636 81.3081 81.3324 81.3311 81.3094C81.3541 81.2864 81.3853 81.2735 81.4178 81.2735C81.4503 81.2735 81.4815 81.2864 81.5045 81.3094C81.5275 81.3324 81.5404 81.3636 81.5404 81.3961C81.9243 83.7036 81.9991 86.052 81.7627 88.3792C81.1955 93.4 77.2325 103.863 75.1169 107.711C76.9413 107.374 80.6513 106.638 82.445 106.101C88.4239 104.285 93.9429 98.8653 94.4258 92.7791C94.5821 89.9118 94.5821 87.0382 94.4258 84.1709C94.3741 80.2127 93.8596 76.2741 92.8928 72.4354C94.5178 71.5539 96.0049 70.519 96.4878 69.5685C97.5226 67.5372 94.7861 55.8476 94.1882 52.5669C97.4613 52.9272 103.034 53.5787 105.633 51.5474C108.607 49.1558 115.03 42.4257 118.717 37.2516ZM55.2868 129.013C53.907 128.177 51.9754 126.192 51.6841 124.636C51.9984 124.238 52.328 123.87 52.6346 123.456C53.6734 125.041 54.9686 126.442 56.4672 127.603C56.0462 128.049 55.6521 128.52 55.2868 129.013ZM116.226 31.8322C116.266 31.8069 116.294 31.7674 116.305 31.7218C116.317 31.6762 116.31 31.6279 116.287 31.587C116.019 31.0887 115.214 29.3334 115.774 29.1341C116.096 29.0114 116.379 29.2107 116.617 29.479C116.98 29.9393 117.262 30.4576 117.452 31.0121C117.467 31.0571 117.493 31.0975 117.528 31.1288C117.564 31.1602 117.607 31.1813 117.653 31.19C117.7 31.1986 117.748 31.1945 117.792 31.178C117.836 31.1615 117.875 31.1333 117.905 31.0964C118.671 30.2455 120.465 28.3062 121.477 27.785C122.243 27.3864 122.427 28.1222 120.549 29.8393C120.118 30.1682 119.703 30.5187 119.307 30.8894C119.286 30.9195 119.274 30.9557 119.274 30.9929C119.274 31.0301 119.286 31.0663 119.307 31.0964C119.307 31.2957 119.468 31.518 119.744 31.311C120.411 30.7261 121.115 30.1858 121.852 29.6936C122.229 29.4262 122.666 29.2575 123.125 29.203C122.895 29.9082 120.756 31.8246 120.572 32.0392C120.514 32.0915 120.478 32.1646 120.473 32.2428C120.468 32.321 120.494 32.398 120.546 32.4573C120.597 32.5166 120.669 32.5533 120.747 32.5597C120.825 32.5661 120.903 32.5416 120.963 32.4915C121.814 31.9396 123.301 30.6518 123.815 30.8434C124.328 31.035 122.803 32.4608 122.42 32.7981C120.22 34.7067 120.787 33.4803 118.242 36.0712C117.134 34.8577 115.862 33.805 114.463 32.9437L116.226 31.8322ZM82.9202 68.4954C82.7899 67.4376 82.6289 66.2955 82.4296 65.1073L82.7592 64.6704C84.2923 62.7004 84.7522 59.5653 84.6066 57.1048C85.4268 60.6998 86.0783 64.2335 86.5766 67.7442L82.9202 68.4954ZM71.5219 42.2494C69.5059 40.7163 66.2635 38.0718 64.3778 36.2628L67.444 34.7297C70.2594 37.3596 72.6695 40.3922 74.5957 43.7288C77.5408 49.1392 79.7256 54.93 81.0882 60.9374L70.1575 45.4765L71.5832 42.5177C71.6021 42.4721 71.6063 42.4218 71.5953 42.3738C71.5844 42.3257 71.5587 42.2822 71.5219 42.2494ZM76.7036 33.5569C76.7496 33.6413 77.2785 34.7681 78.0834 36.738C78.0834 36.8224 77.9378 38.7387 77.8688 39.4132C76.8905 39.0254 75.9677 38.5099 75.1246 37.8802C75.2932 37.2133 76.0521 34.1855 76.1057 33.5033L76.7036 33.5569ZM73.9825 41.7895C74.0361 41.6515 74.0898 41.4675 74.1511 41.2529L74.6647 41.5212C74.9559 41.7128 74.841 41.1303 75.1016 42.8166C75.1016 43.1002 75.1782 43.4145 75.1936 43.7595C74.841 43.1232 74.404 42.441 73.9901 41.7895H73.9825ZM73.5532 41.1456C72.105 39.0916 70.4566 37.1863 68.6321 35.4579L74.4041 37.9645C74.1818 38.4934 73.8598 40.1108 73.5609 41.1456H73.5532ZM79.4478 45.6375C78.6813 43.5448 78.0911 41.2069 77.7998 40.5937C77.8171 40.4024 77.8171 40.21 77.7998 40.0188C77.9107 40.0601 78.0268 40.0859 78.1447 40.0954C78.2187 40.0963 78.2904 40.0704 78.3468 40.0225C78.4031 39.9746 78.4402 39.9079 78.4513 39.8348C78.5127 39.5819 78.6123 38.3018 78.6276 38.0181C80.8575 43.6479 82.719 49.4168 84.2003 55.2881C79.8694 46.0744 80.5363 48.7419 79.4555 45.6375H79.4478ZM85.787 60.2705C84.0393 51.8923 80.9656 41.4445 77.4702 33.7026C78.7538 33.7033 80.0354 33.8058 81.3028 34.0092C81.9544 39.8348 81.4101 39.6355 81.8471 39.8655C82.284 40.0954 84.9132 41.1533 85.3041 41.3142C85.2658 41.9045 85.8177 58.7835 85.7947 60.2705H85.787ZM76.9643 20.0507C77.3638 20.9227 77.5048 21.8911 77.3705 22.8408C77.3081 23.0826 77.1799 23.3022 77 23.4754C76.8202 23.6486 76.5958 23.7684 76.3519 23.8217C76.108 23.8749 75.8541 23.8594 75.6185 23.7769C75.3828 23.6944 75.1747 23.5482 75.0173 23.3544C74.6515 22.5839 74.3763 21.7737 74.1971 20.9398C74.4041 20.6716 76.6117 20.135 76.9643 20.0507ZM66.4168 27.716C66.1368 27.5885 65.8502 27.4759 65.5583 27.3787C65.3624 27.2982 65.1875 27.1738 65.047 27.0152C64.9066 26.8567 64.8043 26.668 64.7481 26.4638C64.6918 26.2595 64.6831 26.0451 64.7226 25.837C64.762 25.6289 64.8486 25.4326 64.9757 25.2631C65.4586 24.8568 65.8956 24.8798 66.2942 25.4854C66.5471 25.9529 66.5394 25.9913 66.6544 26.0373C66.6874 26.0518 66.7231 26.0591 66.7592 26.0587C66.7952 26.0583 66.8307 26.0503 66.8634 26.035C66.8961 26.0198 66.9251 25.9977 66.9485 25.9704C66.972 25.943 66.9893 25.9109 66.9994 25.8763C67.113 25.3965 67.1312 24.8991 67.053 24.4122C66.961 23.8833 66.9457 21.5377 66.961 21.4611C67.1849 21.5791 67.4365 21.6347 67.6892 21.6221C69.0767 21.5684 69.3526 20.8555 69.9045 20.273C70.5407 20.3343 70.671 20.6409 71.3916 20.273C71.729 20.081 72.0385 19.8438 72.3114 19.5677C72.5317 19.6579 72.7445 19.7656 72.9476 19.8897C73.407 20.1106 73.9252 20.1785 74.426 20.0833C74.9268 19.9881 75.3838 19.7349 75.7302 19.3608C75.8145 19.5218 75.8911 19.6827 75.9601 19.8514C75.2557 20.0699 74.5926 20.4041 73.9978 20.8402C73.8675 21.0012 74.0591 21.875 74.1051 22.082C73.463 22.1628 72.8416 22.3629 72.2731 22.6722C72.1581 22.2736 71.9052 21.5301 71.5066 21.3231C71.3867 21.2864 71.2585 21.2864 71.1386 21.3231C70.4488 21.4304 67.9729 22.174 67.6739 22.5802C67.4133 22.8638 68.1568 25.0561 68.3868 25.4164C69.2683 26.7808 71.8515 26.3822 72.3344 24.7878C72.454 24.2527 72.454 23.6979 72.3344 23.1628C72.5567 23.1628 73.2236 22.9252 73.3002 22.9022C73.8292 24.0903 73.9825 24.1593 74.5957 25.4394C74.5114 25.5084 74.3734 25.6233 74.2584 25.7C73.7142 26.0603 73.5992 25.9989 73.6299 26.1522C73.6388 26.1827 73.6585 26.2088 73.6853 26.2257C73.7121 26.2427 73.7442 26.2492 73.7755 26.2442C74.0972 26.1983 74.4116 26.1107 74.7107 25.9836C74.8897 25.9168 75.0373 25.7856 75.1246 25.6157C75.3392 25.1328 74.1511 23.3161 73.6835 22.7718C73.7755 22.7718 73.9901 22.6185 74.1511 22.5342C74.3657 23.3927 74.5114 24.0673 75.3392 24.4046C75.5785 24.4949 75.8335 24.536 76.089 24.5255C76.3445 24.5149 76.5953 24.453 76.8263 24.3432C76.9489 25.6923 76.9259 27.8846 76.282 29.0804C75.9524 29.7013 75.1399 29.9389 74.6187 30.4525C74.4654 30.5981 74.565 30.8051 74.6187 31.0274C75.4695 33.396 75.4849 33.3883 75.4389 33.6949C75.2133 34.9675 74.8982 36.2226 74.496 37.4509C74.3044 37.3666 72.1504 36.2245 67.9345 34.5841C67.8042 33.7179 67.1067 29.0957 66.8844 28.2449C66.8997 27.9459 66.8614 27.8769 66.4168 27.6776V27.716ZM71.7825 24.5885C71.5372 25.424 70.3798 25.7843 69.5519 25.5544C68.7241 25.3244 68.6704 24.9028 68.2795 23.9063C68.0962 23.5256 67.9697 23.1202 67.9039 22.7029C68.1568 22.4269 70.924 21.8597 71.2689 21.806C71.7528 22.6337 71.9343 23.6036 71.7825 24.5502V24.5885ZM41.7882 70.611C41.4969 70.8946 41.8878 71.8221 41.9491 72.627C41.9491 72.696 41.9491 72.9949 41.9032 73.0179C41.4816 73.1559 41.0906 72.5197 40.853 72.1364C40.6154 71.7532 40.3778 71.2319 40.0022 71.3699C39.2356 71.7302 37.4573 74.0911 36.7597 74.3364C36.4071 73.6618 38.4231 71.7378 38.4921 71.6305C38.5217 71.5812 38.5372 71.5248 38.5369 71.4673C38.5366 71.4098 38.5206 71.3536 38.4906 71.3046C38.4605 71.2556 38.4176 71.2157 38.3666 71.1894C38.3155 71.1631 38.2581 71.1513 38.2008 71.1553C38.0628 71.1553 37.9709 71.2779 37.7562 71.4695C37.1034 72.1067 36.3562 72.6393 35.5409 73.0486C36.2801 72.2006 37.0711 71.3993 37.9095 70.6493C37.9509 70.6068 37.9801 70.5538 37.9938 70.496C37.9938 70.496 37.8329 70.0898 37.5186 70.2508C37.074 70.496 34.9124 71.7455 34.2302 72.0674C34.1382 72.0061 34.1919 71.9141 34.2302 71.8221C35.311 70.496 37.6872 68.8863 39.1436 67.8668C39.3146 67.6908 39.4568 67.4891 39.5652 67.2689C40.5739 68.2074 41.6499 69.0708 42.7847 69.8522C42.4351 70.0814 42.1021 70.335 41.7882 70.611ZM59.6253 77.5788C59.4567 77.4715 59.3341 77.3718 59.3111 77.2338C58.8895 74.1064 61.2351 56.3842 61.1967 55.6867C61.1967 55.6458 61.1886 55.6052 61.1727 55.5675C61.1568 55.5298 61.1335 55.4957 61.1042 55.4671C61.0749 55.4385 61.0402 55.4161 61.0021 55.4012C60.9641 55.3862 60.9234 55.379 60.8825 55.3801C60.4915 55.3801 61.1814 55.3801 51.4158 64.7317C50.7719 65.3373 45.8508 70.0438 45.0306 70.3581C43.9038 70.2737 39.6649 66.8934 38.975 65.8279C40.3088 63.1297 56.4826 40.931 62.0782 37.5352C62.5075 37.2746 63.2434 36.8683 64.0482 36.4391C64.3265 36.7016 64.6266 36.94 64.9451 37.152C66.7234 38.8383 69.1993 40.9386 71.0773 42.5177L69.6132 45.4228C69.591 45.4613 69.5793 45.5049 69.5793 45.5493C69.5793 45.5937 69.591 45.6373 69.6132 45.6758C81.5021 62.7311 81.3258 62.5395 81.4025 62.5395C82.1646 66.4806 82.6386 70.472 82.8206 74.482C82.8206 75.5628 82.8206 75.4708 82.8665 75.3942C82.9125 75.3175 82.8665 75.4478 82.8665 75.4478C81.0115 77.4715 62.6531 79.3571 59.6253 77.5788ZM101.999 52.1836C98.5268 52.6665 94.6021 51.946 93.8433 51.9153C93.4216 49.8719 92.5812 47.9379 91.375 46.2353C91.3566 46.2105 91.3295 46.1936 91.2991 46.1879C91.2688 46.1822 91.2374 46.1882 91.2112 46.2047C91.1851 46.2211 91.1661 46.2469 91.1581 46.2767C91.1501 46.3066 91.1537 46.3383 91.1681 46.3657C91.6127 47.2702 93.0997 51.1718 93.4677 52.1223C93.3527 52.4902 96.9324 67.2919 95.9206 69.2849C95.0161 71.0863 89.75 73.3552 87.849 74.0068C87.4731 69.7394 86.8589 65.4964 86.0093 61.2977C86.2699 59.0901 85.9327 45.9671 85.833 41.1149C85.8301 41.0585 85.8113 41.0041 85.7787 40.958C85.7461 40.9119 85.7012 40.8759 85.6491 40.8543L82.2073 39.4056C82.1917 37.584 82.0765 35.7646 81.8624 33.9555C90.4552 35.4426 100.466 40.3561 101.302 40.3637C102.513 40.3637 111.512 33.465 113.374 33.189C114.202 33.0587 117.759 36.1631 118.173 37.0217C114.54 42.0961 108.154 48.7649 105.196 51.0722C104.242 51.7095 103.142 52.0921 101.999 52.1836Z" fill="#292828"/>
<path d="M70.993 23.0556C70.9835 23.0053 70.9641 22.9573 70.936 22.9145C70.9079 22.8716 70.8716 22.8347 70.8293 22.8059C70.7869 22.7771 70.7393 22.7569 70.6891 22.7465C70.639 22.736 70.5873 22.7356 70.5369 22.7452C70.4866 22.7547 70.4386 22.7741 70.3958 22.8022C70.353 22.8303 70.3161 22.8665 70.2872 22.9089C70.2584 22.9513 70.2382 22.9989 70.2278 23.049C70.2174 23.0992 70.2169 23.1509 70.2265 23.2012C70.3798 23.9678 70.4105 24.1441 70.7477 24.1441C70.8115 24.1443 70.8743 24.1286 70.9304 24.0984C70.9866 24.0683 71.0343 24.0246 71.0694 23.9713C71.1044 23.918 71.1255 23.8568 71.1309 23.7933C71.1364 23.7298 71.1258 23.6659 71.1003 23.6075C71.0773 23.4849 71.0083 23.1246 70.993 23.0556ZM73.3386 28.13C73.8368 28.2757 74.3121 28.038 74.2968 27.9154C74.2814 27.7928 74.2968 27.8541 73.6222 27.6011C73.17 27.4325 72.6717 26.8346 72.4954 26.9266C72.3191 27.0186 72.5874 27.5091 72.6487 27.6011C72.8127 27.8499 73.0557 28.0363 73.3386 28.13ZM87.3584 20.848C86.3543 25.0562 85.6184 28.6283 85.4958 29.3412C85.4143 29.6513 85.3987 29.9751 85.4498 30.2916C85.856 31.1578 91.1068 32.8672 91.7737 32.5299C92.4405 32.1926 94.1729 28.291 96.1889 24.2667C97.4239 24.3062 98.6596 24.2163 99.8759 23.9984C101.157 23.7635 102.403 23.3695 103.586 22.8256C106.177 21.6299 109.013 16.5094 109.396 13.9339C109.684 11.1376 109.091 8.32134 107.702 5.87765C101.271 -5.27537 82.4067 0.726563 83.9397 13.1137C84.3775 15.9481 85.5569 18.6164 87.3584 20.848ZM92.0343 29.9774C92.0343 30.1 91.8963 30.0847 91.2677 29.9774C89.9821 29.8158 88.7373 29.4182 87.5961 28.8046C87.0595 28.5133 86.9139 28.452 86.9675 28.3217C87.0212 28.1914 87.1361 28.2373 87.964 28.4673C88.0407 28.4673 90.4169 29.2338 91.0991 29.4715C91.9806 29.8701 92.0343 29.8701 92.0343 29.9774ZM91.8963 17.5059C92.7148 17.5484 93.5305 17.3794 94.2649 17.0153C94.9474 17.346 95.6857 17.5462 96.4418 17.6056C95.1541 20.0048 92.5402 24.8953 91.697 27.5015L88.4469 26.6046C89.2134 24.719 90.9075 20.3038 91.881 17.5059H91.8963ZM91.628 16.8697C91.0558 16.7832 90.5278 16.5115 90.1249 16.0961C89.7219 15.6807 89.4664 15.1447 89.3974 14.5701C89.1828 13.037 90.1639 11.32 91.6433 11.7263C92.5708 11.9792 92.6858 12.7151 92.5249 13.6426C92.3869 14.3172 91.8886 16.0112 91.6127 16.839L91.628 16.8697ZM93.713 15.03C93.7948 14.5284 93.983 14.0502 94.2649 13.6273C94.399 13.3967 94.5951 13.2085 94.8308 13.0838C95.0666 12.9591 95.3326 12.9031 95.5986 12.9221C96.1659 13.0907 96.4112 14.1638 95.9436 14.8384C95.4942 15.4347 94.9348 15.9395 94.2955 16.3255C94.0756 16.1964 93.9004 16.003 93.7935 15.7715C93.6866 15.5399 93.6532 15.2812 93.6976 15.03H93.713ZM86.6686 5.28742C90.1026 1.15582 96.5645 -0.484555 101.233 1.21714C103.769 2.08765 105.902 3.85022 107.235 6.1766C108.556 8.50191 109.121 11.1809 108.852 13.8419C108.499 16.2258 105.786 21.1776 103.402 22.2737C101.222 23.2679 98.8442 23.7504 96.4495 23.6842C96.1889 23.6842 95.9129 23.6842 95.8133 23.8681C95.361 24.788 94.5332 26.5663 93.7206 28.2373C93.1596 27.9664 92.5777 27.7409 91.9806 27.5628C92.8698 25.0179 95.6753 20.0201 97.0091 17.5979C98.1647 17.6969 99.3263 17.4963 100.382 17.0153C100.667 16.8652 100.903 16.6369 101.063 16.3571C101.223 16.0774 101.3 15.7578 101.285 15.4359C101.27 15.114 101.163 14.8032 100.977 14.5398C100.791 14.2765 100.534 14.0716 100.236 13.9492C99.048 13.3667 97.9826 14.7617 97.3617 15.9345C97.193 16.2411 97.0014 16.6014 96.7868 17.0077C96.1668 16.9669 95.5554 16.8405 94.9701 16.6321C95.553 16.2224 96.07 15.7261 96.5032 15.1603C96.7458 14.7938 96.8688 14.361 96.8551 13.9217C96.8414 13.4823 96.6916 13.0581 96.4265 12.7074C96.2183 12.4656 95.929 12.308 95.6129 12.2643C95.2968 12.2205 94.9755 12.2936 94.7095 12.4698C94.1727 12.7997 93.7424 13.2775 93.4705 13.8458C93.1986 14.4142 93.0964 15.0489 93.1764 15.6739C93.2597 16.0267 93.4498 16.3452 93.7206 16.5861C93.2178 16.7943 92.6781 16.8986 92.1339 16.8927C92.4405 15.9882 92.9388 14.3555 93.0691 13.6886C93.1508 13.3084 93.169 12.9173 93.1227 12.5311C93.0634 12.1997 92.9096 11.8924 92.6798 11.6462C92.45 11.4001 92.154 11.2256 91.8273 11.1437C89.9646 10.6148 88.5926 12.6768 88.8608 14.6008C88.9366 15.2903 89.2325 15.937 89.7047 16.4451C90.1769 16.9532 90.8003 17.2956 91.4824 17.4216C90.5012 20.1811 88.9682 24.6347 88.2016 26.5357L86.5153 26.0987C87.5961 20.6717 87.7264 20.802 87.5731 20.733C85.8314 18.5124 84.717 15.8654 84.346 13.0677C84.1653 11.6805 84.2787 10.2708 84.6789 8.93028C85.0791 7.58979 85.757 6.34858 86.6686 5.28742ZM97.308 17.0537C97.8446 16.0802 98.9177 13.9492 99.9602 14.4705C100.169 14.5545 100.35 14.6938 100.485 14.8735C100.62 15.0532 100.704 15.2663 100.727 15.4899C100.711 16.839 98.6111 17.0767 97.2773 17.0537H97.308ZM126.651 20.4341C127.575 19.8908 128.666 19.7053 129.717 19.9128C130.872 19.9335 131.975 20.3953 132.8 21.2034C133.626 22.0116 134.11 23.1049 134.155 24.2591C133.461 23.8561 132.649 23.7045 131.856 23.8298C129.932 23.9984 127.417 25.0409 127.755 26.8959C128.031 28.429 130.054 28.222 131.587 27.8081C133.12 27.3942 134.339 26.643 134.653 25.1636C136.516 26.5203 136.953 28.8966 137.03 31.2191C137.03 31.2517 137.043 31.2829 137.066 31.3059C137.089 31.3289 137.12 31.3418 137.152 31.3418C137.185 31.3418 137.216 31.3289 137.239 31.3059C137.262 31.2829 137.275 31.2517 137.275 31.2191C137.329 28.6206 136.861 26.0757 134.738 24.5963C134.76 23.9308 134.646 23.2678 134.404 22.6474C134.162 22.027 133.797 21.4621 133.331 20.987C132.864 20.5119 132.306 20.1364 131.69 19.8832C131.074 19.6301 130.413 19.5045 129.748 19.5142C128.683 19.3588 127.599 19.5812 126.681 20.1428C126.398 20.2808 126.528 20.4877 126.651 20.4341ZM133.642 25.9301C132.775 27.0646 130.322 27.6548 129.188 27.4632C128.766 27.3942 128.421 27.2179 128.329 26.7809C128.054 25.2479 130.698 24.4124 132.277 24.3587C132.92 24.3094 133.561 24.4738 134.101 24.8263C134.043 25.227 133.885 25.6067 133.642 25.9301ZM123.14 11.4733C123.96 10.4615 123.408 8.69848 121.116 8.69082C120.227 8.69082 119.798 9.59532 119.859 10.4615C119.997 12.5235 122.32 12.4621 123.14 11.4733ZM120.396 10.4232C120.396 9.91726 120.634 9.25805 121.162 9.26571C122.397 9.26571 122.964 9.84061 122.964 10.4768C122.933 11.9256 120.296 12.6768 120.396 10.4232ZM120.082 97.3247C113.344 94.6342 110.216 107.658 104.713 118.849C104.678 119.319 104.693 119.792 104.759 120.259C104.759 121.432 104.889 129.197 105.571 130.079C105.755 130.431 106.529 130.079 106.89 129.856C109.949 127.962 112.833 125.797 115.505 123.387C115.528 123.361 115.545 123.33 115.556 123.297C115.567 123.264 115.57 123.23 115.567 123.195C116.993 121.164 122.335 110.586 123.631 105.281C124.535 101.525 123.638 98.7275 120.082 97.3247ZM122.489 107.06C118.881 106.597 115.394 105.458 112.209 103.702C114.003 100.307 116.218 96.4356 119.875 97.892C123.945 99.5094 123.861 102.859 122.489 107.037V107.06ZM109.733 126.989C109.498 126.792 109.241 126.622 108.967 126.484C107.931 125.957 106.734 125.842 105.617 126.162C105.541 125.249 105.104 119.317 105.104 119.263C110.845 121.363 109.074 120.451 114.762 123.279C114.164 123.847 111.918 125.418 109.733 126.974V126.989ZM113.689 104.806C114.436 105.215 115.204 105.585 115.988 105.918C114.231 108.677 112.679 111.562 111.343 114.549C110.055 117.239 110.101 117.224 108.791 120.16C108.024 119.914 107.258 119.684 106.491 119.454C107.319 117.806 113.206 105.757 113.689 104.791V104.806ZM109.09 120.236C111.581 115.767 114.118 110.21 116.295 106.017C117.061 106.339 117.828 106.6 118.595 106.83C118.188 107.596 117 109.635 116.686 110.225C116.372 110.816 113.221 117.025 112.999 117.5C112.646 118.266 111.68 120.405 111.382 121.087C110.6 120.742 109.848 120.482 109.059 120.221L109.09 120.236ZM111.657 121.187C112.125 120.336 114.049 116.764 114.287 116.304C114.647 115.591 118.664 107.382 118.886 106.906C119.591 107.106 120.335 107.274 120.81 107.366C119.407 111.199 115.367 118.581 113.911 122.222C112.585 121.601 112.286 121.447 111.627 121.172L111.657 121.187ZM112.125 103.925L113.497 104.691C110.732 109.4 108.324 114.309 106.292 119.378L105.142 119.025C109.595 109.536 109.802 108.294 112.094 103.909L112.125 103.925ZM115.283 122.889L114.126 122.337C115.375 119.884 119.284 113.591 121.07 107.42C121.5 107.497 121.921 107.566 122.328 107.619C120.358 112.875 117.993 117.974 115.252 122.873L115.283 122.889ZM91.2677 127.863C91.5733 127.61 91.7917 127.268 91.8921 126.884C91.9925 126.5 91.9698 126.095 91.8273 125.725C91.7623 125.191 91.5174 124.695 91.1328 124.318C90.7483 123.942 90.2471 123.708 89.7118 123.654C89.1764 123.601 88.6388 123.731 88.1874 124.024C87.7359 124.316 87.3976 124.754 87.2281 125.265C86.247 124.629 85.1815 123.954 84.162 123.31C84.9285 122.291 87.1821 122.743 87.4121 123.578C87.4172 123.611 87.435 123.64 87.4616 123.66C87.4882 123.679 87.5214 123.687 87.5539 123.682C87.5864 123.677 87.6156 123.659 87.635 123.632C87.6544 123.606 87.6625 123.573 87.6574 123.54C87.5424 122.206 84.7676 121.424 83.6484 122.996C82.6596 122.39 81.4332 121.654 80.406 121.095C81.2875 120.328 83.2575 120.758 83.4721 121.555C83.4822 121.582 83.5017 121.605 83.527 121.619C83.5523 121.633 83.5819 121.638 83.6105 121.633C83.639 121.627 83.6647 121.612 83.6828 121.589C83.701 121.566 83.7106 121.538 83.7098 121.509C83.6101 120.267 81.0422 119.431 79.8771 120.796C79.3889 120.522 78.8755 120.296 78.344 120.121C78.2469 120.081 78.1403 120.07 78.0369 120.089C77.9335 120.108 77.8378 120.156 77.7615 120.229C75.8222 122.643 69.2836 128.913 66.2635 129.642C66.1876 129.653 66.116 129.684 66.056 129.732C65.996 129.78 65.9497 129.843 65.9217 129.915C65.8937 129.986 65.8851 130.064 65.8966 130.14C65.9082 130.215 65.9396 130.287 65.9876 130.347C66.6508 131.02 67.4102 131.591 68.2412 132.041C67.4746 132.807 66.8767 133.497 66.4322 133.996C66.2022 134.241 66.0796 138.932 66.2788 139.967C66.3085 140.068 66.3739 140.155 66.4628 140.212C67.4286 140.871 79.8694 146.252 81.1419 145.532C81.9927 145.049 92.1493 134.478 92.3102 134.157C92.5555 133.651 92.4712 130.278 92.4559 128.929C92.3945 128.523 91.6357 128.086 91.2677 127.863ZM66.7388 137.989V136.28C69.9199 137.813 77.2019 140.94 79.9614 141.814C80.6666 142.044 80.728 142.013 81.0959 141.814C83.2038 140.465 90.6469 132.079 92.0113 130.799V132.417C87.872 136.563 80.8429 143.83 80.7126 143.416C79.9538 143.37 67.398 138.296 66.7388 137.989ZM91.0761 125.28C91.3517 125.744 91.4998 126.273 91.5054 126.813C91.5027 126.985 91.4605 127.154 91.3821 127.307C91.3037 127.46 91.1911 127.592 91.0531 127.695C90.4092 127.265 89.1905 126.468 87.7494 125.533C88.5389 123.977 90.2943 123.954 91.0455 125.28H91.0761ZM66.5471 130.186C69.8126 129.22 76.0138 123.241 78.0987 120.65C78.6006 120.79 79.0842 120.988 79.5398 121.24C78.7733 122.666 79.5935 124.23 79.8848 124.008C80.0457 123.885 79.7545 123.839 79.7085 123.088C79.6889 122.539 79.8131 121.995 80.0687 121.509C81.1265 122.061 82.3683 122.781 83.4185 123.387C82.7746 124.82 83.5488 126.238 83.8171 126.031C84.0854 125.824 83.6944 125.87 83.6484 125.119C83.6297 124.627 83.7241 124.136 83.9244 123.686C85.0052 124.322 86.109 124.981 87.1208 125.602C86.9649 125.984 86.903 126.398 86.9403 126.809C86.9777 127.22 87.1132 127.615 87.3354 127.963C87.3455 127.976 87.3581 127.987 87.3724 127.995C87.3867 128.004 87.4025 128.009 87.4188 128.011C87.4352 128.013 87.4518 128.012 87.4678 128.008C87.4837 128.003 87.4987 127.996 87.5117 127.986C87.5248 127.976 87.5358 127.963 87.544 127.949C87.5523 127.935 87.5576 127.919 87.5598 127.903C87.5619 127.886 87.5608 127.87 87.5565 127.854C87.5522 127.838 87.5448 127.823 87.5347 127.81C87.397 127.505 87.3289 127.174 87.3356 126.84C87.3422 126.505 87.4233 126.177 87.5731 125.878C89.3591 126.966 90.8002 127.879 91.2448 128.178C91.1604 128.254 83.1655 135.368 80.4443 137.483C78.6583 137.016 69.2836 132.363 66.5471 130.186ZM66.8384 134.455C70.3108 135.989 78.1984 139.545 80.0151 139.89C80.3294 139.952 80.452 139.975 81.0499 139.499C83.6024 137.453 91.904 128.768 91.9806 128.86C91.9843 128.883 91.9843 128.906 91.9806 128.929V130.462C90.2713 131.834 80.7663 141.814 80.613 141.339C79.8464 141.339 67.3903 136.257 66.7541 135.973C66.7388 135.651 66.8078 134.793 66.8384 134.455ZM80.7969 145.018C80.0304 145.455 68.3561 140.71 66.7924 139.745C66.7337 139.256 66.7055 138.765 66.7081 138.273C70.0655 139.929 79.8311 144.052 80.728 144.014C82.0387 143.945 91.3061 133.513 91.9653 132.784C91.9729 133.176 91.9343 133.567 91.8503 133.95C91.72 134.203 81.3028 144.735 80.7969 145.018ZM17.2899 101.809C17.3435 102.629 17.3819 103.342 17.3819 104.009C17.3819 104.111 17.4222 104.208 17.4941 104.28C17.566 104.352 17.6635 104.392 17.7651 104.392C17.8668 104.392 17.9643 104.352 18.0361 104.28C18.108 104.208 18.1484 104.111 18.1484 104.009C18.1484 103.296 18.1101 102.591 18.0564 101.755C18.0493 101.654 18.0021 101.559 17.9252 101.492C17.8483 101.425 17.748 101.392 17.6463 101.399C17.5447 101.406 17.45 101.453 17.3832 101.53C17.3163 101.607 17.2828 101.707 17.2899 101.809ZM134.086 86.44C134.036 86.4429 133.987 86.4558 133.942 86.4779C133.897 86.5 133.857 86.5309 133.824 86.5688C133.791 86.6067 133.766 86.6507 133.751 86.6984C133.735 86.746 133.729 86.7963 133.734 86.8463C133.78 87.5515 133.826 88.3103 133.826 89.0462C133.826 89.1479 133.866 89.2453 133.938 89.3172C134.01 89.3891 134.107 89.4295 134.209 89.4295C134.31 89.4295 134.408 89.3891 134.48 89.3172C134.552 89.2453 134.592 89.1479 134.592 89.0462C134.592 88.2797 134.546 87.5132 134.492 86.7926C134.49 86.7426 134.477 86.6936 134.455 86.6486C134.432 86.6036 134.401 86.5635 134.364 86.5307C134.326 86.4978 134.282 86.4728 134.234 86.4573C134.186 86.4417 134.136 86.4358 134.086 86.44ZM15.3046 99.9003C15.4062 99.9003 15.5037 99.8599 15.5756 99.788C15.6474 99.7161 15.6878 99.6187 15.6878 99.517C15.6878 99.4154 15.6474 99.3179 15.5756 99.246C15.5037 99.1741 15.4062 99.1338 15.3046 99.1338C14.3771 99.1338 13.6029 99.2027 12.8363 99.1874C12.734 99.1874 12.6357 99.2275 12.5626 99.2992C12.4895 99.3709 12.4474 99.4683 12.4454 99.5707C12.4454 99.6723 12.4858 99.7698 12.5577 99.8417C12.6295 99.9136 12.727 99.9539 12.8287 99.9539C13.6182 99.9693 14.4844 99.9386 15.3046 99.9003ZM131.71 84.1711C130.79 84.1711 130.016 84.2247 129.242 84.2324C129.14 84.2324 129.043 84.2728 128.971 84.3447C128.899 84.4165 128.858 84.514 128.858 84.6157C128.858 84.7173 128.899 84.8148 128.971 84.8867C129.043 84.9586 129.14 84.9989 129.242 84.9989C130.07 84.9989 130.928 84.9989 131.756 84.9376C131.858 84.9315 131.953 84.8853 132.02 84.8091C132.088 84.7329 132.122 84.633 132.116 84.5314C132.11 84.4297 132.064 84.3346 131.988 84.2671C131.911 84.1995 131.812 84.165 131.71 84.1711ZM17.0829 95.1631C17.1289 95.8683 17.1749 96.6272 17.1749 97.3631C17.1769 97.4641 17.2179 97.5605 17.2893 97.6319C17.3608 97.7034 17.4571 97.7444 17.5582 97.7463C17.6598 97.7463 17.7573 97.706 17.8292 97.6341C17.9011 97.5622 17.9414 97.4647 17.9414 97.3631C17.9414 96.5965 17.8954 95.83 17.8494 95.1095C17.8423 95.0078 17.7951 94.9132 17.7182 94.8463C17.6413 94.7795 17.541 94.7459 17.4394 94.753C17.3377 94.7602 17.243 94.8074 17.1762 94.8843C17.1094 94.9612 17.0758 95.0615 17.0829 95.1631ZM134.385 82.4004C134.385 81.6339 134.339 80.8673 134.285 80.1468C134.278 80.0451 134.231 79.9505 134.154 79.8836C134.077 79.8168 133.977 79.7832 133.875 79.7904C133.774 79.7975 133.679 79.8447 133.612 79.9216C133.545 79.9985 133.512 80.0988 133.519 80.2005C133.565 80.9057 133.611 81.6645 133.611 82.4004C133.611 82.502 133.651 82.5995 133.723 82.6714C133.795 82.7433 133.893 82.7837 133.994 82.7837C134.097 82.7837 134.195 82.7435 134.268 82.6719C134.341 82.6002 134.383 82.5027 134.385 82.4004ZM22.7399 99.8006C22.7903 99.7987 22.8397 99.7868 22.8855 99.7657C22.9312 99.7446 22.9724 99.7146 23.0065 99.6776C23.0407 99.6406 23.0672 99.5972 23.0846 99.5499C23.102 99.5026 23.1099 99.4524 23.1078 99.402C23.1001 99.3017 23.0547 99.2081 22.9808 99.1398C22.9069 99.0716 22.8099 99.0338 22.7093 99.0341C21.7817 99.0724 21.0076 99.1031 20.2334 99.0878C20.1317 99.0878 20.0342 99.1281 19.9623 99.2C19.8905 99.2719 19.8501 99.3694 19.8501 99.471C19.8501 99.5727 19.8905 99.6702 19.9623 99.742C20.0342 99.8139 20.1317 99.8543 20.2334 99.8543C21.0535 99.8696 21.9121 99.839 22.7399 99.8006ZM139.145 84.0714C138.379 84.1098 137.528 84.1328 136.677 84.1328C136.626 84.1307 136.576 84.1389 136.529 84.1568C136.481 84.1748 136.438 84.2021 136.401 84.2372C136.365 84.2723 136.336 84.3144 136.316 84.361C136.296 84.4076 136.286 84.4577 136.286 84.5084C136.286 84.6107 136.326 84.709 136.398 84.7821C136.47 84.8552 136.567 84.8973 136.669 84.8993C137.543 84.8993 138.248 84.8993 139.176 84.838C139.226 84.836 139.276 84.8241 139.321 84.803C139.367 84.7819 139.408 84.752 139.443 84.715C139.477 84.6779 139.503 84.6345 139.521 84.5872C139.538 84.54 139.546 84.4897 139.544 84.4394C139.534 84.3397 139.488 84.247 139.415 84.1791C139.341 84.1112 139.245 84.0729 139.145 84.0714ZM5.12504 77.0883C5.22469 77.165 26.8408 73.9609 27.7683 73.3937C27.8197 73.3562 27.8607 73.3063 27.8875 73.2486C27.9143 73.191 27.9261 73.1275 27.9217 73.0641C27.9217 72.0752 26.6262 62.7925 26.0053 60.4776C25.9287 60.194 25.852 59.9104 25.6757 59.8107C24.5029 59.1055 3.83727 62.9995 2.60315 63.7967C2.56971 63.8165 2.54081 63.8431 2.51835 63.8748C2.4959 63.9065 2.48039 63.9426 2.47284 63.9807C2.21222 64.9082 4.45816 76.6284 5.12504 77.0883ZM2.94043 64.1646C4.41216 63.4978 23.1692 60.0637 25.3155 60.332C25.8367 61.6734 27.2318 71.5003 27.3238 72.9414C26.2583 73.2557 5.41632 76.8354 5.33967 76.8507C5.26301 76.866 5.25535 76.958 5.09438 76.4751C4.41983 74.4515 2.9021 65.897 2.94043 64.1646Z" fill="#292828"/>
<path d="M29.4547 74.0755C29.4965 73.9981 29.5151 73.9103 29.5084 73.8226C29.5084 72.6038 27.7607 59.0745 27.1398 57.9937C27.0912 57.914 27.0223 57.8486 26.9401 57.8042C26.858 57.7598 26.7656 57.7379 26.6722 57.7408C24.1044 57.4265 2.44221 61.6577 1.01646 62.6466C0.817164 62.7845 0.847825 63.1295 0.87082 63.4974C0.993465 65.5134 3.17041 78.7744 3.93694 78.6977C4.02126 78.6977 3.9906 78.6364 3.7913 79.0426C2.59551 81.5032 0.326584 89.3831 0.372576 90.9699C0.372576 91.6367 0.525882 92.5029 1.1851 92.4569C5.91459 91.8744 29.1021 88.195 35.771 86.8229C36.0316 86.7693 36.2002 86.5316 36.1926 86.1407C36.1139 85.4894 35.9164 84.8581 35.61 84.278C34.6748 82.5227 30.7962 75.5703 29.4547 74.0755ZM3.98293 78.4601C3.38504 77.6935 1.1851 64.4862 1.35373 63.0222C3.0401 62.1483 24.411 58.0167 26.6492 58.354C27.2625 60.0403 28.8492 72.2205 28.9488 73.6846C26.2353 74.6198 7.44765 77.6552 3.98293 78.4601ZM4.32021 78.69C4.96409 78.5291 26.8945 74.8574 28.9028 74.3285C29.999 75.348 34.9508 84.1554 35.2727 84.9066C30.8728 85.6731 4.77246 90.0347 0.932143 90.6173C0.9858 88.2947 3.36971 80.1771 4.32021 78.69Z" fill="#292828"/>
<path d="M7.20237 86.6389C7.86925 86.5393 22.0194 84.8376 27.1322 83.4502C27.1637 83.442 27.1907 83.4217 27.2072 83.3937C27.2237 83.3656 27.2284 83.3322 27.2203 83.3007C27.2122 83.2692 27.1919 83.2422 27.1638 83.2257C27.1358 83.2091 27.1024 83.2044 27.0708 83.2125C26.0667 83.4195 13.8175 85.0522 7.18704 86.4013C7.16872 86.398 7.14989 86.3989 7.13198 86.404C7.11407 86.409 7.09755 86.4181 7.08366 86.4305C7.06978 86.4429 7.05889 86.4583 7.05184 86.4755C7.04478 86.4927 7.04174 86.5113 7.04293 86.5299C7.04413 86.5485 7.04954 86.5665 7.05875 86.5827C7.06796 86.5989 7.08073 86.6127 7.0961 86.6233C7.11146 86.6338 7.12901 86.6406 7.14742 86.6433C7.16584 86.6461 7.18463 86.6445 7.20237 86.6389ZM17.5429 33.3037C17.2565 33.9504 17.0158 34.6164 16.8223 35.2967C16.8109 35.4059 16.841 35.5153 16.9066 35.6033C17.6808 36.7684 25.6144 45.7139 27.6841 46.971C27.9677 47.1473 28.305 47.2699 28.5119 47.017C30.0154 45.1462 31.9774 43.6964 34.2072 42.8087C36.0221 42.1666 37.9249 41.8073 39.8489 41.7432C41.382 41.6053 41.6503 41.4519 42.2405 40.4478C42.9367 39.1263 43.8605 37.9379 44.9693 36.9371C46.3832 35.7008 47.9525 34.6546 49.6375 33.825C49.7133 33.782 49.7726 33.7149 49.806 33.6343C49.8393 33.5538 49.8448 33.4644 49.8215 33.3804C49.5623 32.721 49.2197 32.0976 48.802 31.5254C49.0779 31.4334 49.3845 31.3491 49.3845 31.0731C49.3845 30.3066 42.7004 20.633 40.8454 18.8086C40.6538 18.617 40.3778 18.364 40.1249 18.3794C36.2922 18.594 32.5592 22.212 30.3976 25.3701C27.9217 25.2782 26.3196 25.0559 23.4988 26.244C21.5074 27.0893 19.712 28.3367 18.2251 29.908C17.9951 30.1456 16.4314 31.8013 16.4084 31.9316C16.3854 32.0619 16.4314 32.0619 17.5429 33.3037ZM48.2041 33.0891C45.0077 33.6333 42.9687 36.2932 41.4663 39.183C40.7994 40.4708 40.8607 40.5321 40.1555 40.5168C38.9224 40.4469 37.6854 40.4931 36.4608 40.6548C35.5627 40.789 34.6796 41.0098 33.824 41.314C31.877 42.0038 29.6464 44.2115 28.4583 45.8518C28.433 45.8856 28.4009 45.9136 28.3641 45.9341C28.3273 45.9545 28.2865 45.967 28.2446 45.9706C28.2026 45.9742 28.1603 45.9689 28.1205 45.9551C28.0807 45.9412 28.0443 45.9191 28.0137 45.8902C25.5224 43.3223 21.1149 38.8151 18.8996 36.2242C18.7923 36.1092 18.9763 35.9406 19.0836 36.0632C20.517 37.5963 24.2193 41.268 28.19 45.2616C29.5314 43.5522 31.601 41.4826 33.6477 40.7621C34.7637 40.364 35.925 40.1065 37.1047 39.9955C38.2095 39.9116 39.319 39.9116 40.4238 39.9955C40.8761 39.4743 43.1143 33.5567 48.1888 32.8975C48.2036 32.9084 48.2158 32.9225 48.2245 32.9387C48.2331 32.955 48.238 32.973 48.2387 32.9914C48.2395 33.0098 48.2361 33.0282 48.2287 33.0451C48.2214 33.062 48.2104 33.077 48.1964 33.0891H48.2041ZM40.1172 19.0003C41.6503 20.0734 47.8898 29.3101 48.7023 30.9275C47.2924 31.3742 45.9313 31.9623 44.6397 32.6828C43.4166 33.296 42.3457 34.1742 41.505 35.2536C40.6643 36.333 40.0749 37.5864 39.7799 38.9224C37.0281 34.4459 33.1878 29.5171 30.6352 25.8914C30.7885 25.7917 35.0964 19.2992 40.1172 19.0003ZM23.6674 26.6656C26.4653 25.5388 28.0137 25.7994 30.3286 25.899C32.6282 29.8237 36.7598 35.358 39.481 38.9837C36.9694 38.3894 34.3265 38.7529 32.0686 40.0032C30.7119 40.7697 29.0562 42.6094 28.0367 43.7515C26.5649 42.5711 18.0718 33.526 16.7073 31.993C18.8076 29.6167 20.747 27.8307 23.6674 26.6349V26.6656ZM9.63994 46.1584C9.45048 46.0255 9.22651 45.9504 8.9952 45.9422C8.7639 45.934 8.53519 45.9932 8.33683 46.1125C8.19238 46.1769 8.06204 46.2691 7.95324 46.3839C7.84443 46.4987 7.75931 46.6338 7.70272 46.7815C7.64614 46.9292 7.61919 47.0866 7.62344 47.2447C7.62768 47.4028 7.66302 47.5586 7.72744 47.703C7.79186 47.8475 7.88411 47.9778 7.99891 48.0866C8.11371 48.1954 8.24881 48.2805 8.39651 48.3371C8.5442 48.3937 8.7016 48.4206 8.85971 48.4164C9.01782 48.4122 9.17354 48.3768 9.31799 48.3124C9.54875 48.2619 9.75873 48.1425 9.92007 47.97C10.0814 47.7975 10.1865 47.58 10.2214 47.3464C10.2564 47.1128 10.2194 46.8741 10.1156 46.6619C10.0117 46.4498 9.84586 46.2742 9.63994 46.1584ZM9.13403 47.6915C8.59745 47.8601 8.27551 47.6915 8.1452 47.4309C7.89991 46.8867 8.20652 46.0511 9.00371 46.2964C9.56328 46.5034 10.0155 47.4462 9.13403 47.7298V47.6915ZM48.618 11.082C48.8403 11.5343 49.8751 11.3656 50.3274 11.22C50.565 11.1433 50.7183 11.059 50.7413 10.829C50.8103 10.2542 50.8869 5.2717 50.6263 4.78879C50.5994 4.73815 50.5581 4.69659 50.5077 4.66932C50.4572 4.64204 50.3998 4.63027 50.3427 4.63548C49.5249 4.63321 48.7112 4.75203 47.9281 4.98808C47.6139 5.17972 48.3421 10.5761 48.618 11.082ZM48.0891 5.17205C48.7972 5.07075 49.5133 5.03739 50.2277 5.0724C50.2737 5.63964 50.1511 10.5531 50.1434 10.6297C49.8196 10.7458 49.4738 10.7877 49.1316 10.7524C49.0779 10.5761 48.986 10.1008 48.871 9.50295C48.5332 8.07431 48.2722 6.62861 48.0891 5.17205ZM8.8964 39.6889C8.96995 39.7266 9.05139 39.7462 9.13403 39.7462C9.21666 39.7462 9.2981 39.7266 9.37165 39.6889C9.66779 39.5063 9.90266 39.2394 10.0462 38.9224C10.0657 38.8717 10.0717 38.8168 10.0636 38.763C10.0556 38.7093 10.0337 38.6586 10.0002 38.6158C9.63227 38.1789 5.61565 33.526 5.12507 33.8173C4.52274 34.2072 3.95127 34.6429 3.41571 35.1204C3.39412 35.1397 3.37683 35.1633 3.36495 35.1897C3.35306 35.2161 3.34685 35.2448 3.34672 35.2737C3.33139 35.6723 7.7926 39.2443 8.8964 39.6889ZM5.21705 34.0166C5.77662 34.4229 7.66229 36.7531 9.40998 38.8151C9.33479 38.9335 9.2417 39.0395 9.13403 39.1294C7.29655 37.9533 5.54216 36.6523 3.88329 35.2354C4.29914 34.7988 4.7448 34.3915 5.21705 34.0166ZM17.2592 17.1069C17.4279 14.1328 19.1602 12.753 20.9693 12.4004C20.4557 14.2861 20.54 16.739 22.4027 17.0533C23.2918 17.1989 23.7288 16.739 24.3727 16.2024C27.1245 13.9028 24.9016 11.6032 21.7971 11.7642C22.9546 8.59078 25.6298 6.00757 29.1788 5.92325C29.2113 5.92325 29.2425 5.91033 29.2655 5.88733C29.2885 5.86433 29.3014 5.83313 29.3014 5.80061C29.3014 5.76808 29.2885 5.73688 29.2655 5.71388C29.2425 5.69088 29.2113 5.67796 29.1788 5.67796C25.3461 5.60131 22.3337 8.36082 21.1456 11.8102C19.0989 12.1628 17.0676 13.6959 17.014 17.0609C17.0109 17.077 17.0111 17.0936 17.0145 17.1096C17.0179 17.1257 17.0244 17.1409 17.0336 17.1544C17.0429 17.1679 17.0547 17.1795 17.0684 17.1884C17.0821 17.1974 17.0975 17.2036 17.1136 17.2066C17.1297 17.2096 17.1463 17.2094 17.1623 17.206C17.1783 17.2027 17.1935 17.1962 17.2071 17.1869C17.2206 17.1777 17.2322 17.1658 17.2411 17.1521C17.2501 17.1384 17.2562 17.123 17.2592 17.1069ZM21.6208 12.3085C22.7629 12.2318 24.4646 12.5844 24.9322 13.6192C25.2005 14.2094 24.9322 14.9377 23.9817 15.7348C23.7237 15.9934 23.4293 16.2129 23.1079 16.3864C21.9581 16.877 20.6856 15.4589 21.6208 12.3085ZM23.8131 120.719C23.0725 120.521 22.2997 120.472 21.5403 120.577C20.7808 120.682 20.0499 120.937 19.3906 121.329C18.7314 121.72 18.1571 122.239 17.7016 122.856C17.246 123.473 16.9184 124.174 16.738 124.919C16.3975 126.468 16.6859 128.088 17.5398 129.423C18.3937 130.758 19.7431 131.7 21.2912 132.041C22.8393 132.381 24.4593 132.093 25.7947 131.239C27.1302 130.385 28.0717 129.035 28.4123 127.487C28.5577 126.741 28.554 125.973 28.4012 125.227C28.2484 124.482 27.9496 123.775 27.5221 123.145C27.0946 122.516 26.5467 121.978 25.9101 121.561C25.2736 121.145 24.5608 120.859 23.8131 120.719ZM26.1817 126.966C25.8741 128.193 25.1378 129.269 24.1059 130C23.074 130.731 21.8146 131.069 20.5553 130.952C19.3994 130.5 18.4398 129.656 17.8453 128.566C17.2508 127.477 17.0596 126.213 17.3052 124.996C17.5921 123.74 18.3215 122.628 19.3602 121.866C20.399 121.103 21.6775 120.739 22.9622 120.842C24.1296 121.324 25.0894 122.202 25.6727 123.323C26.256 124.443 26.4253 125.733 26.151 126.966H26.1817Z" fill="#292828"/>
<path d="M34.0233 122.903C33.3559 122.673 32.6408 122.618 31.946 122.742C31.658 122.082 31.3035 121.453 30.8881 120.864C31.3864 120.412 32.7508 119.155 32.4212 118.565C31.2482 117.162 29.8555 115.958 28.2973 115C27.6466 114.636 26.9301 114.404 26.1893 114.318C25.6987 114.387 24.5336 116.296 24.273 116.725C24.1043 116.725 23.5065 116.533 23.4605 116.51C23.4605 115.959 23.2995 113.966 22.8012 113.736C22.2441 113.531 21.6655 113.389 21.0766 113.314C20.5323 113.23 15.6342 114.127 15.2739 114.786C15.0363 115.23 15.5882 116.909 15.7492 117.377C15.3358 117.604 14.9388 117.86 14.561 118.143C13.7945 118.687 14.0015 118.664 13.8635 118.603C13.6967 118.524 13.5181 118.472 13.3346 118.45C12.7223 118.091 12.0043 117.955 11.3033 118.067C10.5981 118.297 8.93471 122.083 8.66642 123.057C8.57862 123.302 8.55488 123.566 8.59743 123.823C8.7814 124.329 10.0078 124.735 10.5214 124.896C10.3796 125.883 10.3796 126.884 10.5214 127.87C9.84688 128.054 8.44413 128.468 8.52078 129.158C8.59743 129.848 10.3911 134.401 11.1346 134.762C11.542 134.989 11.9924 135.13 12.457 135.173C12.9217 135.217 13.3903 135.163 13.8328 135.015C14.0821 134.89 14.3228 134.749 14.5534 134.593C14.86 134.823 15.1819 135.03 15.5115 135.229C15.2739 135.819 14.745 137.138 14.9136 137.736C14.998 138.05 15.2509 138.15 15.6035 138.28C16.577 138.633 21.8201 139.89 22.6173 139.752C22.9162 139.706 23.0772 139.391 23.1692 139.092C23.3395 138.412 23.4397 137.716 23.4681 137.015C23.8618 136.976 24.2532 136.917 24.6409 136.839C24.8777 137.256 25.1806 137.631 25.5378 137.95C25.9287 138.226 26.2583 138.088 26.7029 137.805C26.9175 138.081 27.2395 138.464 27.5844 138.502C28.4506 138.602 32.0303 135.229 32.3982 134.539C32.7048 133.964 31.5857 132.937 31.0874 132.485C31.6264 131.674 32.0496 130.792 32.3446 129.863C32.8974 129.947 33.4569 129.978 34.0156 129.955C34.2685 129.955 34.5598 129.863 34.6671 129.626C35.1347 128.56 34.9967 124.521 34.6671 123.494C34.6211 123.195 34.2762 122.995 34.0233 122.903ZM34.2072 123.609C34.4678 124.605 34.5522 128.369 34.1689 129.342C33.5061 129.408 32.8374 129.377 32.1836 129.25C32.1138 129.238 32.042 129.253 31.9824 129.291C31.9229 129.33 31.8798 129.389 31.8616 129.457C31.5564 130.494 31.0824 131.472 30.4589 132.355C30.4145 132.413 30.3944 132.487 30.403 132.559C30.4116 132.632 30.4481 132.699 30.5049 132.746C31.0427 133.172 31.4996 133.691 31.854 134.279C31.4707 134.907 28.4736 137.651 27.6457 137.881C27.5231 137.881 27.1858 137.421 27.1015 137.299C26.8183 136.873 26.5623 136.43 26.335 135.973C26.3018 135.906 26.2448 135.854 26.1754 135.827C26.1059 135.8 26.0288 135.8 25.9593 135.827C23.7364 136.663 22.8932 136.172 22.8932 136.724C22.8942 137.55 22.7596 138.371 22.4946 139.154C20.6932 138.958 18.9193 138.562 17.2056 137.973C17.2883 137.155 17.5168 136.358 17.8801 135.62C18.1101 135.107 17.1902 135.252 15.4732 133.504C15.418 133.453 15.3454 133.425 15.2701 133.425C15.1948 133.425 15.1222 133.453 15.067 133.504C14.3004 134.133 13.3039 134.746 13.1046 134.647C12.7137 134.455 10.9124 130.369 10.805 129.542C11.3502 129.162 11.9692 128.9 12.6217 128.775C12.6913 128.755 12.7514 128.711 12.7909 128.65C12.8303 128.59 12.8465 128.517 12.8363 128.445C12.6485 127.36 12.6485 126.25 12.8363 125.165C12.8481 125.098 12.834 125.029 12.797 124.972C12.7601 124.915 12.7029 124.874 12.637 124.858C12.0592 124.707 11.5028 124.483 10.9813 124.191C10.8127 124.068 10.828 124.076 10.8434 123.946C11.3395 122.156 12.1352 120.464 13.1966 118.94C13.6105 118.825 14.7297 119.646 15.1129 119.937C15.153 119.976 15.2066 119.997 15.2624 119.997C15.3182 119.997 15.3718 119.976 15.4119 119.937C15.7641 119.572 16.1433 119.233 16.5464 118.925C17.7115 118.044 18.0258 118.159 17.9261 117.852C17.5737 117.083 17.3758 116.252 17.3435 115.407C17.4623 115.308 17.5972 115.23 17.7421 115.177C18.4578 114.894 19.193 114.663 19.9421 114.487C20.85 114.234 21.7832 114.082 22.7246 114.035C22.8856 114.104 23.0312 114.801 23.0695 115.016C23.3531 116.549 23.1615 116.863 23.3838 116.886C25.5684 117.101 26.013 117.706 26.1663 117.438C26.5914 116.695 27.0868 115.994 27.6457 115.345C27.8067 115.184 27.799 115.108 28.2819 115.384C29.7246 116.326 31.0167 117.482 32.1146 118.81C32.2296 119.009 31.2331 120.067 30.5049 120.688C30.2519 120.91 30.6122 121.01 31.2714 122.267C31.9306 123.524 31.7773 123.877 32.1299 123.8C32.8097 123.637 33.5092 123.573 34.2072 123.609ZM140.594 59.5573C138.987 58.9009 137.302 58.4552 135.581 58.2312C134.324 58.0319 132.844 57.8326 131.595 57.6716C132.798 55.9699 136.363 51.662 136.961 50.6119C137.129 50.3282 136.807 49.9296 136.57 49.692C135.236 48.2663 132.66 47.7297 130.683 47.4231C129.548 47.2391 124.811 46.6566 124.006 47.0398C123.04 47.4997 115.896 58.2312 115.682 59.8639C115.682 60.1398 115.774 60.2471 116.042 60.3468C117.169 60.7607 122.251 61.4046 123.385 61.6729C121.852 64.3557 115.038 73.4238 114.371 74.7039C114.21 75.0258 114.31 75.2175 114.501 75.2788C115.191 75.5526 115.901 75.773 116.625 75.938C116.901 76.0223 117.506 75.6467 118.388 75.1102C122.343 72.7339 139.314 61.5273 140.617 60.0785C140.653 60.0445 140.681 60.0032 140.7 59.9573C140.718 59.9114 140.727 59.8621 140.725 59.8126C140.722 59.7632 140.71 59.7148 140.687 59.6707C140.665 59.6267 140.633 59.588 140.594 59.5573ZM124.121 68.7556C117.606 73.0559 115.406 74.313 115.329 74.3666C116.379 72.7646 122.902 63.8268 124.022 61.6882C124.041 61.6469 124.051 61.6018 124.051 61.5561C124.051 61.5104 124.04 61.4654 124.02 61.4242C124.001 61.3831 123.972 61.3469 123.936 61.3183C123.901 61.2897 123.859 61.2694 123.815 61.259C123.048 60.983 117.468 60.3851 116.149 59.9175C116.318 58.4918 123.278 47.7144 124.121 47.2851C124.964 46.8559 133.143 47.8293 134.676 48.9255C133.872 50.4969 129.426 56.0006 128.705 57.2807C128.559 57.5413 128.513 57.7942 128.797 57.8632C129.081 57.9322 136.286 58.7754 137.857 59.289C135.941 60.891 126.268 67.3146 124.121 68.725V68.7556ZM74.9483 21.8899C74.9483 21.9589 74.9943 22.0433 75.1093 22.4878C75.1395 22.5843 75.2058 22.6653 75.2944 22.7139C75.383 22.7625 75.487 22.7749 75.5845 22.7485C75.6821 22.72 75.7644 22.6539 75.8133 22.5648C75.8622 22.4757 75.8736 22.3708 75.8452 22.2732C75.7685 21.9743 75.6995 21.7213 75.6535 21.5987C75.6089 21.5145 75.5345 21.45 75.4448 21.4177C75.3552 21.3854 75.2567 21.3877 75.1686 21.424C75.0806 21.4604 75.0092 21.5283 74.9685 21.6144C74.9278 21.7006 74.9206 21.7988 74.9483 21.8899Z" fill="#292828"/>
</svg>
