<svg width="41" height="40" viewBox="0 0 41 40" fill="none" xmlns="http://www.w3.org/2000/svg">
<path d="M18 18.3334H28.8333" stroke="#292828" stroke-width="3" stroke-linecap="round"/>
<path d="M12.1667 18.3334H13" stroke="#292828" stroke-width="3" stroke-linecap="round"/>
<path d="M12.1667 12.5H13" stroke="#292828" stroke-width="3" stroke-linecap="round"/>
<path d="M12.1667 24.1666H13" stroke="#292828" stroke-width="3" stroke-linecap="round"/>
<path d="M28.8333 24.1666H27.1667M18 24.1666H23" stroke="#292828" stroke-width="3" stroke-linecap="round"/>
<path d="M28.8333 12.5H23.8333M18 12.5H19.6667" stroke="#292828" stroke-width="3" stroke-linecap="round"/>
<path d="M35.5 11.6667V10.6168C35.5 8.62846 35.5 7.63429 35.2367 6.83247C34.7375 5.31202 33.578 4.11831 32.101 3.60439C31.3222 3.33337 30.3565 3.33337 28.425 3.33337H12.575C10.6436 3.33337 9.67785 3.33337 8.89898 3.60439C7.42203 4.11831 6.26247 5.31202 5.76325 6.83247C5.5 7.63429 5.5 8.62846 5.5 10.6168V25M35.5 18.3334V33.957C35.5 35.3874 33.8583 36.1464 32.8198 35.196C32.2097 34.6377 31.2903 34.6377 30.6802 35.196L29.875 35.9329C28.8057 36.9114 27.1943 36.9114 26.125 35.9329C25.0557 34.9544 23.4443 34.9544 22.375 35.9329C21.3057 36.9114 19.6943 36.9114 18.625 35.9329C17.5557 34.9544 15.9443 34.9544 14.875 35.9329C13.8057 36.9114 12.1943 36.9114 11.125 35.9329L10.3198 35.196C9.70972 34.6377 8.79028 34.6377 8.18017 35.196C7.14167 36.1464 5.5 35.3874 5.5 33.957V31.6667" stroke="#292828" stroke-width="3" stroke-linecap="round"/>
</svg>
