<svg width="202" height="117" viewBox="0 0 202 117" fill="none" xmlns="http://www.w3.org/2000/svg">
<g filter="url(#filter0_d_83_9)">
<mask id="path-1-outside-1_83_9" maskUnits="userSpaceOnUse" x="0" y="0" width="194" height="109" fill="black">
<rect fill="white" width="194" height="109"/>
<path d="M58.0572 48.768C52.6492 48.768 48.3772 47.088 45.2412 43.728C42.1052 40.336 40.5372 36.144 40.5372 31.152C40.5372 26.064 42.1372 21.872 45.3372 18.576C48.5372 15.28 52.6972 13.632 57.8172 13.632C62.7452 13.632 66.7132 15.088 69.7212 18C72.7292 20.88 73.8492 24.432 73.0812 28.656H64.6812C65.1612 26.16 64.7292 24.16 63.3852 22.656C62.0732 21.12 60.2492 20.352 57.9132 20.352C55.1612 20.352 52.9692 21.392 51.3372 23.472C49.7372 25.552 48.9372 28.112 48.9372 31.152C48.9372 34.32 49.7692 36.928 51.4332 38.976C53.1292 41.024 55.3372 42.048 58.0572 42.048C60.1692 42.048 61.9292 41.44 63.3372 40.224C64.7452 38.976 65.5932 37.424 65.8812 35.568H74.4732C73.8972 39.664 72.1212 42.896 69.1452 45.264C66.2012 47.6 62.5052 48.768 58.0572 48.768ZM99.1673 45.264C96.7673 47.6 93.6153 48.768 89.7113 48.768C85.8073 48.768 82.6553 47.6 80.2553 45.264C77.8553 42.928 76.6553 39.84 76.6553 36C76.6553 32.16 77.8553 29.072 80.2553 26.736C82.6553 24.4 85.8073 23.232 89.7113 23.232C93.6153 23.232 96.7673 24.4 99.1673 26.736C101.567 29.072 102.767 32.16 102.767 36C102.767 39.84 101.567 42.928 99.1673 45.264ZM85.9673 40.56C86.9273 41.712 88.1753 42.288 89.7113 42.288C91.2473 42.288 92.4793 41.712 93.4073 40.56C94.3673 39.408 94.8473 37.888 94.8473 36C94.8473 34.08 94.3673 32.56 93.4073 31.44C92.4793 30.288 91.2473 29.712 89.7113 29.712C88.1753 29.712 86.9273 30.288 85.9673 31.44C85.0393 32.56 84.5753 34.08 84.5753 36C84.5753 37.888 85.0393 39.408 85.9673 40.56ZM120.191 23.232C122.303 23.232 123.999 23.952 125.279 25.392C126.591 26.832 127.247 28.784 127.247 31.248C127.247 33.424 126.767 35.504 125.807 37.488H117.887C118.911 35.6 119.423 34.016 119.423 32.736C119.423 31.808 119.199 31.072 118.751 30.528C118.335 29.984 117.759 29.712 117.023 29.712C115.935 29.712 115.039 30.304 114.335 31.488C113.663 32.64 113.327 34.176 113.327 36.096V48H105.647V24H113.327V27.936C114.575 24.8 116.863 23.232 120.191 23.232ZM146.111 40.032H154.415C153.679 42.72 152.191 44.848 149.951 46.416C147.711 47.984 144.975 48.768 141.743 48.768C137.775 48.768 134.607 47.6 132.239 45.264C129.871 42.928 128.687 39.84 128.687 36C128.687 32.16 129.871 29.072 132.239 26.736C134.639 24.4 137.791 23.232 141.695 23.232C143.903 23.232 145.903 23.632 147.695 24.432C149.487 25.2 150.895 26.256 151.919 27.6C152.943 28.912 153.615 30.448 153.935 32.208C154.255 33.936 154.047 35.76 153.311 37.68H136.751C137.263 40.752 138.991 42.288 141.935 42.288C143.983 42.288 145.375 41.536 146.111 40.032ZM141.695 29.472C139.103 29.472 137.487 30.768 136.847 33.36H145.775C145.903 32.176 145.599 31.232 144.863 30.528C144.159 29.824 143.103 29.472 141.695 29.472ZM31.4791 86.768C26.0711 86.768 21.7991 85.088 18.6631 81.728C15.5271 78.336 13.9591 74.144 13.9591 69.152C13.9591 64.064 15.5591 59.872 18.7591 56.576C21.9591 53.28 26.1191 51.632 31.2391 51.632C36.1671 51.632 40.1351 53.088 43.1431 56C46.1511 58.88 47.2711 62.432 46.5031 66.656H38.1031C38.5831 64.16 38.1511 62.16 36.8071 60.656C35.4951 59.12 33.6711 58.352 31.3351 58.352C28.5831 58.352 26.3911 59.392 24.7591 61.472C23.1591 63.552 22.3591 66.112 22.3591 69.152C22.3591 72.32 23.1911 74.928 24.8551 76.976C26.5511 79.024 28.7591 80.048 31.4791 80.048C33.5911 80.048 35.3511 79.44 36.7591 78.224C38.1671 76.976 39.0151 75.424 39.3031 73.568H47.8951C47.3191 77.664 45.5431 80.896 42.5671 83.264C39.6231 85.6 35.9271 86.768 31.4791 86.768ZM62.2212 61.232C65.9972 61.232 68.8772 62.224 70.8612 64.208C72.8452 66.192 73.8372 68.944 73.8372 72.464V86H67.1172V81.92C65.2932 85.152 62.3972 86.768 58.4292 86.768C55.8052 86.768 53.7572 86.096 52.2852 84.752C50.8132 83.376 50.0772 81.648 50.0772 79.568C50.0772 77.136 51.0692 75.232 53.0532 73.856C55.0692 72.48 57.8052 71.792 61.2612 71.792C62.7972 71.792 64.4292 71.936 66.1572 72.224C66.0932 69.152 64.7492 67.616 62.1252 67.616C61.1332 67.616 60.3812 67.84 59.8692 68.288C59.3572 68.704 59.1652 69.296 59.2932 70.064H51.7572C51.1492 67.344 51.8852 65.2 53.9652 63.632C56.0452 62.032 58.7972 61.232 62.2212 61.232ZM60.3972 81.152C63.0212 81.152 64.9892 79.872 66.3012 77.312C65.0212 76.928 63.5812 76.736 61.9812 76.736C59.1012 76.736 57.6612 77.52 57.6612 79.088C57.6612 80.464 58.5732 81.152 60.3972 81.152ZM93.1238 61.232C96.3558 61.232 99.0118 62.416 101.092 64.784C103.204 67.12 104.26 70.192 104.26 74C104.26 77.808 103.22 80.896 101.14 83.264C99.0598 85.632 96.4038 86.816 93.1718 86.816C89.6518 86.816 86.9638 85.408 85.1078 82.592V95.6H77.4278V62H85.1078V65.36C86.9958 62.608 89.6678 61.232 93.1238 61.232ZM86.6438 78.608C87.6678 79.76 89.0278 80.336 90.7238 80.336C92.4198 80.336 93.7798 79.76 94.8038 78.608C95.8278 77.424 96.3398 75.888 96.3398 74C96.3398 72.112 95.8278 70.592 94.8038 69.44C93.7798 68.288 92.4198 67.712 90.7238 67.712C89.0278 67.712 87.6678 68.288 86.6438 69.44C85.6198 70.592 85.1078 72.112 85.1078 74C85.1078 75.888 85.6198 77.424 86.6438 78.608ZM123.611 78.032H131.915C131.179 80.72 129.691 82.848 127.451 84.416C125.211 85.984 122.475 86.768 119.243 86.768C115.275 86.768 112.107 85.6 109.739 83.264C107.371 80.928 106.187 77.84 106.187 74C106.187 70.16 107.371 67.072 109.739 64.736C112.139 62.4 115.291 61.232 119.195 61.232C121.403 61.232 123.403 61.632 125.195 62.432C126.987 63.2 128.395 64.256 129.419 65.6C130.443 66.912 131.115 68.448 131.435 70.208C131.755 71.936 131.547 73.76 130.811 75.68H114.251C114.763 78.752 116.491 80.288 119.435 80.288C121.483 80.288 122.875 79.536 123.611 78.032ZM119.195 67.472C116.603 67.472 114.987 68.768 114.347 71.36H123.275C123.403 70.176 123.099 69.232 122.363 68.528C121.659 67.824 120.603 67.472 119.195 67.472ZM149.347 61.232C151.459 61.232 153.155 61.952 154.435 63.392C155.747 64.832 156.403 66.784 156.403 69.248C156.403 71.424 155.923 73.504 154.963 75.488H147.043C148.067 73.6 148.579 72.016 148.579 70.736C148.579 69.808 148.355 69.072 147.907 68.528C147.491 67.984 146.915 67.712 146.179 67.712C145.091 67.712 144.195 68.304 143.491 69.488C142.819 70.64 142.483 72.176 142.483 74.096V86H134.803V62H142.483V65.936C143.731 62.8 146.019 61.232 149.347 61.232ZM169.411 86.768C165.859 86.768 163.043 85.984 160.963 84.416C158.883 82.816 157.843 80.688 157.843 78.032H165.283C165.283 78.896 165.635 79.584 166.339 80.096C167.075 80.608 168.083 80.864 169.363 80.864C170.419 80.864 171.299 80.688 172.003 80.336C172.707 79.984 173.059 79.536 173.059 78.992C173.059 78.416 172.547 77.968 171.523 77.648C170.499 77.328 169.251 77.056 167.779 76.832C166.339 76.576 164.883 76.24 163.411 75.824C161.939 75.408 160.691 74.656 159.667 73.568C158.643 72.448 158.131 71.024 158.131 69.296C158.131 66.8 159.139 64.832 161.155 63.392C163.171 61.952 165.827 61.232 169.123 61.232C172.611 61.232 175.411 62.048 177.523 63.68C179.635 65.28 180.499 67.52 180.115 70.4H172.627C172.851 69.408 172.643 68.624 172.003 68.048C171.363 67.472 170.419 67.184 169.171 67.184C168.147 67.184 167.363 67.36 166.819 67.712C166.307 68.064 166.051 68.496 166.051 69.008C166.051 69.648 166.563 70.144 167.587 70.496C168.611 70.816 169.843 71.088 171.283 71.312C172.755 71.536 174.227 71.856 175.699 72.272C177.171 72.656 178.419 73.376 179.443 74.432C180.467 75.488 180.979 76.864 180.979 78.56C180.979 81.12 179.907 83.136 177.763 84.608C175.619 86.048 172.835 86.768 169.411 86.768Z"/>
</mask>
<path d="M58.0572 48.768C52.6492 48.768 48.3772 47.088 45.2412 43.728C42.1052 40.336 40.5372 36.144 40.5372 31.152C40.5372 26.064 42.1372 21.872 45.3372 18.576C48.5372 15.28 52.6972 13.632 57.8172 13.632C62.7452 13.632 66.7132 15.088 69.7212 18C72.7292 20.88 73.8492 24.432 73.0812 28.656H64.6812C65.1612 26.16 64.7292 24.16 63.3852 22.656C62.0732 21.12 60.2492 20.352 57.9132 20.352C55.1612 20.352 52.9692 21.392 51.3372 23.472C49.7372 25.552 48.9372 28.112 48.9372 31.152C48.9372 34.32 49.7692 36.928 51.4332 38.976C53.1292 41.024 55.3372 42.048 58.0572 42.048C60.1692 42.048 61.9292 41.44 63.3372 40.224C64.7452 38.976 65.5932 37.424 65.8812 35.568H74.4732C73.8972 39.664 72.1212 42.896 69.1452 45.264C66.2012 47.6 62.5052 48.768 58.0572 48.768ZM99.1673 45.264C96.7673 47.6 93.6153 48.768 89.7113 48.768C85.8073 48.768 82.6553 47.6 80.2553 45.264C77.8553 42.928 76.6553 39.84 76.6553 36C76.6553 32.16 77.8553 29.072 80.2553 26.736C82.6553 24.4 85.8073 23.232 89.7113 23.232C93.6153 23.232 96.7673 24.4 99.1673 26.736C101.567 29.072 102.767 32.16 102.767 36C102.767 39.84 101.567 42.928 99.1673 45.264ZM85.9673 40.56C86.9273 41.712 88.1753 42.288 89.7113 42.288C91.2473 42.288 92.4793 41.712 93.4073 40.56C94.3673 39.408 94.8473 37.888 94.8473 36C94.8473 34.08 94.3673 32.56 93.4073 31.44C92.4793 30.288 91.2473 29.712 89.7113 29.712C88.1753 29.712 86.9273 30.288 85.9673 31.44C85.0393 32.56 84.5753 34.08 84.5753 36C84.5753 37.888 85.0393 39.408 85.9673 40.56ZM120.191 23.232C122.303 23.232 123.999 23.952 125.279 25.392C126.591 26.832 127.247 28.784 127.247 31.248C127.247 33.424 126.767 35.504 125.807 37.488H117.887C118.911 35.6 119.423 34.016 119.423 32.736C119.423 31.808 119.199 31.072 118.751 30.528C118.335 29.984 117.759 29.712 117.023 29.712C115.935 29.712 115.039 30.304 114.335 31.488C113.663 32.64 113.327 34.176 113.327 36.096V48H105.647V24H113.327V27.936C114.575 24.8 116.863 23.232 120.191 23.232ZM146.111 40.032H154.415C153.679 42.72 152.191 44.848 149.951 46.416C147.711 47.984 144.975 48.768 141.743 48.768C137.775 48.768 134.607 47.6 132.239 45.264C129.871 42.928 128.687 39.84 128.687 36C128.687 32.16 129.871 29.072 132.239 26.736C134.639 24.4 137.791 23.232 141.695 23.232C143.903 23.232 145.903 23.632 147.695 24.432C149.487 25.2 150.895 26.256 151.919 27.6C152.943 28.912 153.615 30.448 153.935 32.208C154.255 33.936 154.047 35.76 153.311 37.68H136.751C137.263 40.752 138.991 42.288 141.935 42.288C143.983 42.288 145.375 41.536 146.111 40.032ZM141.695 29.472C139.103 29.472 137.487 30.768 136.847 33.36H145.775C145.903 32.176 145.599 31.232 144.863 30.528C144.159 29.824 143.103 29.472 141.695 29.472ZM31.4791 86.768C26.0711 86.768 21.7991 85.088 18.6631 81.728C15.5271 78.336 13.9591 74.144 13.9591 69.152C13.9591 64.064 15.5591 59.872 18.7591 56.576C21.9591 53.28 26.1191 51.632 31.2391 51.632C36.1671 51.632 40.1351 53.088 43.1431 56C46.1511 58.88 47.2711 62.432 46.5031 66.656H38.1031C38.5831 64.16 38.1511 62.16 36.8071 60.656C35.4951 59.12 33.6711 58.352 31.3351 58.352C28.5831 58.352 26.3911 59.392 24.7591 61.472C23.1591 63.552 22.3591 66.112 22.3591 69.152C22.3591 72.32 23.1911 74.928 24.8551 76.976C26.5511 79.024 28.7591 80.048 31.4791 80.048C33.5911 80.048 35.3511 79.44 36.7591 78.224C38.1671 76.976 39.0151 75.424 39.3031 73.568H47.8951C47.3191 77.664 45.5431 80.896 42.5671 83.264C39.6231 85.6 35.9271 86.768 31.4791 86.768ZM62.2212 61.232C65.9972 61.232 68.8772 62.224 70.8612 64.208C72.8452 66.192 73.8372 68.944 73.8372 72.464V86H67.1172V81.92C65.2932 85.152 62.3972 86.768 58.4292 86.768C55.8052 86.768 53.7572 86.096 52.2852 84.752C50.8132 83.376 50.0772 81.648 50.0772 79.568C50.0772 77.136 51.0692 75.232 53.0532 73.856C55.0692 72.48 57.8052 71.792 61.2612 71.792C62.7972 71.792 64.4292 71.936 66.1572 72.224C66.0932 69.152 64.7492 67.616 62.1252 67.616C61.1332 67.616 60.3812 67.84 59.8692 68.288C59.3572 68.704 59.1652 69.296 59.2932 70.064H51.7572C51.1492 67.344 51.8852 65.2 53.9652 63.632C56.0452 62.032 58.7972 61.232 62.2212 61.232ZM60.3972 81.152C63.0212 81.152 64.9892 79.872 66.3012 77.312C65.0212 76.928 63.5812 76.736 61.9812 76.736C59.1012 76.736 57.6612 77.52 57.6612 79.088C57.6612 80.464 58.5732 81.152 60.3972 81.152ZM93.1238 61.232C96.3558 61.232 99.0118 62.416 101.092 64.784C103.204 67.12 104.26 70.192 104.26 74C104.26 77.808 103.22 80.896 101.14 83.264C99.0598 85.632 96.4038 86.816 93.1718 86.816C89.6518 86.816 86.9638 85.408 85.1078 82.592V95.6H77.4278V62H85.1078V65.36C86.9958 62.608 89.6678 61.232 93.1238 61.232ZM86.6438 78.608C87.6678 79.76 89.0278 80.336 90.7238 80.336C92.4198 80.336 93.7798 79.76 94.8038 78.608C95.8278 77.424 96.3398 75.888 96.3398 74C96.3398 72.112 95.8278 70.592 94.8038 69.44C93.7798 68.288 92.4198 67.712 90.7238 67.712C89.0278 67.712 87.6678 68.288 86.6438 69.44C85.6198 70.592 85.1078 72.112 85.1078 74C85.1078 75.888 85.6198 77.424 86.6438 78.608ZM123.611 78.032H131.915C131.179 80.72 129.691 82.848 127.451 84.416C125.211 85.984 122.475 86.768 119.243 86.768C115.275 86.768 112.107 85.6 109.739 83.264C107.371 80.928 106.187 77.84 106.187 74C106.187 70.16 107.371 67.072 109.739 64.736C112.139 62.4 115.291 61.232 119.195 61.232C121.403 61.232 123.403 61.632 125.195 62.432C126.987 63.2 128.395 64.256 129.419 65.6C130.443 66.912 131.115 68.448 131.435 70.208C131.755 71.936 131.547 73.76 130.811 75.68H114.251C114.763 78.752 116.491 80.288 119.435 80.288C121.483 80.288 122.875 79.536 123.611 78.032ZM119.195 67.472C116.603 67.472 114.987 68.768 114.347 71.36H123.275C123.403 70.176 123.099 69.232 122.363 68.528C121.659 67.824 120.603 67.472 119.195 67.472ZM149.347 61.232C151.459 61.232 153.155 61.952 154.435 63.392C155.747 64.832 156.403 66.784 156.403 69.248C156.403 71.424 155.923 73.504 154.963 75.488H147.043C148.067 73.6 148.579 72.016 148.579 70.736C148.579 69.808 148.355 69.072 147.907 68.528C147.491 67.984 146.915 67.712 146.179 67.712C145.091 67.712 144.195 68.304 143.491 69.488C142.819 70.64 142.483 72.176 142.483 74.096V86H134.803V62H142.483V65.936C143.731 62.8 146.019 61.232 149.347 61.232ZM169.411 86.768C165.859 86.768 163.043 85.984 160.963 84.416C158.883 82.816 157.843 80.688 157.843 78.032H165.283C165.283 78.896 165.635 79.584 166.339 80.096C167.075 80.608 168.083 80.864 169.363 80.864C170.419 80.864 171.299 80.688 172.003 80.336C172.707 79.984 173.059 79.536 173.059 78.992C173.059 78.416 172.547 77.968 171.523 77.648C170.499 77.328 169.251 77.056 167.779 76.832C166.339 76.576 164.883 76.24 163.411 75.824C161.939 75.408 160.691 74.656 159.667 73.568C158.643 72.448 158.131 71.024 158.131 69.296C158.131 66.8 159.139 64.832 161.155 63.392C163.171 61.952 165.827 61.232 169.123 61.232C172.611 61.232 175.411 62.048 177.523 63.68C179.635 65.28 180.499 67.52 180.115 70.4H172.627C172.851 69.408 172.643 68.624 172.003 68.048C171.363 67.472 170.419 67.184 169.171 67.184C168.147 67.184 167.363 67.36 166.819 67.712C166.307 68.064 166.051 68.496 166.051 69.008C166.051 69.648 166.563 70.144 167.587 70.496C168.611 70.816 169.843 71.088 171.283 71.312C172.755 71.536 174.227 71.856 175.699 72.272C177.171 72.656 178.419 73.376 179.443 74.432C180.467 75.488 180.979 76.864 180.979 78.56C180.979 81.12 179.907 83.136 177.763 84.608C175.619 86.048 172.835 86.768 169.411 86.768Z" fill="#292828"/>
<path d="M45.2412 43.728L35.6957 52.5531C35.7096 52.5682 35.7235 52.5832 35.7375 52.5981L45.2412 43.728ZM45.3372 18.576L36.01 9.52045L36.01 9.52045L45.3372 18.576ZM69.7212 18L60.6791 27.3402C60.6962 27.3569 60.7135 27.3735 60.7308 27.39L69.7212 18ZM73.0812 28.656V41.656C79.3639 41.656 84.7476 37.1629 85.8715 30.9815L73.0812 28.656ZM64.6812 28.656L51.9151 26.201C51.1828 30.0091 52.1887 33.9453 54.6583 36.935C57.1279 39.9248 60.8033 41.656 64.6812 41.656V28.656ZM63.3852 22.656L53.5003 31.0993C53.5633 31.173 53.6271 31.246 53.6917 31.3183L63.3852 22.656ZM51.3372 23.472L41.1096 15.4473C41.0839 15.48 41.0584 15.5128 41.0331 15.5458L51.3372 23.472ZM51.4332 38.976L41.3437 47.1737C41.3692 47.2051 41.3949 47.2364 41.4207 47.2676L51.4332 38.976ZM63.3372 40.224L71.8342 50.0627C71.8765 50.0262 71.9184 49.9895 71.9602 49.9525L63.3372 40.224ZM65.8812 35.568V22.568C59.4711 22.568 54.0178 27.2404 53.0349 33.5746L65.8812 35.568ZM74.4732 35.568L87.3465 37.3783C87.8706 33.6514 86.7538 29.8802 84.2848 27.0396C81.8157 24.1991 78.2368 22.568 74.4732 22.568V35.568ZM69.1452 45.264L77.2257 55.4476C77.2303 55.4439 77.2349 55.4403 77.2395 55.4366L69.1452 45.264ZM58.0572 48.768V35.768C55.5594 35.768 54.9862 35.1164 54.7449 34.8579L45.2412 43.728L35.7375 52.5981C41.7682 59.0596 49.739 61.768 58.0572 61.768V48.768ZM45.2412 43.728L54.7867 34.9029C54.0596 34.1164 53.5372 33.1602 53.5372 31.152H40.5372H27.5372C27.5372 39.1278 30.1508 46.5556 35.6957 52.5531L45.2412 43.728ZM40.5372 31.152H53.5372C53.5372 29.0483 54.0825 28.2309 54.6644 27.6316L45.3372 18.576L36.01 9.52045C30.1919 15.5131 27.5372 23.0797 27.5372 31.152H40.5372ZM45.3372 18.576L54.6644 27.6316C55.1243 27.1579 55.769 26.632 57.8172 26.632V13.632V0.631999C49.6254 0.631999 41.9501 3.40209 36.01 9.52045L45.3372 18.576ZM57.8172 13.632V26.632C60.0107 26.632 60.5199 27.1861 60.6791 27.3402L69.7212 18L78.7633 8.65978C72.9065 2.98986 65.4797 0.631999 57.8172 0.631999V13.632ZM69.7212 18L60.7308 27.39C60.8072 27.4632 60.768 27.4407 60.6826 27.3076C60.5934 27.1686 60.4939 26.9711 60.4189 26.7334C60.3444 26.497 60.3213 26.3071 60.3165 26.2019C60.3121 26.1043 60.3259 26.1377 60.2909 26.3305L73.0812 28.656L85.8715 30.9815C87.3914 22.6219 84.9887 14.62 78.7116 8.60999L69.7212 18ZM73.0812 28.656V15.656H64.6812V28.656V41.656H73.0812V28.656ZM64.6812 28.656L77.4473 31.111C78.4734 25.7753 77.8157 19.2946 73.0787 13.9937L63.3852 22.656L53.6917 31.3183C52.8413 30.3667 52.2623 29.1956 52.0102 28.0287C51.7786 26.9565 51.9021 26.2688 51.9151 26.201L64.6812 28.656ZM63.3852 22.656L73.27 14.2127C69.089 9.31775 63.3911 7.352 57.9132 7.352V20.352V33.352C57.6561 33.352 56.9343 33.3075 55.9884 32.9093C54.9938 32.4905 54.1318 31.8386 53.5003 31.0993L63.3852 22.656ZM57.9132 20.352V7.352C51.3587 7.352 45.3209 10.08 41.1096 15.4473L51.3372 23.472L61.5648 31.4967C61.2516 31.8959 60.6596 32.4587 59.7777 32.8771C58.9119 33.2879 58.2051 33.352 57.9132 33.352V20.352ZM51.3372 23.472L41.0331 15.5458C37.4166 20.2472 35.9372 25.7187 35.9372 31.152H48.9372H61.9372C61.9372 30.7744 61.986 30.6997 61.9454 30.8296C61.9258 30.8923 61.8908 30.9848 61.834 31.0945C61.777 31.2046 61.7106 31.3081 61.6413 31.3982L51.3372 23.472ZM48.9372 31.152H35.9372C35.9372 36.6838 37.4389 42.3678 41.3437 47.1737L51.4332 38.976L61.5227 30.7783C61.6274 30.9072 61.7213 31.0485 61.7987 31.1928C61.8756 31.3363 61.9214 31.4552 61.9462 31.5329C61.996 31.6891 61.9372 31.6014 61.9372 31.152H48.9372ZM51.4332 38.976L41.4207 47.2676C45.6511 52.376 51.5676 55.048 58.0572 55.048V42.048V29.048C58.363 29.048 59.0291 29.1148 59.8306 29.4866C60.6405 29.8621 61.1748 30.3573 61.4457 30.6844L51.4332 38.976ZM58.0572 42.048V55.048C62.8397 55.048 67.7457 53.5937 71.8342 50.0627L63.3372 40.224L54.8401 30.3853C55.3864 29.9135 56.0378 29.539 56.7164 29.3045C57.3718 29.0781 57.8599 29.048 58.0572 29.048V42.048ZM63.3372 40.224L71.9602 49.9525C75.6293 46.7003 77.9744 42.4145 78.7274 37.5614L65.8812 35.568L53.0349 33.5746C53.1071 33.1095 53.2804 32.5141 53.621 31.8907C53.9615 31.2675 54.3672 30.8031 54.7142 30.4955L63.3372 40.224ZM65.8812 35.568V48.568H74.4732V35.568V22.568H65.8812V35.568ZM74.4732 35.568L61.5999 33.7577C61.5048 34.4335 61.3582 34.7265 61.316 34.8034C61.2837 34.8622 61.234 34.9457 61.0509 35.0914L69.1452 45.264L77.2395 55.4366C83.0596 50.8055 86.3513 44.4551 87.3465 37.3783L74.4732 35.568ZM69.1452 45.264L61.0647 35.0804C60.8226 35.2725 60.1312 35.768 58.0572 35.768V48.768V61.768C64.8792 61.768 71.5798 59.9275 77.2257 55.4476L69.1452 45.264ZM99.1673 45.264L108.235 54.5798L99.1673 45.264ZM80.2553 45.264L89.3227 35.9482L89.3227 35.9482L80.2553 45.264ZM80.2553 26.736L89.3227 36.0518L89.3227 36.0518L80.2553 26.736ZM85.9673 40.56L75.8435 48.7153C75.8887 48.7714 75.9343 48.8271 75.9804 48.8824L85.9673 40.56ZM93.4073 40.56L83.4204 32.2376C83.3743 32.2929 83.3287 32.3486 83.2835 32.4047L93.4073 40.56ZM93.4073 31.44L83.2835 39.5953C83.3664 39.6982 83.4509 39.7999 83.537 39.9003L93.4073 31.44ZM85.9673 31.44L75.9804 23.1176C75.9726 23.127 75.9648 23.1364 75.957 23.1458L85.9673 31.44ZM99.1673 45.264L90.1 35.9482C90.136 35.9131 90.2004 35.8587 90.288 35.8034C90.3755 35.7482 90.4482 35.7161 90.4862 35.702C90.5688 35.6714 90.3661 35.768 89.7113 35.768V48.768V61.768C96.3988 61.768 103.007 59.668 108.235 54.5798L99.1673 45.264ZM89.7113 48.768V35.768C89.0565 35.768 88.8538 35.6714 88.9364 35.702C88.9745 35.7161 89.0471 35.7482 89.1346 35.8034C89.2223 35.8587 89.2866 35.9131 89.3227 35.9482L80.2553 45.264L71.188 54.5798C76.4157 59.668 83.0238 61.768 89.7113 61.768V48.768ZM80.2553 45.264L89.3227 35.9482C89.3654 35.9898 89.4363 36.0685 89.5117 36.182C89.5873 36.296 89.6403 36.4043 89.6726 36.4872C89.7038 36.5676 89.7011 36.587 89.6896 36.5203C89.6775 36.4506 89.6553 36.2838 89.6553 36H76.6553H63.6553C63.6553 42.7882 65.8985 49.4313 71.188 54.5798L80.2553 45.264ZM76.6553 36H89.6553C89.6553 35.7162 89.6775 35.5494 89.6896 35.4797C89.7011 35.413 89.7038 35.4324 89.6726 35.5128C89.6403 35.5957 89.5873 35.704 89.5117 35.818C89.4363 35.9315 89.3654 36.0102 89.3227 36.0518L80.2553 26.736L71.188 17.4202C65.8985 22.5687 63.6553 29.2118 63.6553 36H76.6553ZM80.2553 26.736L89.3227 36.0518C89.2866 36.0869 89.2223 36.1413 89.1346 36.1966C89.0471 36.2518 88.9745 36.2839 88.9364 36.298C88.8538 36.3286 89.0565 36.232 89.7113 36.232V23.232V10.232C83.0238 10.232 76.4157 12.332 71.188 17.4202L80.2553 26.736ZM89.7113 23.232V36.232C90.3661 36.232 90.5688 36.3286 90.4862 36.298C90.4482 36.2839 90.3755 36.2518 90.288 36.1966C90.2004 36.1413 90.136 36.0869 90.1 36.0518L99.1673 26.736L108.235 17.4202C103.007 12.332 96.3988 10.232 89.7113 10.232V23.232ZM99.1673 26.736L90.1 36.0518C90.0572 36.0102 89.9863 35.9315 89.9109 35.818C89.8353 35.704 89.7823 35.5957 89.7501 35.5128C89.7188 35.4324 89.7215 35.413 89.733 35.4797C89.7451 35.5494 89.7673 35.7162 89.7673 36H102.767H115.767C115.767 29.2118 113.524 22.5687 108.235 17.4202L99.1673 26.736ZM102.767 36H89.7673C89.7673 36.2838 89.7451 36.4506 89.733 36.5203C89.7215 36.587 89.7188 36.5676 89.7501 36.4872C89.7823 36.4043 89.8353 36.296 89.9109 36.182C89.9863 36.0685 90.0572 35.9898 90.1 35.9482L99.1673 45.264L108.235 54.5798C113.524 49.4313 115.767 42.7882 115.767 36H102.767ZM85.9673 40.56L75.9804 48.8824C79.4788 53.0805 84.4254 55.288 89.7113 55.288V42.288V29.288C90.6022 29.288 91.7962 29.4641 93.0711 30.0525C94.3547 30.645 95.3124 31.4675 95.9542 32.2376L85.9673 40.56ZM89.7113 42.288V55.288C95.0065 55.288 100.028 53.0642 103.531 48.7153L93.4073 40.56L83.2835 32.4047C83.9518 31.5752 84.9487 30.7026 86.2814 30.0795C87.5997 29.4632 88.8237 29.288 89.7113 29.288V42.288ZM93.4073 40.56L103.394 48.8824C106.763 44.8404 107.847 40.1207 107.847 36H94.8473H81.8473C81.8473 35.6553 81.9721 33.9756 83.4204 32.2376L93.4073 40.56ZM94.8473 36H107.847C107.847 31.9301 106.801 27.0908 103.278 22.9797L93.4073 31.44L83.537 39.9003C81.9332 38.0292 81.8473 36.2299 81.8473 36H94.8473ZM93.4073 31.44L103.531 23.2847C100.028 18.9358 95.0065 16.712 89.7113 16.712V29.712V42.712C88.8237 42.712 87.5997 42.5368 86.2814 41.9205C84.9487 41.2974 83.9518 40.4248 83.2835 39.5953L93.4073 31.44ZM89.7113 29.712V16.712C84.4254 16.712 79.4788 18.9195 75.9804 23.1176L85.9673 31.44L95.9542 39.7624C95.3124 40.5325 94.3547 41.355 93.0711 41.9475C91.7962 42.5359 90.6022 42.712 89.7113 42.712V29.712ZM85.9673 31.44L75.957 23.1458C72.5532 27.2539 71.5753 32.0295 71.5753 36H84.5753H97.5753C97.5753 36.1305 97.5254 37.8661 95.9776 39.7342L85.9673 31.44ZM84.5753 36H71.5753C71.5753 40.0212 72.591 44.6777 75.8435 48.7153L85.9673 40.56L96.0911 32.4047C97.4876 34.1383 97.5753 35.7548 97.5753 36H84.5753ZM125.279 25.392L115.562 34.0287C115.598 34.0685 115.633 34.108 115.669 34.1474L125.279 25.392ZM125.807 37.488V50.488C130.791 50.488 135.337 47.6375 137.509 43.1503L125.807 37.488ZM117.887 37.488L106.459 31.2901C104.274 35.3184 104.372 40.1995 106.716 44.1373C109.06 48.0752 113.304 50.488 117.887 50.488V37.488ZM118.751 30.528L108.424 38.4249C108.519 38.549 108.616 38.6715 108.715 38.7922L118.751 30.528ZM114.335 31.488L103.161 24.844C103.142 24.8752 103.124 24.9064 103.105 24.9377L114.335 31.488ZM113.327 48V61C120.506 61 126.327 55.1797 126.327 48H113.327ZM105.647 48H92.6466C92.6466 55.1797 98.4669 61 105.647 61V48ZM105.647 24V11C98.4669 11 92.6466 16.8203 92.6466 24L105.647 24ZM113.327 24H126.327C126.327 16.8203 120.506 11 113.327 11V24ZM113.327 27.936H100.327C100.327 34.1721 104.755 39.5297 110.879 40.7036C117.004 41.8775 123.099 38.537 125.405 32.7428L113.327 27.936ZM120.191 23.232V36.232C119.755 36.232 118.943 36.153 117.967 35.7383C116.96 35.3111 116.142 34.6809 115.562 34.0287L125.279 25.392L134.995 16.7553C130.994 12.254 125.615 10.232 120.191 10.232V23.232ZM125.279 25.392L115.669 34.1474C115.042 33.4588 114.645 32.7114 114.432 32.0772C114.233 31.4859 114.247 31.1555 114.247 31.248H127.247H140.247C140.247 26.4351 138.915 21.0561 134.888 16.6366L125.279 25.392ZM127.247 31.248H114.247C114.247 31.4368 114.222 31.5835 114.104 31.8257L125.807 37.488L137.509 43.1503C139.311 39.4245 140.247 35.4112 140.247 31.248H127.247ZM125.807 37.488V24.488H117.887V37.488V50.488H125.807V37.488ZM117.887 37.488L129.314 43.6859C130.754 41.0302 132.423 37.1821 132.423 32.736H119.423H106.423C106.423 31.6809 106.626 31.0192 106.669 30.8857C106.717 30.7354 106.693 30.8582 106.459 31.2901L117.887 37.488ZM119.423 32.736H132.423C132.423 29.7568 131.685 25.7843 128.786 22.2638L118.751 30.528L108.715 38.7922C106.712 36.3597 106.423 33.8592 106.423 32.736H119.423ZM118.751 30.528L129.077 22.6311C125.996 18.6023 121.457 16.712 117.023 16.712V29.712V42.712C115.769 42.712 114.154 42.4731 112.455 41.6712C110.727 40.8551 109.38 39.675 108.424 38.4249L118.751 30.528ZM117.023 29.712V16.712C110.099 16.712 105.489 20.9284 103.161 24.844L114.335 31.488L125.509 38.132C125.132 38.7647 124.283 39.9568 122.701 41.0024C120.993 42.1306 118.991 42.712 117.023 42.712V29.712ZM114.335 31.488L103.105 24.9377C100.873 28.7646 100.327 32.8267 100.327 36.096H113.327H126.327C126.327 35.8732 126.348 35.9634 126.278 36.2821C126.207 36.6096 126.022 37.2533 125.564 38.0383L114.335 31.488ZM113.327 36.096H100.327V48H113.327H126.327V36.096H113.327ZM113.327 48V35H105.647V48V61H113.327V48ZM105.647 48H118.647V24H105.647H92.6466V48H105.647ZM105.647 24V37H113.327V24V11H105.647V24ZM113.327 24H100.327V27.936H113.327H126.327V24H113.327ZM113.327 27.936L125.405 32.7428C125.284 33.047 124.736 34.1664 123.328 35.1315C121.906 36.1058 120.616 36.232 120.191 36.232V23.232V10.232C116.437 10.232 112.339 11.1422 108.63 13.6845C104.933 16.2176 102.617 19.689 101.248 23.1292L113.327 27.936ZM146.111 40.032V27.032C141.146 27.032 136.616 29.859 134.434 34.3178L146.111 40.032ZM154.415 40.032L166.953 43.4652C168.024 39.555 167.209 35.3693 164.75 32.1463C162.291 28.9233 158.469 27.032 154.415 27.032V40.032ZM149.951 46.416L157.406 57.066L149.951 46.416ZM132.239 45.264L123.109 54.5187L123.109 54.5187L132.239 45.264ZM132.239 26.736L123.171 17.4202C123.15 17.4405 123.13 17.4609 123.109 17.4813L132.239 26.736ZM147.695 24.432L142.395 36.3028C142.454 36.3293 142.514 36.3553 142.574 36.3809L147.695 24.432ZM151.919 27.6L141.578 35.4786C141.609 35.5187 141.639 35.5587 141.67 35.5985L151.919 27.6ZM153.935 32.208L141.144 34.5335C141.147 34.5474 141.149 34.5613 141.152 34.5752L153.935 32.208ZM153.311 37.68V50.68C158.695 50.68 163.522 47.3608 165.449 42.3332L153.311 37.68ZM136.751 37.68V24.68C132.929 24.68 129.301 26.3613 126.831 29.2771C124.361 32.1929 123.299 36.0478 123.927 39.8172L136.751 37.68ZM136.847 33.36L124.226 30.2437C123.268 34.1237 124.147 38.2287 126.612 41.3752C129.076 44.5217 132.85 46.36 136.847 46.36V33.36ZM145.775 33.36V46.36C152.413 46.36 157.986 41.3577 158.699 34.7573L145.775 33.36ZM144.863 30.528L135.67 39.7204C135.738 39.7885 135.807 39.8558 135.877 39.9223L144.863 30.528ZM146.111 40.032V53.032H154.415V40.032V27.032H146.111V40.032ZM154.415 40.032L141.876 36.5988C141.873 36.6116 141.922 36.438 142.093 36.1944C142.265 35.9478 142.437 35.8069 142.496 35.766L149.951 46.416L157.406 57.066C162.182 53.7227 165.433 49.0166 166.953 43.4652L154.415 40.032ZM149.951 46.416L142.496 35.766C142.603 35.6905 142.678 35.6713 142.638 35.683C142.579 35.6997 142.308 35.768 141.743 35.768V48.768V61.768C147.144 61.768 152.605 60.4261 157.406 57.066L149.951 46.416ZM141.743 48.768V35.768C141.03 35.768 140.804 35.6637 140.888 35.6946C140.928 35.7096 141.012 35.746 141.117 35.8124C141.223 35.8792 141.309 35.9506 141.368 36.0093L132.239 45.264L123.109 54.5187C128.369 59.7082 135.063 61.768 141.743 61.768V48.768ZM132.239 45.264L141.368 36.0093C141.415 36.0554 141.486 36.1363 141.56 36.249C141.634 36.3618 141.684 36.4661 141.713 36.5419C141.741 36.6151 141.736 36.6257 141.723 36.549C141.709 36.4695 141.687 36.2929 141.687 36H128.687H115.687C115.687 42.7353 117.878 49.3587 123.109 54.5187L132.239 45.264ZM128.687 36H141.687C141.687 35.7071 141.709 35.5305 141.723 35.451C141.736 35.3743 141.741 35.3849 141.713 35.4581C141.684 35.5339 141.634 35.6382 141.56 35.751C141.486 35.8636 141.415 35.9446 141.368 35.9907L132.239 26.736L123.109 17.4813C117.878 22.6413 115.687 29.2647 115.687 36H128.687ZM132.239 26.736L141.306 36.0518C141.27 36.0869 141.206 36.1413 141.118 36.1966C141.03 36.2518 140.958 36.2839 140.92 36.298C140.837 36.3286 141.04 36.232 141.695 36.232V23.232V10.232C135.007 10.232 128.399 12.332 123.171 17.4202L132.239 26.736ZM141.695 23.232V36.232C142.012 36.232 142.206 36.2606 142.301 36.2795C142.392 36.2977 142.414 36.3114 142.395 36.3028L147.695 24.432L152.994 12.5612C149.337 10.9288 145.5 10.232 141.695 10.232V23.232ZM147.695 24.432L142.574 36.3809C142.619 36.4003 142.502 36.3557 142.295 36.2C142.08 36.0388 141.822 35.7992 141.578 35.4786L151.919 27.6L162.259 19.7214C159.679 16.3345 156.349 13.9973 152.816 12.4831L147.695 24.432ZM151.919 27.6L141.67 35.5985C141.509 35.392 141.377 35.1663 141.281 34.9466C141.186 34.7308 141.153 34.5801 141.144 34.5335L153.935 32.208L166.725 29.8825C166.058 26.2125 164.58 22.6938 162.167 19.6015L151.919 27.6ZM153.935 32.208L141.152 34.5752C141.067 34.1172 141.067 33.7093 141.102 33.3991C141.136 33.1012 141.194 32.9693 141.172 33.0268L153.311 37.68L165.449 42.3332C166.895 38.5627 167.543 34.2991 166.717 29.8408L153.935 32.208ZM153.311 37.68V24.68H136.751V37.68V50.68H153.311V37.68ZM136.751 37.68L123.927 39.8172C124.503 43.2682 126.046 47.5207 129.794 50.8523C133.632 54.2644 138.176 55.288 141.935 55.288V42.288V29.288C142.749 29.288 144.957 29.5436 147.067 31.4197C149.087 33.2153 149.511 35.1638 149.574 35.5428L136.751 37.68ZM141.935 42.288V55.288C144.499 55.288 147.622 54.821 150.694 53.1617C153.917 51.4201 156.302 48.7818 157.787 45.7462L146.111 40.032L134.434 34.3178C135.183 32.7862 136.504 31.2759 138.336 30.2863C140.015 29.379 141.418 29.288 141.935 29.288V42.288ZM141.695 29.472V16.472C138.202 16.472 134.051 17.3789 130.405 20.3025C126.8 23.1939 125.031 26.9829 124.226 30.2437L136.847 33.36L149.468 36.4763C149.302 37.1451 148.661 38.9901 146.672 40.5855C144.642 42.2131 142.596 42.472 141.695 42.472V29.472ZM136.847 33.36V46.36H145.775V33.36V20.36H136.847V33.36ZM145.775 33.36L158.699 34.7573C159.178 30.3262 158.017 25.1211 153.848 21.1337L144.863 30.528L135.877 39.9223C134.727 38.8227 133.797 37.3906 133.268 35.7489C132.761 34.1729 132.757 32.826 132.85 31.9627L145.775 33.36ZM144.863 30.528L154.055 21.3356C150.053 17.3338 145.106 16.472 141.695 16.472V29.472V42.472C141.099 42.472 138.264 42.3142 135.67 39.7204L144.863 30.528ZM18.6631 81.728L9.11753 90.5531C9.13143 90.5682 9.14537 90.5832 9.15934 90.5981L18.6631 81.728ZM18.7591 56.576L9.43185 47.5204L9.43185 47.5204L18.7591 56.576ZM43.1431 56L34.1009 65.3402C34.1181 65.3569 34.1354 65.3735 34.1526 65.39L43.1431 56ZM46.5031 66.656V79.656C52.7858 79.656 58.1695 75.1629 59.2934 68.9815L46.5031 66.656ZM38.1031 66.656L25.337 64.201C24.6047 68.0091 25.6106 71.9453 28.0802 74.935C30.5498 77.9248 34.2252 79.656 38.1031 79.656V66.656ZM36.8071 60.656L26.9222 69.0993C26.9852 69.173 27.0489 69.246 27.1135 69.3183L36.8071 60.656ZM24.7591 61.472L14.5315 53.4473C14.5058 53.48 14.4803 53.5128 14.455 53.5458L24.7591 61.472ZM24.8551 76.976L14.7656 85.1737C14.7911 85.2051 14.8168 85.2364 14.8426 85.2676L24.8551 76.976ZM36.7591 78.224L45.2561 88.0627C45.2983 88.0262 45.3403 87.9895 45.3821 87.9525L36.7591 78.224ZM39.3031 73.568V60.568C32.893 60.568 27.4397 65.2404 26.4568 71.5746L39.3031 73.568ZM47.8951 73.568L60.7684 75.3783C61.2925 71.6514 60.1757 67.8802 57.7066 65.0396C55.2376 62.1991 51.6587 60.568 47.8951 60.568V73.568ZM42.5671 83.264L50.6475 93.4476C50.6522 93.4439 50.6568 93.4403 50.6614 93.4366L42.5671 83.264ZM31.4791 86.768V73.768C28.9813 73.768 28.4081 73.1164 28.1668 72.8579L18.6631 81.728L9.15934 90.5981C15.19 97.0596 23.1608 99.768 31.4791 99.768V86.768ZM18.6631 81.728L28.2086 72.9029C27.4815 72.1164 26.9591 71.1602 26.9591 69.152H13.9591H0.959063C0.959063 77.1278 3.57266 84.5556 9.11753 90.5531L18.6631 81.728ZM13.9591 69.152H26.9591C26.9591 67.0483 27.5044 66.2309 28.0863 65.6316L18.7591 56.576L9.43185 47.5204C3.61373 53.5131 0.959063 61.0797 0.959063 69.152H13.9591ZM18.7591 56.576L28.0863 65.6316C28.5461 65.1579 29.1909 64.632 31.2391 64.632V51.632V38.632C23.0473 38.632 15.372 41.4021 9.43185 47.5204L18.7591 56.576ZM31.2391 51.632V64.632C33.4325 64.632 33.9418 65.1861 34.1009 65.3402L43.1431 56L52.1852 46.6598C46.3284 40.9899 38.9016 38.632 31.2391 38.632V51.632ZM43.1431 56L34.1526 65.39C34.2291 65.4632 34.1898 65.4407 34.1044 65.3076C34.0153 65.1686 33.9158 64.9711 33.8408 64.7334C33.7663 64.497 33.7431 64.3071 33.7384 64.2019C33.7339 64.1043 33.7478 64.1377 33.7128 64.3305L46.5031 66.656L59.2934 68.9815C60.8133 60.6219 58.4106 52.62 52.1335 46.61L43.1431 56ZM46.5031 66.656V53.656H38.1031V66.656V79.656H46.5031V66.656ZM38.1031 66.656L50.8691 69.111C51.8952 63.7753 51.2376 57.2946 46.5006 51.9937L36.8071 60.656L27.1135 69.3183C26.2632 68.3667 25.6842 67.1956 25.4321 66.0287C25.2005 64.9565 25.3239 64.2688 25.337 64.201L38.1031 66.656ZM36.8071 60.656L46.6919 52.2127C42.5108 47.3177 36.813 45.352 31.3351 45.352V58.352V71.352C31.0779 71.352 30.3561 71.3075 29.4103 70.9093C28.4157 70.4905 27.5537 69.8386 26.9222 69.0993L36.8071 60.656ZM31.3351 58.352V45.352C24.7806 45.352 18.7427 48.08 14.5315 53.4473L24.7591 61.472L34.9867 69.4967C34.6734 69.8959 34.0815 70.4587 33.1996 70.8771C32.3338 71.2879 31.627 71.352 31.3351 71.352V58.352ZM24.7591 61.472L14.455 53.5458C10.8385 58.2472 9.35906 63.7187 9.35906 69.152H22.3591H35.3591C35.3591 68.7744 35.4079 68.6997 35.3673 68.8296C35.3477 68.8923 35.3126 68.9848 35.2559 69.0945C35.1989 69.2046 35.1325 69.3081 35.0632 69.3982L24.7591 61.472ZM22.3591 69.152H9.35906C9.35906 74.6838 10.8608 80.3678 14.7656 85.1737L24.8551 76.976L34.9445 68.7783C35.0493 68.9072 35.1432 69.0485 35.2205 69.1928C35.2974 69.3363 35.3433 69.4552 35.3681 69.5329C35.4179 69.6891 35.3591 69.6014 35.3591 69.152H22.3591ZM24.8551 76.976L14.8426 85.2676C19.073 90.376 24.9895 93.048 31.4791 93.048V80.048V67.048C31.7848 67.048 32.451 67.1148 33.2525 67.4866C34.0624 67.8621 34.5967 68.3573 34.8675 68.6844L24.8551 76.976ZM31.4791 80.048V93.048C36.2615 93.048 41.1676 91.5937 45.2561 88.0627L36.7591 78.224L28.262 68.3853C28.8083 67.9135 29.4597 67.539 30.1383 67.3045C30.7937 67.0781 31.2818 67.048 31.4791 67.048V80.048ZM36.7591 78.224L45.3821 87.9525C49.0512 84.7003 51.3962 80.4145 52.1493 75.5614L39.3031 73.568L26.4568 71.5746C26.529 71.1095 26.7023 70.5141 27.0429 69.8907C27.3834 69.2675 27.7891 68.8031 28.1361 68.4955L36.7591 78.224ZM39.3031 73.568V86.568H47.8951V73.568V60.568H39.3031V73.568ZM47.8951 73.568L35.0217 71.7577C34.9267 72.4335 34.7801 72.7265 34.7379 72.8034C34.7056 72.8622 34.6559 72.9457 34.4727 73.0914L42.5671 83.264L50.6614 93.4366C56.4815 88.8055 59.7732 82.4551 60.7684 75.3783L47.8951 73.568ZM42.5671 83.264L34.4866 73.0804C34.2445 73.2725 33.5531 73.768 31.4791 73.768V86.768V99.768C38.3011 99.768 45.0017 97.9275 50.6475 93.4476L42.5671 83.264ZM70.8612 64.208L61.6688 73.4004L61.6688 73.4004L70.8612 64.208ZM73.8372 86V99C81.0169 99 86.8372 93.1797 86.8372 86H73.8372ZM67.1172 86H54.1172C54.1172 93.1797 59.9375 99 67.1172 99V86ZM67.1172 81.92H80.1172C80.1172 76.0124 76.134 70.8476 70.4203 69.3466C64.7066 67.8456 58.6992 70.3858 55.7957 75.5306L67.1172 81.92ZM52.2852 84.752L43.4077 94.2488C43.4448 94.2836 43.4822 94.318 43.5197 94.3523L52.2852 84.752ZM53.0532 73.856L45.7245 63.1186C45.6978 63.1369 45.6711 63.1553 45.6445 63.1737L53.0532 73.856ZM66.1572 72.224L64.02 85.0471C67.8361 85.6831 71.7372 84.5865 74.6629 82.0552C77.5886 79.5239 79.2349 75.8211 79.1544 71.9532L66.1572 72.224ZM59.8692 68.288L68.0669 78.3775C68.1897 78.2777 68.3107 78.1757 68.4297 78.0715L59.8692 68.288ZM59.2932 70.064V83.064C63.1146 83.064 66.7424 81.3827 69.2124 78.4669C71.6825 75.5511 72.7445 71.6962 72.1163 67.9268L59.2932 70.064ZM51.7572 70.064L39.0703 72.8999C40.3981 78.8403 45.6702 83.064 51.7572 83.064V70.064ZM53.9652 63.632L61.7907 74.0128C61.8244 73.9874 61.858 73.9618 61.8914 73.9361L53.9652 63.632ZM66.3012 77.312L77.8703 83.2412C79.6308 79.806 79.7738 75.7662 78.2604 72.2152C76.747 68.6642 73.7339 65.9694 70.0367 64.8603L66.3012 77.312ZM62.2212 61.232V74.232C63 74.232 63.1834 74.3375 62.9795 74.2673C62.8685 74.2291 62.6694 74.1474 62.4204 73.9951C62.1681 73.8407 61.9094 73.641 61.6688 73.4004L70.8612 64.208L80.0536 55.0156C74.8826 49.8447 68.2174 48.232 62.2212 48.232V61.232ZM70.8612 64.208L61.6688 73.4004C61.4788 73.2104 61.3035 72.9915 61.156 72.7567C61.0094 72.5235 60.9173 72.3177 60.8635 72.1684C60.7581 71.876 60.8372 71.9102 60.8372 72.464H73.8372H86.8372C86.8372 66.4221 85.0603 60.0224 80.0536 55.0156L70.8612 64.208ZM73.8372 72.464H60.8372V86H73.8372H86.8372V72.464H73.8372ZM73.8372 86V73H67.1172V86V99H73.8372V86ZM67.1172 86H80.1172V81.92H67.1172H54.1172V86H67.1172ZM67.1172 81.92L55.7957 75.5306C55.9146 75.32 56.3624 74.6949 57.2425 74.2038C58.0786 73.7373 58.631 73.768 58.4292 73.768V86.768V99.768C66.6887 99.768 74.1202 95.9614 78.4387 88.3094L67.1172 81.92ZM58.4292 86.768V73.768C58.2054 73.768 58.4455 73.7371 58.9782 73.912C59.5579 74.1022 60.3205 74.485 61.0507 75.1517L52.2852 84.752L43.5197 94.3523C48.0639 98.5014 53.6123 99.768 58.4292 99.768V86.768ZM52.2852 84.752L61.1627 75.2552C61.652 75.7126 62.1972 76.4087 62.5895 77.3298C62.9778 78.2415 63.0772 79.046 63.0772 79.568H50.0772H37.0772C37.0772 85.1166 39.2115 90.3263 43.4077 94.2488L52.2852 84.752ZM50.0772 79.568H63.0772C63.0772 80.1629 62.9424 81.1862 62.3502 82.3227C61.7563 83.4628 60.9835 84.1765 60.4619 84.5383L53.0532 73.856L45.6445 63.1737C40.1279 66.9997 37.0772 72.9111 37.0772 79.568H50.0772ZM53.0532 73.856L60.3819 84.5933C59.9443 84.892 59.6772 84.9432 59.7875 84.9155C59.9175 84.8828 60.3724 84.792 61.2612 84.792V71.792V58.792C56.236 58.792 50.6271 59.7724 45.7245 63.1186L53.0532 73.856ZM61.2612 71.792V84.792C61.9897 84.792 62.902 84.8608 64.02 85.0471L66.1572 72.224L68.2944 59.4009C65.9563 59.0112 63.6046 58.792 61.2612 58.792V71.792ZM66.1572 72.224L79.1544 71.9532C79.0897 68.8484 78.3687 64.1891 74.8847 60.2074C71.0788 55.8578 66.0409 54.616 62.1252 54.616V67.616V80.616C60.8335 80.616 57.7796 80.1422 55.3177 77.3286C53.1777 74.8829 53.1607 72.5276 53.16 72.4948L66.1572 72.224ZM62.1252 67.616V54.616C59.3981 54.616 55.0732 55.2105 51.3086 58.5045L59.8692 68.288L68.4297 78.0715C65.6891 80.4695 62.8682 80.616 62.1252 80.616V67.616ZM59.8692 68.288L51.6715 58.1985C46.8151 62.1443 45.7385 67.8116 46.4701 72.2012L59.2932 70.064L72.1163 67.9268C72.3108 69.0935 72.3956 70.9316 71.7071 73.0546C70.9819 75.2904 69.6351 77.1033 68.0669 78.3775L59.8692 68.288ZM59.2932 70.064V57.064H51.7572V70.064V83.064H59.2932V70.064ZM51.7572 70.064L64.4441 67.2281C64.5438 67.6741 64.7217 68.9682 64.1489 70.6369C63.5541 72.3696 62.5039 73.4752 61.7907 74.0128L53.9652 63.632L46.1397 53.2512C43.3465 55.3568 40.8883 58.3184 39.5575 62.1951C38.2487 66.0078 38.3626 69.7339 39.0703 72.8999L51.7572 70.064ZM53.9652 63.632L61.8914 73.9361C61.7237 74.0651 61.5652 74.1598 61.4341 74.2249C61.305 74.2891 61.2258 74.313 61.218 74.3152C61.2119 74.317 61.5061 74.232 62.2212 74.232V61.232V48.232C56.8071 48.232 51.0004 49.5114 46.0389 53.3279L53.9652 63.632ZM60.3972 81.152V94.152C63.9192 94.152 67.5929 93.2597 70.9292 91.0897C74.1996 88.9626 76.4114 86.0879 77.8703 83.2412L66.3012 77.312L54.7321 71.3828C54.879 71.0961 55.4508 70.1414 56.7532 69.2943C58.1215 68.4043 59.4992 68.152 60.3972 68.152V81.152ZM66.3012 77.312L70.0367 64.8603C67.3337 64.0493 64.6052 63.736 61.9812 63.736V76.736V89.736C62.5572 89.736 62.7087 89.8067 62.5657 89.7637L66.3012 77.312ZM61.9812 76.736V63.736C59.787 63.736 56.0972 63.9617 52.525 65.9065C50.5434 66.9854 48.421 68.6954 46.8441 71.271C45.2486 73.877 44.6612 76.6363 44.6612 79.088H57.6612H70.6612C70.6612 80.7557 70.2537 82.829 69.0183 84.847C67.8013 86.8346 66.2189 88.0546 64.9574 88.7415C62.8252 89.9023 61.2954 89.736 61.9812 89.736V76.736ZM57.6612 79.088H44.6612C44.6612 82.9196 46.1231 87.7001 50.5161 91.0141C54.2187 93.8073 58.2232 94.152 60.3972 94.152V81.152V68.152C60.7471 68.152 63.3837 68.1527 66.1743 70.2579C69.6553 72.8839 70.6612 76.6324 70.6612 79.088H57.6612ZM101.092 64.784L91.3247 73.3632C91.3657 73.4099 91.407 73.4563 91.4487 73.5024L101.092 64.784ZM101.14 83.264L110.907 91.8432L110.907 91.8432L101.14 83.264ZM85.1078 82.592L95.9623 75.4379C92.8027 70.6442 86.8727 68.4907 81.3734 70.1399C75.874 71.7892 72.1078 76.8507 72.1078 82.592H85.1078ZM85.1078 95.6V108.6C92.2875 108.6 98.1078 102.78 98.1078 95.6H85.1078ZM77.4278 95.6H64.4278C64.4278 102.78 70.2481 108.6 77.4278 108.6V95.6ZM77.4278 62V49C70.2481 49 64.4278 54.8203 64.4278 62H77.4278ZM85.1078 62H98.1078C98.1078 54.8203 92.2875 49 85.1078 49V62ZM85.1078 65.36H72.1078C72.1078 71.0567 75.8168 76.0898 81.258 77.7769C86.6992 79.4639 92.6049 77.4118 95.8276 72.7143L85.1078 65.36ZM86.6438 78.608L76.8111 87.112C76.8496 87.1565 76.8884 87.2007 76.9275 87.2447L86.6438 78.608ZM94.8038 78.608L104.52 87.2447C104.559 87.2007 104.598 87.1565 104.637 87.112L94.8038 78.608ZM94.8038 69.44L104.52 60.8033L104.52 60.8033L94.8038 69.44ZM86.6438 69.44L76.9275 60.8033L76.9275 60.8033L86.6438 69.44ZM93.1238 61.232V74.232C93.1361 74.232 93.046 74.2329 92.877 74.1989C92.7043 74.1641 92.4861 74.1003 92.2467 73.9936C91.7236 73.7604 91.4161 73.4673 91.3247 73.3632L101.092 64.784L110.859 56.2048C106.24 50.946 99.987 48.232 93.1238 48.232V61.232ZM101.092 64.784L91.4487 73.5024C91.3829 73.4296 91.3167 73.3405 91.2607 73.2449C91.2053 73.1503 91.18 73.0837 91.1739 73.066C91.1617 73.0307 91.2598 73.292 91.2598 74H104.26H117.26C117.26 67.6791 115.44 61.2696 110.735 56.0656L101.092 64.784ZM104.26 74H91.2598C91.2598 74.7257 91.1608 75.0197 91.1598 75.0228C91.1592 75.0244 91.1756 74.9767 91.2197 74.8996C91.2643 74.8216 91.3183 74.7467 91.3727 74.6848L101.14 83.264L110.907 91.8432C115.484 86.6321 117.26 80.2768 117.26 74H104.26ZM101.14 83.264L91.3727 74.6848C91.4641 74.5807 91.7716 74.2876 92.2947 74.0544C92.5341 73.9477 92.7523 73.8838 92.925 73.8491C93.094 73.8151 93.1841 73.816 93.1718 73.816V86.816V99.816C100.035 99.816 106.288 97.102 110.907 91.8432L101.14 83.264ZM93.1718 86.816V73.816C93.1586 73.816 93.3023 73.8148 93.5632 73.874C93.8316 73.9349 94.1748 74.0488 94.5479 74.2442C95.3654 74.6724 95.8161 75.2161 95.9623 75.4379L85.1078 82.592L74.2534 89.7461C78.6381 96.3988 85.5101 99.816 93.1718 99.816V86.816ZM85.1078 82.592H72.1078V95.6H85.1078H98.1078V82.592H85.1078ZM85.1078 95.6V82.6H77.4278V95.6V108.6H85.1078V95.6ZM77.4278 95.6H90.4278V62H77.4278H64.4278V95.6H77.4278ZM77.4278 62V75H85.1078V62V49H77.4278V62ZM85.1078 62H72.1078V65.36H85.1078H98.1078V62H85.1078ZM85.1078 65.36L95.8276 72.7143C95.6914 72.9128 95.2604 73.4194 94.4796 73.8215C94.122 74.0057 93.7908 74.1149 93.527 74.1742C93.27 74.2319 93.1232 74.232 93.1238 74.232V61.232V48.232C85.5641 48.232 78.8013 51.5727 74.388 58.0057L85.1078 65.36ZM86.6438 78.608L76.9275 87.2447C80.6828 91.4694 85.7318 93.336 90.7238 93.336V80.336V67.336C91.3612 67.336 92.3574 67.4487 93.5017 67.9334C94.6766 68.431 95.6474 69.1694 96.3601 69.9713L86.6438 78.608ZM90.7238 80.336V93.336C95.7158 93.336 100.765 91.4694 104.52 87.2447L94.8038 78.608L85.0875 69.9713C85.8003 69.1694 86.771 68.431 87.9459 67.9334C89.0902 67.4487 90.0864 67.336 90.7238 67.336V80.336ZM94.8038 78.608L104.637 87.112C108.105 83.102 109.34 78.3379 109.34 74H96.3398H83.3398C83.3398 73.7736 83.3706 73.2139 83.6229 72.457C83.886 71.6677 84.332 70.843 84.9711 70.104L94.8038 78.608ZM96.3398 74H109.34C109.34 69.6763 108.109 64.8403 104.52 60.8033L94.8038 69.44L85.0875 78.0767C84.3919 77.2942 83.9144 76.4206 83.636 75.5938C83.3698 74.8037 83.3398 74.2233 83.3398 74H96.3398ZM94.8038 69.44L104.52 60.8033C100.765 56.5786 95.7158 54.712 90.7238 54.712V67.712V80.712C90.0864 80.712 89.0902 80.5993 87.9459 80.1146C86.771 79.617 85.8003 78.8786 85.0875 78.0767L94.8038 69.44ZM90.7238 67.712V54.712C85.7318 54.712 80.6828 56.5786 76.9275 60.8033L86.6438 69.44L96.3601 78.0767C95.6474 78.8786 94.6766 79.617 93.5017 80.1146C92.3574 80.5993 91.3612 80.712 90.7238 80.712V67.712ZM86.6438 69.44L76.9275 60.8033C73.339 64.8403 72.1078 69.6763 72.1078 74H85.1078H98.1078C98.1078 74.2233 98.0778 74.8037 97.8117 75.5938C97.5332 76.4206 97.0557 77.2942 96.3601 78.0767L86.6438 69.44ZM85.1078 74H72.1078C72.1078 78.3379 73.343 83.102 76.8111 87.112L86.6438 78.608L96.4765 70.104C97.1156 70.843 97.5616 71.6677 97.8247 72.457C98.077 73.2139 98.1078 73.7736 98.1078 74H85.1078ZM123.611 78.032V65.032C118.646 65.032 114.116 67.859 111.934 72.3178L123.611 78.032ZM131.915 78.032L144.453 81.4652C145.524 77.555 144.709 73.3693 142.25 70.1463C139.791 66.9233 135.969 65.032 131.915 65.032V78.032ZM127.451 84.416L134.906 95.066L127.451 84.416ZM109.739 83.264L100.609 92.5187L100.609 92.5187L109.739 83.264ZM109.739 64.736L100.671 55.4202C100.65 55.4405 100.63 55.4609 100.609 55.4813L109.739 64.736ZM125.195 62.432L119.895 74.3028C119.954 74.3293 120.014 74.3553 120.074 74.3809L125.195 62.432ZM129.419 65.6L119.078 73.4786C119.109 73.5187 119.139 73.5587 119.17 73.5985L129.419 65.6ZM131.435 70.208L118.644 72.5335C118.647 72.5474 118.649 72.5613 118.652 72.5752L131.435 70.208ZM130.811 75.68V88.68C136.195 88.68 141.022 85.3608 142.949 80.3332L130.811 75.68ZM114.251 75.68V62.68C110.429 62.68 106.801 64.3613 104.331 67.2771C101.861 70.1929 100.799 74.0478 101.427 77.8172L114.251 75.68ZM114.347 71.36L101.726 68.2437C100.768 72.1237 101.647 76.2287 104.112 79.3752C106.576 82.5217 110.35 84.36 114.347 84.36V71.36ZM123.275 71.36V84.36C129.913 84.36 135.486 79.3577 136.199 72.7573L123.275 71.36ZM122.363 68.528L113.17 77.7204C113.238 77.7885 113.307 77.8558 113.377 77.9223L122.363 68.528ZM123.611 78.032V91.032H131.915V78.032V65.032H123.611V78.032ZM131.915 78.032L119.376 74.5988C119.373 74.6116 119.422 74.438 119.593 74.1944C119.765 73.9478 119.937 73.8069 119.996 73.766L127.451 84.416L134.906 95.066C139.682 91.7227 142.933 87.0166 144.453 81.4652L131.915 78.032ZM127.451 84.416L119.996 73.766C120.103 73.6905 120.178 73.6713 120.138 73.683C120.079 73.6997 119.808 73.768 119.243 73.768V86.768V99.768C124.644 99.768 130.105 98.4261 134.906 95.066L127.451 84.416ZM119.243 86.768V73.768C118.53 73.768 118.304 73.6637 118.388 73.6946C118.428 73.7096 118.512 73.746 118.617 73.8124C118.723 73.8792 118.809 73.9506 118.868 74.0093L109.739 83.264L100.609 92.5187C105.869 97.7082 112.563 99.768 119.243 99.768V86.768ZM109.739 83.264L118.868 74.0093C118.915 74.0554 118.986 74.1363 119.06 74.249C119.134 74.3618 119.184 74.4661 119.213 74.5419C119.241 74.6151 119.236 74.6257 119.223 74.549C119.209 74.4695 119.187 74.2929 119.187 74H106.187H93.1866C93.1866 80.7353 95.3782 87.3587 100.609 92.5187L109.739 83.264ZM106.187 74H119.187C119.187 73.7071 119.209 73.5305 119.223 73.451C119.236 73.3743 119.241 73.3849 119.213 73.4581C119.184 73.5339 119.134 73.6382 119.06 73.751C118.986 73.8636 118.915 73.9446 118.868 73.9907L109.739 64.736L100.609 55.4813C95.3782 60.6413 93.1866 67.2647 93.1866 74H106.187ZM109.739 64.736L118.806 74.0518C118.77 74.0869 118.706 74.1413 118.618 74.1966C118.53 74.2518 118.458 74.2839 118.42 74.298C118.337 74.3286 118.54 74.232 119.195 74.232V61.232V48.232C112.507 48.232 105.899 50.332 100.671 55.4202L109.739 64.736ZM119.195 61.232V74.232C119.512 74.232 119.706 74.2606 119.801 74.2795C119.892 74.2977 119.914 74.3114 119.895 74.3028L125.195 62.432L130.494 50.5612C126.837 48.9288 123 48.232 119.195 48.232V61.232ZM125.195 62.432L120.074 74.3809C120.119 74.4003 120.002 74.3557 119.795 74.2C119.58 74.0388 119.322 73.7992 119.078 73.4786L129.419 65.6L139.759 57.7214C137.179 54.3345 133.849 51.9973 130.316 50.4831L125.195 62.432ZM129.419 65.6L119.17 73.5985C119.009 73.392 118.877 73.1663 118.781 72.9466C118.686 72.7308 118.653 72.5801 118.644 72.5335L131.435 70.208L144.225 67.8825C143.558 64.2125 142.08 60.6938 139.667 57.6015L129.419 65.6ZM131.435 70.208L118.652 72.5752C118.567 72.1172 118.567 71.7093 118.602 71.3991C118.636 71.1012 118.694 70.9693 118.672 71.0268L130.811 75.68L142.949 80.3332C144.395 76.5627 145.043 72.2991 144.217 67.8408L131.435 70.208ZM130.811 75.68V62.68H114.251V75.68V88.68H130.811V75.68ZM114.251 75.68L101.427 77.8172C102.003 81.2682 103.546 85.5207 107.294 88.8523C111.132 92.2644 115.676 93.288 119.435 93.288V80.288V67.288C120.249 67.288 122.457 67.5436 124.567 69.4197C126.587 71.2153 127.011 73.1638 127.074 73.5428L114.251 75.68ZM119.435 80.288V93.288C121.999 93.288 125.122 92.821 128.194 91.1617C131.417 89.4201 133.802 86.7818 135.287 83.7462L123.611 78.032L111.934 72.3178C112.683 70.7862 114.004 69.2759 115.836 68.2863C117.515 67.379 118.918 67.288 119.435 67.288V80.288ZM119.195 67.472V54.472C115.702 54.472 111.551 55.3789 107.905 58.3025C104.3 61.1939 102.531 64.9829 101.726 68.2437L114.347 71.36L126.968 74.4763C126.802 75.1451 126.161 76.9901 124.172 78.5855C122.142 80.2131 120.096 80.472 119.195 80.472V67.472ZM114.347 71.36V84.36H123.275V71.36V58.36H114.347V71.36ZM123.275 71.36L136.199 72.7573C136.678 68.3262 135.517 63.1211 131.348 59.1337L122.363 68.528L113.377 77.9223C112.227 76.8227 111.297 75.3906 110.768 73.7489C110.261 72.1729 110.257 70.826 110.35 69.9627L123.275 71.36ZM122.363 68.528L131.555 59.3356C127.553 55.3338 122.606 54.472 119.195 54.472V67.472V80.472C118.599 80.472 115.764 80.3142 113.17 77.7204L122.363 68.528ZM154.435 63.392L144.718 72.0287C144.754 72.0685 144.789 72.108 144.825 72.1474L154.435 63.392ZM154.963 75.488V88.488C159.948 88.488 164.494 85.6375 166.665 81.1503L154.963 75.488ZM147.043 75.488L135.615 69.2901C133.431 73.3184 133.528 78.1995 135.872 82.1373C138.216 86.0752 142.46 88.488 147.043 88.488V75.488ZM147.907 68.528L137.58 76.4249C137.675 76.549 137.772 76.6715 137.872 76.7922L147.907 68.528ZM143.491 69.488L132.317 62.844C132.298 62.8752 132.28 62.9064 132.262 62.9377L143.491 69.488ZM142.483 86V99C149.663 99 155.483 93.1797 155.483 86H142.483ZM134.803 86H121.803C121.803 93.1797 127.623 99 134.803 99V86ZM134.803 62V49C127.623 49 121.803 54.8203 121.803 62H134.803ZM142.483 62H155.483C155.483 54.8203 149.663 49 142.483 49V62ZM142.483 65.936H129.483C129.483 72.1721 133.911 77.5297 140.036 78.7036C146.16 79.8775 152.256 76.537 154.561 70.7428L142.483 65.936ZM149.347 61.232V74.232C148.911 74.232 148.1 74.153 147.123 73.7383C146.117 73.3111 145.298 72.6809 144.718 72.0287L154.435 63.392L164.151 54.7553C160.15 50.254 154.772 48.232 149.347 48.232V61.232ZM154.435 63.392L144.825 72.1474C144.198 71.4588 143.801 70.7114 143.588 70.0772C143.389 69.4859 143.403 69.1555 143.403 69.248H156.403H169.403C169.403 64.4351 168.071 59.0561 164.044 54.6366L154.435 63.392ZM156.403 69.248H143.403C143.403 69.4368 143.378 69.5835 143.261 69.8257L154.963 75.488L166.665 81.1503C168.468 77.4245 169.403 73.4112 169.403 69.248H156.403ZM154.963 75.488V62.488H147.043V75.488V88.488H154.963V75.488ZM147.043 75.488L158.47 81.6859C159.911 79.0302 161.579 75.1821 161.579 70.736H148.579H135.579C135.579 69.6809 135.782 69.0192 135.825 68.8857C135.874 68.7354 135.85 68.8582 135.615 69.2901L147.043 75.488ZM148.579 70.736H161.579C161.579 67.7568 160.841 63.7843 157.942 60.2638L147.907 68.528L137.872 76.7922C135.868 74.3597 135.579 71.8592 135.579 70.736H148.579ZM147.907 68.528L158.233 60.6311C155.153 56.6023 150.614 54.712 146.179 54.712V67.712V80.712C144.925 80.712 143.31 80.4731 141.612 79.6712C139.883 78.8551 138.536 77.675 137.58 76.4249L147.907 68.528ZM146.179 67.712V54.712C139.255 54.712 134.645 58.9284 132.317 62.844L143.491 69.488L154.665 76.132C154.289 76.7647 153.44 77.9568 151.857 79.0024C150.15 80.1306 148.147 80.712 146.179 80.712V67.712ZM143.491 69.488L132.262 62.9377C130.029 66.7646 129.483 70.8267 129.483 74.096H142.483H155.483C155.483 73.8732 155.504 73.9634 155.435 74.2821C155.363 74.6096 155.178 75.2533 154.72 76.0383L143.491 69.488ZM142.483 74.096H129.483V86H142.483H155.483V74.096H142.483ZM142.483 86V73H134.803V86V99H142.483V86ZM134.803 86H147.803V62H134.803H121.803V86H134.803ZM134.803 62V75H142.483V62V49H134.803V62ZM142.483 62H129.483V65.936H142.483H155.483V62H142.483ZM142.483 65.936L154.561 70.7428C154.44 71.047 153.892 72.1664 152.484 73.1315C151.062 74.1058 149.772 74.232 149.347 74.232V61.232V48.232C145.593 48.232 141.496 49.1422 137.786 51.6845C134.09 54.2176 131.773 57.689 130.404 61.1292L142.483 65.936ZM160.963 84.416L153.037 94.7201C153.07 94.7458 153.104 94.7714 153.137 94.7968L160.963 84.416ZM157.843 78.032V65.032C150.663 65.032 144.843 70.8523 144.843 78.032H157.843ZM165.283 78.032H178.283C178.283 70.8523 172.463 65.032 165.283 65.032V78.032ZM166.339 80.096L158.693 90.6096C158.766 90.6631 158.84 90.7158 158.915 90.7678L166.339 80.096ZM172.003 80.336L177.817 91.9636L177.817 91.9636L172.003 80.336ZM167.779 76.832L165.503 89.6313C165.61 89.6502 165.716 89.6678 165.823 89.684L167.779 76.832ZM159.667 73.568L150.072 82.34C150.115 82.3862 150.157 82.4321 150.2 82.4777L159.667 73.568ZM161.155 63.392L168.711 73.9705L168.711 73.9705L161.155 63.392ZM177.523 63.68L169.574 73.9667C169.607 73.992 169.64 74.0172 169.673 74.0422L177.523 63.68ZM180.115 70.4V83.4C186.63 83.4 192.14 78.5766 193.001 72.1181L180.115 70.4ZM172.627 70.4L159.946 67.5366C159.076 71.3905 160.005 75.431 162.472 78.5171C164.939 81.6032 168.676 83.4 172.627 83.4V70.4ZM172.003 68.048L180.699 58.3852L180.699 58.3852L172.003 68.048ZM166.819 67.712L159.757 56.7976C159.655 56.8635 159.554 56.9308 159.454 56.9995L166.819 67.712ZM167.587 70.496L163.361 82.7899C163.476 82.8297 163.593 82.8678 163.709 82.9042L167.587 70.496ZM171.283 71.312L169.285 84.1575C169.299 84.1597 169.313 84.1619 169.327 84.164L171.283 71.312ZM175.699 72.272L172.163 84.782C172.248 84.8059 172.332 84.8289 172.417 84.851L175.699 72.272ZM177.763 84.608L185.011 95.3998C185.048 95.3751 185.084 95.3503 185.121 95.3252L177.763 84.608ZM169.411 86.768V73.768C168.57 73.768 168.182 73.673 168.122 73.6563C168.099 73.6499 168.163 73.6659 168.29 73.727C168.42 73.7892 168.594 73.8885 168.788 74.0352L160.963 84.416L153.137 94.7968C158.165 98.5869 164.047 99.768 169.411 99.768V86.768ZM160.963 84.416L168.889 74.1119C169.264 74.4004 169.851 74.9879 170.303 75.9118C170.752 76.8308 170.843 77.6237 170.843 78.032H157.843H144.843C144.843 84.6666 147.712 90.6244 153.037 94.7201L160.963 84.416ZM157.843 78.032V91.032H165.283V78.032V65.032H157.843V78.032ZM165.283 78.032H152.283C152.283 83.0922 154.655 87.6731 158.693 90.6096L166.339 80.096L173.985 69.5824C175.074 70.3743 176.254 71.5822 177.12 73.2748C177.988 74.9708 178.283 76.6511 178.283 78.032H165.283ZM166.339 80.096L158.915 90.7678C162.58 93.3174 166.519 93.864 169.363 93.864V80.864V67.864C169.647 67.864 171.57 67.8986 173.763 69.4242L166.339 80.096ZM169.363 80.864V93.864C171.779 93.864 174.799 93.4723 177.817 91.9636L172.003 80.336L166.189 68.7084C167.798 67.9037 169.058 67.864 169.363 67.864V80.864ZM172.003 80.336L177.817 91.9636C180.695 90.5245 186.059 86.5374 186.059 78.992H173.059H160.059C160.059 76.2062 161.041 73.6541 162.573 71.7043C163.945 69.9577 165.44 69.0829 166.189 68.7084L172.003 80.336ZM173.059 78.992H186.059C186.059 74.2683 183.751 70.6415 181.235 68.4405C179.059 66.5364 176.752 65.6621 175.4 65.2398L171.523 77.648L167.645 90.0562C167.318 89.9539 165.778 89.4636 164.114 88.0075C162.111 86.2545 160.059 83.1397 160.059 78.992H173.059ZM171.523 77.648L175.4 65.2398C173.56 64.6645 171.628 64.2681 169.735 63.98L167.779 76.832L165.823 89.684C166.874 89.8439 167.438 89.9915 167.645 90.0562L171.523 77.648ZM167.779 76.832L170.054 64.0327C169.058 63.8555 168.022 63.618 166.946 63.314L163.411 75.824L159.875 88.334C161.743 88.862 163.62 89.2965 165.503 89.6313L167.779 76.832ZM163.411 75.824L166.946 63.314C167.269 63.4052 167.664 63.5624 168.08 63.8132C168.498 64.0651 168.853 64.3604 169.133 64.6583L159.667 73.568L150.2 82.4777C152.878 85.3234 156.193 87.2935 159.875 88.334L163.411 75.824ZM159.667 73.568L169.261 64.796C169.906 65.5013 170.421 66.3508 170.748 67.2615C171.066 68.1454 171.131 68.8705 171.131 69.296H158.131H145.131C145.131 73.7876 146.552 78.4897 150.072 82.34L159.667 73.568ZM158.131 69.296H171.131C171.131 69.8407 171.008 70.7995 170.457 71.8744C169.905 72.9527 169.187 73.6302 168.711 73.9705L161.155 63.392L153.599 52.8135C148.136 56.7154 145.131 62.6391 145.131 69.296H158.131ZM161.155 63.392L168.711 73.9705C168.529 74.1003 168.367 74.1894 168.242 74.2469C168.12 74.3035 168.052 74.3212 168.06 74.3191C168.086 74.3121 168.405 74.232 169.123 74.232V61.232V48.232C164.002 48.232 158.444 49.3524 153.599 52.8135L161.155 63.392ZM169.123 61.232V74.232C169.869 74.232 170.188 74.3208 170.202 74.3248C170.204 74.3254 170.133 74.3048 170.011 74.2441C169.888 74.1825 169.736 74.0916 169.574 73.9667L177.523 63.68L185.472 53.3933C180.47 49.5281 174.602 48.232 169.123 48.232V61.232ZM177.523 63.68L169.673 74.0422C169.008 73.5385 168.152 72.6038 167.626 71.2383C167.124 69.9369 167.193 68.9521 167.229 68.6819L180.115 70.4L193.001 72.1181C193.931 65.144 191.635 58.0618 185.373 53.3178L177.523 63.68ZM180.115 70.4V57.4H172.627V70.4V83.4H180.115V70.4ZM172.627 70.4L185.308 73.2634C186.344 68.6745 185.532 62.7342 180.699 58.3852L172.003 68.048L163.306 77.7108C161.871 76.4187 160.658 74.6033 160.074 72.4016C159.521 70.3177 159.711 68.5773 159.946 67.5366L172.627 70.4ZM172.003 68.048L180.699 58.3852C176.792 54.8684 172.207 54.184 169.171 54.184V67.184V80.184C168.631 80.184 165.934 80.0756 163.306 77.7108L172.003 68.048ZM169.171 67.184V54.184C166.973 54.184 163.297 54.5066 159.757 56.7976L166.819 67.712L173.881 78.6264C172.596 79.458 171.422 79.8297 170.662 80.0003C169.906 80.1701 169.369 80.184 169.171 80.184V67.184ZM166.819 67.712L159.454 56.9995C156.272 59.1873 153.051 63.2704 153.051 69.008H166.051H179.051C179.051 71.036 178.512 73.0962 177.427 74.9274C176.393 76.6717 175.122 77.7793 174.184 78.4245L166.819 67.712ZM166.051 69.008H153.051C153.051 78.5514 161.184 82.0416 163.361 82.7899L167.587 70.496L171.813 58.2021C172.255 58.3542 173.841 58.9354 175.48 60.5229C177.435 62.4169 179.051 65.391 179.051 69.008H166.051ZM167.587 70.496L163.709 82.9042C165.521 83.4705 167.417 83.867 169.285 84.1575L171.283 71.312L173.281 58.4665C172.268 58.309 171.7 58.1615 171.464 58.0878L167.587 70.496ZM171.283 71.312L169.327 84.164C170.252 84.3047 171.196 84.5087 172.163 84.782L175.699 72.272L179.234 59.762C177.257 59.2033 175.258 58.7673 173.239 58.46L171.283 71.312ZM175.699 72.272L172.417 84.851C172.09 84.7657 171.681 84.6134 171.242 84.3604C170.801 84.1059 170.419 83.8003 170.11 83.4819L179.443 74.432L188.776 65.3821C186.037 62.5579 182.672 60.6559 178.98 59.693L175.699 72.272ZM179.443 74.432L170.11 83.4819C169.372 82.7205 168.784 81.7914 168.411 80.7895C168.05 79.8208 167.979 79.0232 167.979 78.56H180.979H193.979C193.979 74.0429 192.513 69.2363 188.776 65.3821L179.443 74.432ZM180.979 78.56H167.979C167.979 77.9733 168.117 76.978 168.697 75.8885C169.272 74.8069 169.994 74.1728 170.405 73.8908L177.763 84.608L185.121 95.3252C190.729 91.4748 193.979 85.4847 193.979 78.56H180.979ZM177.763 84.608L170.515 73.8162C171.11 73.4162 171.08 73.768 169.411 73.768V86.768V99.768C174.59 99.768 180.127 98.6798 185.011 95.3998L177.763 84.608Z" fill="#FCFAF4" mask="url(#path-1-outside-1_83_9)"/>
</g>
<defs>
<filter id="filter0_d_83_9" x="0.959106" y="0.631836" width="201.02" height="115.968" filterUnits="userSpaceOnUse" color-interpolation-filters="sRGB">
<feFlood flood-opacity="0" result="BackgroundImageFix"/>
<feColorMatrix in="SourceAlpha" type="matrix" values="0 0 0 0 0 0 0 0 0 0 0 0 0 0 0 0 0 0 127 0" result="hardAlpha"/>
<feOffset dx="4" dy="4"/>
<feGaussianBlur stdDeviation="2"/>
<feColorMatrix type="matrix" values="0 0 0 0 0 0 0 0 0 0 0 0 0 0 0 0 0 0 0.15 0"/>
<feBlend mode="normal" in2="BackgroundImageFix" result="effect1_dropShadow_83_9"/>
<feBlend mode="normal" in="SourceGraphic" in2="effect1_dropShadow_83_9" result="shape"/>
</filter>
</defs>
</svg>
