<svg width="210" height="209" viewBox="0 0 210 209" fill="none" xmlns="http://www.w3.org/2000/svg">
<g clip-path="url(#clip0_40_167)">
<path d="M85.8793 11.2039C124.826 -5.12183 168.023 12.7805 193.553 42.3504C207.569 67.7583 207.827 102.376 193.532 131.676C180.04 159.248 154.859 181.811 122.416 194.996C105.673 201.764 90.3915 204.597 76.9076 203.642L75.6078 203.538L74.5463 203.43C63.6206 202.197 54.1044 197.169 46.2201 190.879H46.2191C45.6629 190.432 45.1296 189.979 44.5375 189.475L44.5228 189.464L44.5082 189.451L43.7426 188.802C41.9748 187.279 40.2853 185.676 38.6488 184.056C36.5655 181.932 34.6547 179.77 32.9525 177.706L29.6429 173.691L29.3568 173.946C7.50553 147.308 0.01291 116.081 8.28357 89.7488L8.28259 89.7479C16.7947 62.7738 38.6854 39.4711 62.1527 23.9803L62.1595 23.9764L62.1664 23.9715C69.6601 18.9893 77.5986 14.7151 85.8793 11.2039ZM48.8207 91.6492C39.543 88.2756 28.4744 89.3267 18.9691 93.9695L18.9506 93.9783L18.933 93.9881C15.1225 95.8881 10.7648 98.7775 8.02478 103.233L7.76501 103.67L7.76306 103.672C7.23413 104.588 6.67003 105.793 6.38123 107.157C6.09639 108.502 5.99147 110.459 7.00134 112.407L7.02771 112.459L7.05603 112.511C8.59504 115.316 11.3287 116.069 12.975 116.253C14.613 116.436 16.2291 116.201 17.2025 116.04L17.223 116.037L17.2435 116.033C18.5784 115.801 19.8121 115.557 20.9779 115.324C20.8466 116.252 20.7899 117.19 20.8099 118.131L20.8265 118.602C20.9724 123.332 22.4878 127.538 24.0492 131.015V131.014C33.1305 151.776 51.2188 167.756 74.0629 172.895L75.1547 173.132L75.1635 173.134C89.001 175.993 104.286 174.973 118.717 169.784L118.716 169.783C125.54 167.355 132.007 164.026 137.948 159.886C138.481 161.567 139.367 163.686 141.362 165.593C142.262 166.541 143.416 167.214 144.69 167.529L144.793 167.555L144.897 167.576C146.899 167.982 148.55 167.325 149.48 166.819C150.417 166.309 151.155 165.664 151.637 165.202L151.638 165.203C156.344 160.742 159.261 154.724 159.865 148.277C161.172 143.557 159.763 139.065 157.675 135.722C155.511 132.259 152.253 129.387 148.924 127.878L148.902 127.867L148.878 127.857L147.864 127.42C146.625 126.9 144.772 126.181 142.84 125.679C141.563 125.346 140.018 125.045 138.464 125.042C137.015 125.038 134.759 125.289 132.865 126.883L132.851 126.894L132.838 126.906C130.644 128.778 129.96 131.255 129.976 133.375C129.991 135.306 130.571 137.11 131.081 138.423C131.604 139.766 132.269 141.107 132.696 142.002C132.894 142.417 133.029 142.719 133.121 142.93C127.057 149.355 119.338 152.018 110.422 155.009L106.545 156.317C98.1418 159.156 89.0764 159.362 80.5531 156.91L80.5443 156.907L80.5365 156.905L79.683 156.655C62.1109 151.35 48.5605 137.51 41.6947 120.494L41.3676 119.669L41.3636 119.657L41.1927 119.199C40.7691 118.011 40.1846 116.024 39.8402 114.018C39.6446 112.879 39.5522 111.877 39.5677 111.096C39.5743 110.764 39.6016 110.538 39.6234 110.396C39.9309 110.21 40.3885 110.009 41.1381 109.734L41.1722 109.722L41.2064 109.709C44.9599 108.271 48.678 106.897 52.3949 105.627L54.9808 104.743L55.6332 102.09C56.421 98.8874 55.1536 96.2412 53.5238 94.5565C52.0549 93.0381 50.2089 92.1505 48.8217 91.6483L48.8207 91.6492ZM157.64 34.4246C154.539 33.8307 151.863 34.9714 149.994 36.2899C146.663 38.6388 144.257 42.629 143.085 45.7879L142.878 46.3758C142.382 47.8397 141.969 49.4189 141.635 50.5877C141.272 51.8589 140.94 52.8856 140.523 53.8045C139.469 56.0854 137.568 57.9513 134.774 59.994C133.352 61.0335 131.919 61.9674 130.269 63.0916C128.692 64.1661 126.988 65.3676 125.399 66.7361L125.373 66.7586L125.348 66.7801C118.622 72.7297 113.872 80.5985 111.735 89.3289C111.217 91.4428 110.479 95.0505 110.438 98.6649C110.417 100.473 110.566 102.505 111.131 104.445C111.698 106.389 112.784 108.568 114.867 110.157L114.947 110.218L115.028 110.275C117.261 111.841 120.004 112.49 122.698 112.099C126.393 111.703 129.091 109.618 130.944 107.295C132.754 105.024 133.996 102.255 134.905 99.7098C135.828 97.1233 136.524 94.4227 137.09 92.1443C137.694 89.7117 138.103 87.9791 138.512 86.7977L138.526 86.7586C139.291 84.4857 140.211 83.1624 141.314 82.1131C142.539 80.9475 144.182 79.9276 146.842 78.4852L146.849 78.4822L146.855 78.4783C157.369 72.7384 161.193 62.668 164.703 54.3055L164.703 54.3045C165.905 51.4611 168.355 45.3443 164.807 39.784L164.471 39.2801C162.81 36.8834 160.564 34.9847 157.64 34.4246ZM116.665 17.3436C114.521 15.6747 111.894 15.0534 109.128 15.2733L108.573 15.3279C102.064 16.1017 99.3738 21.983 98.1322 25.4539C97.4287 27.4207 96.8895 29.504 96.4515 31.1287C96.0261 32.7069 95.7173 33.7617 95.433 34.4598L95.3119 34.7371L95.3099 34.743C94.2339 37.0617 92.3053 38.9539 89.5082 41.0106C88.0886 42.0544 86.6584 42.9941 85.0189 44.117C83.4512 45.1908 81.759 46.3898 80.184 47.7508L80.1664 47.7664L80.1478 47.782C73.4041 53.7214 68.6492 61.597 66.5267 70.3377C66.0119 72.4403 65.2626 76.052 65.2103 79.6707C65.1842 81.4811 65.3267 83.5175 65.8881 85.4617C66.4506 87.4101 67.5353 89.5991 69.6263 91.1922L69.7113 91.2576L69.8002 91.3182C72.0383 92.8759 74.7837 93.5141 77.476 93.1121C81.1529 92.7058 83.8383 90.6285 85.6849 88.3123C87.4952 86.0417 88.737 83.2713 89.6449 80.7264C90.5676 78.1401 91.2631 75.44 91.8285 73.1619C92.3568 71.0333 92.7358 69.441 93.0961 68.285L93.2494 67.8162L93.2543 67.8026C94.0447 65.4984 94.9727 64.1632 96.0765 63.1072C97.3024 61.9347 98.9356 60.9127 101.593 59.4451L101.592 59.4442C112.154 53.7157 115.958 43.6271 119.445 35.324L119.444 35.3231C120.774 32.1802 121.512 27.5675 120.5 23.5203C119.974 21.4128 118.863 19.0534 116.665 17.3436Z" fill="#B298DC" stroke="#292828" stroke-width="10"/>
<path d="M11.4804 110.111C12.304 111.613 14.5802 111.417 16.4271 111.112C20.3853 110.386 24.5332 109.32 28.4516 109.11C28.6712 110.952 27.3483 111.562 26.7094 113.114C26.0373 114.776 25.7345 116.564 25.8213 118.355C25.9211 122.16 27.1439 125.694 28.6114 128.962C37.2268 148.695 54.4925 163.712 76.1757 168.232C89.0887 170.9 103.439 169.959 117.026 165.074C123.897 162.631 130.383 159.214 136.288 154.927C138.35 153.46 139.408 152.134 140.397 152.84C140.742 153.103 141.017 153.447 141.2 153.841C142.658 156.699 142.348 159.727 144.944 162.095C145.194 162.379 145.525 162.58 145.892 162.671C146.681 162.831 147.529 162.215 148.198 161.57C152.135 157.837 154.536 152.762 154.927 147.343C156.958 141.141 151.607 134.579 146.86 132.426C144.864 131.545 138.375 128.777 136.084 130.704C132.839 133.472 137.706 139.78 138.21 142.373C138.354 142.924 138.376 143.499 138.275 144.06C138.101 144.906 137.442 145.651 136.778 146.337C128.791 154.812 118.199 157.605 108.146 161.049C98.7784 164.213 88.6722 164.444 79.1706 161.71C59.1696 156.028 44.0501 140.375 36.7076 121.474C35.6344 118.731 33.493 111.097 35.2101 107.918C36.0287 106.387 37.8205 105.621 39.4178 105.035C43.2064 103.583 46.9853 102.187 50.7789 100.89C51.3479 98.5776 49.1666 97.0859 47.12 96.3451C39.3083 93.5018 29.6497 94.3127 21.1641 98.4575C17.5902 100.24 14.0962 102.702 12.0946 106.166C11.4008 107.448 10.8964 108.985 11.4804 110.111Z" fill="#E5B0A9"/>
<path d="M71.3787 71.5267C70.4154 75.4612 68.788 84.2713 72.6515 87.2146C73.8787 88.0692 75.3922 88.4054 76.8645 88.1507C84.851 87.3398 86.503 72.0073 88.5195 66.1806C90.5611 60.2288 93.8504 58.0062 99.1714 55.0679C107.951 50.3225 111.191 42.0531 114.83 33.3882C116.826 28.6878 116.897 19.3721 109.16 20.2932C102.581 21.0741 101.982 32.2469 99.8406 36.8471C96.6211 43.785 88.8589 46.8585 83.4481 51.5339C77.4725 56.7966 73.2584 63.7773 71.3787 71.5267Z" fill="#E5B0A9"/>
<path d="M116.602 90.5134C115.639 94.4479 114.051 103.233 117.91 106.176C119.137 107.03 120.65 107.366 122.123 107.112C130.109 106.301 131.766 90.9689 133.783 85.1423C135.78 79.2155 139.109 76.9679 144.455 74.0696C153.175 69.3092 156.434 61.0548 160.088 52.3498C161.376 49.3064 162.584 45.5821 160.587 42.4535C155.596 34.7047 149.326 42.7739 147.609 47.9598C146.721 50.5828 146.222 53.3209 145.068 55.8588C141.889 62.7717 134.122 65.8002 128.656 70.5056C122.697 75.7854 118.491 82.767 116.602 90.5134Z" fill="#E5B0A9"/>
</g>
<defs>
<clipPath id="clip0_40_167">
<rect width="209.165" height="208.818" fill="white"/>
</clipPath>
</defs>
</svg>
